/* XPM */
static char *result[] = {
/* columns rows colors chars-per-pixel */
"50 50 114 2 ",
"   c #2585C5",
".  c #2986C4",
"X  c #2F8BC7",
"o  c #2787C8",
"O  c #278ACB",
"+  c #2A8CCD",
"@  c #338CC5",
"#  c #328DC9",
"$  c #3592CE",
"%  c #3A91CA",
"&  c #278DD0",
"*  c #2B8FD1",
"=  c #2B92D4",
"-  c #2C95DB",
";  c #2D98DF",
":  c #3395D5",
">  c #3995D2",
",  c #3E99D4",
"<  c #3499DC",
"1  c #3A9CDB",
"2  c #2E9CE4",
"3  c #2F9FE8",
"4  c #339DE3",
"5  c #3A9FE1",
"6  c #309FE8",
"7  c #36A1E7",
"8  c #3BA1E3",
"9  c #33A3EC",
"0  c #3AA6EB",
"q  c #3EA9EE",
"w  c #34A7F1",
"e  c #35A9F5",
"r  c #3CACF5",
"t  c #4592C1",
"y  c #4F98C5",
"u  c #4799CD",
"i  c #489ACF",
"p  c #589EC8",
"a  c #439CD4",
"s  c #4D9FD3",
"d  c #4DA1D5",
"f  c #41A0DE",
"g  c #4BA3DA",
"h  c #53A4D7",
"j  c #5BA4D0",
"k  c #52A6DB",
"l  c #56A9DD",
"z  c #5EADDD",
"x  c #6AB2DE",
"c  c #72B7DF",
"v  c #44A7E7",
"b  c #48A7E4",
"n  c #4CABE6",
"m  c #42A7E8",
"M  c #44AAEC",
"N  c #4BADEC",
"B  c #52ABE3",
"V  c #59ADE3",
"C  c #52AFEA",
"Z  c #4EB0EE",
"A  c #5CB2E7",
"S  c #54B2ED",
"D  c #5BB3EA",
"F  c #42AEF5",
"G  c #4AAFF1",
"H  c #45B1F6",
"J  c #4CB3F5",
"K  c #53B6F5",
"L  c #59B6F2",
"P  c #56B8F6",
"I  c #5CBAF5",
"U  c #62B3E5",
"Y  c #6EB9E4",
"T  c #65B9ED",
"R  c #6DBEED",
"E  c #74BAE3",
"W  c #72BEEC",
"Q  c #64BDF5",
"!  c #6BBFF1",
"~  c #75C2EE",
"^  c #7CC5EE",
"/  c #66C0F7",
"(  c #6CC1F6",
")  c #73C5F6",
"_  c #7AC7F4",
"`  c #7DC9F6",
"'  c #77C7F8",
"]  c #78C7F8",
"[  c #7AC9F8",
"{  c #8DBED6",
"}  c #92C5DD",
"|  c #9CC9DD",
" . c #84C4E6",
".. c #8FC8E7",
"X. c #81C6EC",
"o. c #8AC7E8",
"O. c #86C9ED",
"+. c #8CCBED",
"@. c #9DCEE4",
"#. c #92CEEC",
"$. c #96D1EF",
"%. c #9CD2ED",
"&. c #83CBF4",
"*. c #8BCDF2",
"=. c #91CFF1",
"-. c #94D0F0",
";. c #ABD6E7",
":. c #AFD8E7",
">. c #A4D5EB",
",. c #AAD7EA",
"<. c #ADD8E9",
"1. c #B4DAE7",
"2. c #BDDDE5",
"3. c #B1D9E8",
/* pixels */
"&./ J J ) %.%.%.%.%.%.%.%.%.-.&.&.*.%.%.$.&.Q v : - 9 r H I _ #._ I I I I ) &.,.2.2.2.2.2.2.2.%.( P ",
"&./ J H Q &.%.3.1.<.>.*.&.&.*.&.*.%.,.%.&.` ' l # O 2 w r J ! ` / J K / _ ` *.,.2.2.2.2.2.2.2.@.L r ",
"` / H F J ! #.1.<.>.-.&.&.=.-.-.%.<.3.%.&.&.-.Y , = 9 r J P ) +.) I Q ' ` *.%.<.2.2.2.2.2.2.1.$.L r ",
"_ / J e r K O.3.>.*.&.&.*.%.<.<.3.1.<.%.*.-.>.X.n 9 w F P ) #.>.=.' ' [ *.>.3.2.2.2.2.2.2.2.1.+.L H ",
"] / J e e F ^ %.=.&.] [ *.%.<.1.2.3.>.%.-.%.>.&.J r H K ! &.=.>.%.-.&.&.-.<.2.2.2.2.2.3.<.,.>.*.I L ",
"] Q H e e F ! &.&.[ ] ] [ *.%.3.3.%.%.%.>.%.*.) J H I ( ) ] &.*.%.>.%.&.*.3.2.2.2.2.1.,.-.*.*.&.) ( ",
"] Q v 7 e J Q ) ) ( ) ' &.&.$.<.1.%.-.>.1.<.-.' K J I ( ' [ &.*.%.>.%.&.-.<.2.2.2.2.,.-.&.&.*.&.` ` ",
"' U , > n Q ) ) Q P I ) *.%.3.1.2.3.3.3.2.1.>.-.' I K P ! [ -.>.%.-.&.&.*.<.2.2.2.<.-.&.` *.%.%.&.&.",
"( V % @ B ! ) Q I J K Q O.<.2.2.2.2.2.2.2.2.1.%.` Q J J / ` %.<.%.&.[ &.=.>.1.1.<.-.*.&.*.-.,.,.-.-.",
"L M 4 < F K K K P I I I ) >.2.2.2.2.2.2.2.<.%.` I P P Q ) ] *.-.*.` *.%.%.%.-.-.%.%.>.>.>.%.-.%.%.<.",
"H e e w e r r H P Q P J Q @.2.2.2.2.2.2.1.,.*.' K P Q ' [ &.&.&.&.*.%.,.,.*.[ ' ` %.1.1.<.%.&.*.%.<.",
"F e e e e e J P P K J F T >.2.2.2.2.2.2.2.<.>.&.Q Q ) &.-.%.%.%.%.%.,.1.,.*.' / Q -.3.<.%.*.&.] ^ ^ ",
"r w e e e H P ! P F w F T %.2.2.2.2.2.1.1.1.3.%.&.[ [ &.%.1.3.3.3.1.1.3.,.*.) K J o.>.%.&.&.[ / K K ",
"< ; 9 e J P ! ) B 4 2 e L @.2.2.2.2.>.>.%.>.>.%.%.*.&.*.>.1.3.>.<.2.1.,.%.$.O.P H ) #.*.&.[ ' / H H ",
"  & 4 F I ) ' ) k X * 5 T %.2.2.3.%.*.&.*.*.&.-.>.>.*.*.>.3.>.*.%.1.,.%.$.>.@.I H Q ` &.' ' ' Q H H ",
"+ = v P ( [ &.O.x i 1 0 I @.2.<.>.*.&.&.*.-.-.%.>.$.*.*.>.1.>.%.,.1.<.%.%.3.>.~ P / ) ( / / ) Q H J ",
"9 q L ) ) &.%.>.+.Y S G T %.3.%.&.&.&.-.,.3.3.>.-.&.&.*.>.1.1.1.2.2.2.1.1.2.:.O.( _ ' I J P ) / H H ",
"w H I ( ` #.,.1.%.` I H L +.>.$.*.*.-.%.,.,.<.$.&.&.&.-.%.<.1.2.2.2.2.2.2.2.;.` / / / P J P Q I J P ",
"9 r H L O.<.3.1.%.` Q H J _ $.%.,.<.>.%.-.*.*.&.[ &.%.>.%.-.,.2.2.2.2.2.2.2.;.~ J H J P / I J K Q ( ",
"9 e H L X.%.;.,.$.` I H H Q ^ >.1.3.,.-.&.&.*.*.*.%.<.<.-.*.>.1.2.2.2.2.2.2.>.T r F H P I P F H I ( ",
"w r P Q Q T &.*.*.' I H r H Q %.3.>.-.&.&.*.>.>.>.<.3.3.-.*.%.1.2.2.2.2.2.2.>.T r K I I J H e r J P ",
"r K / / K H Q ` ` ' I F e r P +.>.-.&.[ [ -.,.1.1.2.3.<.%.*.>.2.2.2.2.2.1.:.%./ J I / S q 0 e 9 9 M ",
"P Q ( ( J r I ' ` ' Q F e e J _ *.&.&.[ [ &.-.>.1.3.>.%.%.>.3.2.2.2.<.>.%.$.=.( Q ( ( B : ; 9 3 = : ",
"Q ) ' ( J r I ' ` ' I r w e J ( [ [ ' ' [ &.&.%.3.3.-.-.,.1.2.2.2.1.>.*.` &.` [ ' ' ) h @ & 9 2   o ",
"P / ) ( J F I ' _ ) V 1 1 G I ( ) / / / _ &.$.;.1.3.,.>.3.2.2.2.<.%.$.&.&.-.-.*.` *...c h f 0 9 - - ",
"H K / ( J r I ' ' ) l @ % A ) ' ( K J I ) $.:.2.2.2.2.2.2.2.2.2.>.*.` ` *.>.<.*.&.%.;.$.~ P r e w 9 ",
"P P ) ( I P / ' ( Q b : : N Q I I P K P / O.1.2.2.2.2.2.2.2.<.>.%.$.$.$.%.%.%.%.%.<.1.%.` I r r H M ",
"/ ) ' ' ) ( ) ) I J w 9 0 r F F J P / P J ~ 1.2.2.2.2.2.2.1.%.*.%.,.<.<.>.-.-.%.<.1.1.%.` I H J Q A ",
") ` *.&.) Q ) ) I r e e e e r H K P I J H ~ ;.2.2.2.2.2.2.1.*.' +.1.1.,.%.&.` O.$.@.>.$.` I H J ` E ",
"_ *.%.#.( J Q ( P r e e e e r I I P H r r R ;.2.2.2.2.2.2.<._ P ^ >.;.$.*.` ) / I ~ &.&.) Q H L +.o.",
"` *.;.@.U 5 J Q Z 7 9 e r F K / ! N 9 9 r ~ 3.2.2.2.3.:.:.%.( H ( @.$.&.[ ` ( K r I _ [ ) I H L $.+.",
"&.=.>.@.j + 1 F 1 & = w F P / ' T g = ; q ~ 3.2.2.3.%.$.=.O.I F Q &.&.` [ [ ( K r I ' [ _ I H K ^ ) ",
"&.*.,.| p   - 9 = o = 0 P ( ] &.W s @ : r W :.2.1.>.=.&.&.` I H I ) ) ) ' ' / J F I ' ] ' I m N ~ ) ",
"&.=.>.@.z = 6 9 3 ; 8 S ! ) &.-...E l b F R :.3.%.*.&.&.$.$.` / ( ' / I I ( ( J r I ' ] ) C > d  ...",
"&.=.>.@.T r 0 w w e J Q ' &.*.,.<.#.) K G R ;.>.=.&.&.*.%.,.=.' ) ( I J J Q / J H / ) ' ! k @ y } >.",
"%.%.%.*.) K 8 = 2 9 F P ! *.>.1.:.$.' P H I +.%.%.%.%.%.%.-.) I P P P I P P I P I ( ' / L v < d ^ O.",
",.>.=.&.] ! a . - 9 r H Q #.:.1.<.-.' P H K ) =.,.3.3.,.-.` I r r J K Q I J J I ( ' ) I H e 0 J ) ) ",
"1.,.*.&.*.+.l # ; 9 H J I ~ o.%.-.*.) P r H P ^ ,.3.,.%.*.( P r F J P L P r e J Q ( ( I r e e K O.O.",
"2.,.=.*.%.%.Y 0 9 r J Q Q K L ) &.` ) P r r r ! >.,.$.&.` ) P r P / I J r e e r H I / P r w r L $.%.",
",.%.%.-.>.#.Q r r J Q ( Q H H Q ' ] ) P r e e I +.$.&.` ] ' I P I ( L 8 3 9 w 2 < N S M < 3 0 L +.%.",
"-.$.>.,.#.&.L F K / ) ) Q H H / ' ] ) P e e e K ' &.` ' ] ] ) ( ' ) z $ + 3 3 & o < 0 < o = 9 K _ $.",
"$.%.<.3.%.*.Q K P / ) ) Q H r Q _ ] ) S 7 0 F I ( ' ( / ' ] [ ` &.&.x u $ 7 9 & o ; 9 - O : m I ^ $.",
"<.3.1.2.1.>.&./ P K I ( / H H / ' _ ! g @ , Q ( _ ( P P / ] ` [ $.%...Y S q 9 3 2 9 w 3 7 v I ^ %.>.",
"2.2.2.2.3.,.&.( P J I ( / P J / ' ) Q g X , T / ( I P K I ( ` +.%.:.%.O./ H r r r 0 3 9 e H / &.%.%.",
"2.2.2.2.>.*.! K P I / ' ' / / ) ) I J 8 4 0 J J J P I I P L ^ >.3.1.>.&./ H r K D 1 + ; 9 r J / &.*.",
"2.2.2.1.%.&.Q J I ) ` &.] ) ( ' ( K r e w e e r H J I I J J ~ %.;.:.%.&./ J H / ~ d O = 9 r H I ` *.",
"2.2.2.1.<.%._ / ( ] &.-.*./ I ( ( K e e e e e F K I P J F r L ( O.=.=.` / J J ^ +.z < 7 0 H P ) -.%.",
"2.2.1.1.3.,.#.` ] &.#.;.+.S H I Q J w w e e r K Q Q J e e e r F I _ ` ` / J J O.@.T q e r K ( &.>.3.",
">.%.%.>.%.%.%.-.*.&.-.,...d : N Z 8 - 3 0 H K Q ( T f ; 7 e e r K ) [ ' / J H ^ +.T H H K / _ &.-.,.",
"*.&.&.&.&.*.%.<.%.*.-.,.{ t   4 7 +   = w J ( ' ` U % . - w e e P ( ] _ / J F / _ P H K / ) ] ] ` -."
};
