/* XPM */
static char *result[] = {
/* columns rows colors chars-per-pixel */
"50 50 68 1 ",
"  c #3A9BEF",
". c #419EEF",
"X c #45A1EF",
"o c #49A2EF",
"O c #46A1F0",
"+ c #4CA4F0",
"@ c #50A7F0",
"# c #54A9F1",
"$ c #5BADF1",
"% c #65B1EF",
"& c #6BB4EE",
"* c #71B7ED",
"= c #75BAEE",
"- c #7CBDEF",
"; c #60AFF2",
": c #64B2F2",
"> c #6CB6F2",
", c #6FB8F3",
"< c #70B7F1",
"1 c #74BAF2",
"2 c #7BBDF1",
"3 c #7EC0F4",
"4 c #F3C09E",
"5 c #F4C4A4",
"6 c #F4C7A8",
"7 c #F5CAAC",
"8 c #F6CEB3",
"9 c #F6D0B6",
"0 c #F7D4BB",
"q c #F8D6BE",
"w c #80BFEE",
"e c #80BFF0",
"r c #84C1EE",
"t c #8BC5ED",
"y c #99CAE7",
"u c #92C7EB",
"i c #95CAEE",
"p c #9CCDED",
"a c #83C2F2",
"s c #8BC6F1",
"d c #8FC8F1",
"f c #92C9F0",
"g c #A1CFEB",
"h c #A7D0E6",
"j c #ACD4E6",
"k c #A4D1EB",
"l c #ACD4E9",
"z c #B3D5E6",
"x c #B9D7E5",
"c c #B5D9E7",
"v c #BCDBE5",
"b c #B1D7E8",
"n c #B2D8E8",
"m c #EFDECC",
"M c #F6D7C0",
"N c #F4D9C4",
"B c #F0DDC9",
"V c #CFE1DF",
"C c #D3E1DE",
"Z c #DCE4DC",
"A c #EDE0CE",
"S c #EAE3D4",
"D c #E3E5DB",
"F c #E8E6D9",
"G c #C4DEE3",
"H c #CADFE1",
"J c #CDE0E0",
"K c #D0E1E0",
/* pixels */
"                                                  ",
"                                                  ",
"O OO X OO .OOO...O. ..OO ..OO...OX...O...OOO...OO ",
":O:$o$O>#+##>:@#+;;+#+:#@##::##@#:@@@$##+#:>@#+#;O",
"++O+Xo +O+OO@+OOOOOOO.OOOOO++OO+.OXOO.O+OO+@OO+OOO",
":$+,#$O:$,:$>,#$;#:;$+$$>>$>,##;#;;#@$$<:;:<$$;@;$",
"@O$1:@@$;:2:#>:@O$,:#@#;:2>$:;+O#,>#@#$;2>#>;$O#<<",
"u-f1$,1;$,,2aiifes2;>1:$:,easreaae:>1:;;11efiiwre>",
"JJHhe<1;1=wwfxHKKGlpe,>>>efgxHKKHzu1<><=33tbvJVVll",
"DDDZHki2ebxldkxJZDZKxkffgvvGHKKDDDHzpe2gvbfgnJZZKF",
"xKJKCZGe,dgdadfpHDFDKKvkpkblpgnHKKCCGu1spuaddiGZFF",
"alkkxzHbf2sseafkGDDDCKvkffkkdsfglgzxGbpetsa3dgcZDD",
"apgizfklnseseikGHZKxklkkifpfassfgphpphbu333tpcVCCH",
"sbHGHxxGHje11flxxzlpdpbxlllpssskGGGGvvVcu33tknvjbk",
"bHCHHCDKDCGe2eppidppplHCZZKCxllGCCGVCZDZVu33ikpdik",
"GGbbgxHCDDChdfpiklbxnHKDFFFFKGGGclhcGCZZZbi3iiklbx",
"vckppgvJCZCbdflcvxvGvJCCZDDDCvvclkpgnvJZZcidknccvv",
"lgnkdivvCZCnppjvbkbvvvvvJCZDCkkkklidnGJZZvlilvckjv",
"pkkndpvJCZVcnbnjppkcvlghJZDDJifgklpycGJZVcnlnnyygn",
"lknvccvJVVvllljgfpnvckbvvCDZnpkklvccvGJJVnllnkiylv",
"lcvvcllvVvvvcjhlncvvlkzGCZZJnklnvGvcjcVGvcvjjhjcvv",
"3ihpga3rkyggyr33fkpgs2uzjjhyr33tyhyt3tyyggy-33thph",
"$%t3u,%=3**=%&3&>r-r1%=3==*%&-*%---3%*-*33#$33#-3t",
"3333u>-==3>,&tt323rt11---*,,tt323t-3*3-33%33u33-3i",
"t3*ut&r%=3=*<t333=tt=3%=-=2<awea3-t3*&*-3&3t333&3y",
"y&3-y3t&tr33:rtd11tutt,3r-2>rss233ut333333%3rt333y",
"u333yt33a333:rpi333uf33rr2-:epi-33ii-=t333:3yy333t",
"pu3tnu33dd3s3ippurtlir3dfss2sppyt3kpt3ttur3tpppt3h",
"kk3kjst3piddsifihrplfs3ifddaffiktikit3ifudsddflrun",
"khslgppykgdkklipkukkpppkkfpklppkiklpppkkuyplpplfkh",
"ppspkpkiikibnkpgidpgkkiigilnkpppdipkkiipilclpppfuk",
"ipkijknpdknlpdipgpilklkfknlkffpgkikllkfpnlkfipppfl",
"dkckpplclnvnlkkfpnlpgknlnvnlhkipbbppkbllvnklkiinlg",
"llvvlnnGvvGJVGvnbcvblnvvvJvJVGnjcvnbcvvJGGVVGcncvn",
"CJJCVCVCVVZVVVVVVVCCVVVJVZVVCCVVJVJVCVVVCCVZVVVGVV",
"DZDDZDZDZZDZZDDDZZDZDDDZZFZZDDZZZDDZDZZZFZZZDDZZDZ",
"FFSSSSSSSFSSFSSSSSSSSSFSFFSSSSSSFSSSSSSFFSSSFSSSSS",
"ASBBABAAASAABABAAAAABAAmSSAAAAAAAAAAAAAASANAAAAAAA",
"AAqBqNAAqBA0qNqAABBBqABNBBqqqqAABBqNAAqABqqBqBANAN",
"NNqNqqqN0NNMNN00qqqqqqqqqBqqqq0qqqqqqqqqqqNNqqNqqq",
"qqqq00qqqqqqqMqqqqqqqqqqqqqqqqqqqqqqqqq0qqqqqqqqqq",
"qqqqq00qqq0980qqqqqq090qq0070qqqqqq000qqq0890qqqqq",
"790qq07qq987489980qq980q097679879q0080q9976799800q",
"77007000886646987009009877747907008009077656987908",
"07709964697769096799974688649007799976679659007698",
"07796787800678908896778800878007797677800777909797",
"00094400778776690094490868766490095580968676590005",
"67094798079867776096798888877777995788989977766905",
"780444777qq06489896446770007490797455779q074797074",
"60947744478444469847744479444449957754577544458056"
};
