/* XPM */
static char *result[] = {
/* columns rows colors chars-per-pixel */
"50 50 91 1 ",
"  c #2280BF",
". c #2A87C5",
"X c #2E8AC7",
"o c #278ACC",
"O c #2D8DCC",
"+ c #3491CD",
"@ c #3A93CC",
"# c #298FD1",
"$ c #2B91D4",
"% c #2C94D9",
"& c #2F99DF",
"* c #3595D4",
"= c #3B99D6",
"- c #3097DB",
"; c #349BDE",
": c #3C9BDA",
"> c #2D99E0",
", c #329EE4",
"< c #309FE8",
"1 c #36A0E6",
"2 c #3BA2E5",
"3 c #32A3EC",
"4 c #39A5EC",
"5 c #3CA9EF",
"6 c #35A7F0",
"7 c #35AAF6",
"8 c #3CACF5",
"9 c #529CCB",
"0 c #429EDA",
"q c #5AA1CB",
"w c #4FA2D7",
"e c #45A3DF",
"r c #4FA5DB",
"t c #55A2D2",
"y c #5CA7D6",
"u c #52A7DC",
"i c #79B7D9",
"p c #42A6E6",
"a c #49A7E2",
"s c #42AAEC",
"d c #4CAEED",
"f c #55ACE2",
"g c #5CAEE1",
"h c #5EB2E7",
"j c #53B2EE",
"k c #42AFF4",
"l c #4AAFF0",
"z c #45B1F6",
"x c #4CB4F5",
"c c #53B6F5",
"v c #59B7F2",
"b c #56B8F6",
"n c #5BBAF6",
"m c #66B7EA",
"M c #67BAEC",
"N c #6ABDEE",
"B c #63BDF5",
"V c #6BBFF2",
"C c #7BC0E7",
"Z c #77C4EF",
"A c #7EC5EE",
"S c #66C0F7",
"D c #6CC2F6",
"F c #74C5F6",
"G c #7AC6F3",
"H c #7DC9F6",
"J c #73C5F8",
"K c #78C7F8",
"L c #7AC9F8",
"P c #84C3E5",
"I c #8BC6E6",
"U c #83C6EB",
"Y c #88C7E9",
"T c #86C9ED",
"R c #8BCAEB",
"E c #92CEED",
"W c #98CEE8",
"Q c #96D1EE",
"! c #9CD3EE",
"~ c #83CBF4",
"^ c #8BCEF2",
"/ c #90CFF1",
"( c #94D1F1",
") c #98D2F0",
"_ c #A1CEE2",
"` c #A3D5EC",
"' c #A9D7EA",
"] c #ADD8E9",
"[ c #B6DBE7",
"{ c #BDDDE5",
"} c #B1DAE8",
/* pixels */
"zD4n`T{{]D8c!Q!{[}BJc8n8zzD4v`~{{}D8c))`{[}nFc8n8z",
"xM+BBB{{{!nn(()]!^~]~z38nxM+BBB{{{!nn)!!})^/}~838S",
"DD88xG{{{Qn~^^~J`}`'~8o3xDD88xG{{{Qn~^')F!}!'~8o38",
"1n8xSf{{]`~)[[`bTRxSKz7xD4n8xVf{{]!~)[])nU^xDKz7xJ",
"o6cLCq{!~)()']{FDDkDF2lBDO6cHCq{)~))Q'/]ZSJ8DL2xSK",
"vzDJ!~R^^!(![{{TJz7DB*NnTBzJJ!GE^^`/)[{{~Fz7DS@Sn^",
"QxDzKDc!L(}!'{}FDp%j25~~}QxDzKDc)L)}!]}'DDp%x,5A~[",
"RBDzKJnJDQ]]{}!~^yO3$dE~]QnDzLJnJS(]]{)^^RyX1$dE^[",
")SJnJnnnbA{{}!!!}(n;6bK)!!SJnKnnnbU{{}!!!}/n;6cK/!",
"LARud;njeN}!GG^G(~H:dn^!!GARud;bjeS[!GH^G/^K:ln/)!",
"!`_;3:~Pen(^GDLxSKQSnK}][`!_;30~Pev/^GnDcBHQDbF}]{",
"Q~^j%x]]Bn`)FbbnJnTSnK}{{Q~^j%x']nB!!ZbbbJn^SnK[{{",
"`!~Y;zG^BN]^bxzzDx~DK!{{{'!~Y;zZ/SS}^bz8zDz^JK){{{",
"{{]'b7zLhuFBD~B7z8!^H}))[{{]'n7zLhwZSDBx7z8W^H})){",
"{{{^cSDDs1bbG[Nc*<G~!)`'!{{[~bBSD82bbF/cc=<FH!)`'(",
"{{{!DDbS7znzxZnUg6R]}^])~}{{`DDbD7zn8xDcAf6E][^}(L",
"{[^Q!m#2#cu%7ncDcb~}!`(H~}[^)!MO2#xf$8bcDcn~})`/LL",
"[Q]'^D165^Rd7bwiHcQ{}[HcL}Q]'^V36s~Rd7bwiAcQ{[[~bJ",
"n!Q[}'A7cH~n7bdPQD'{{[T8zn!Q[}'A7xHHn756YQD'{{[H8z",
"zHHQ}^GzDHHb%;8D!^'{Q^G@3zG~Q}^ZxJHHn% &D!^]{Q^Z+6",
"DKH[{}!nbHKr$3cQ)~'Q~`'NzSJ~}{]!nnHKu$<cQQ^]Q~`]Z5",
"zzc{{]GbKHn6lw;F~!^`'Q]H8zzv[{]GbFHn6lbzDH!^!'/]G8",
"FDc[]~^Q/T;%nvvH`)nFHH~JkSSj[]~^!^Y,%SFDH`)bFHH~F5",
"^Wc'^^`~QY3l^^J!{[HJcSLD@U!c'^^`~QA3d^ZS!{{GJbSKDX",
"`WxA[`^Q`h$8SSD'{{vznzDzsQ!d~}'^(`g$8S~H'{{vzBxDz3",
"xZ4v!^[[]S5x!Q!{{}MDc8S88xD4v`~[{}D5c()!{{[BDb8n88",
"zS@SDS{{{!nnQQQ}!^~]~z38nxN@SSN{{{)bn))!}Q^~]Hz38S",
"DD55x~{{{(n~^^~J`]`]~8o6xSD88cG{{{QnH^')F!}`]~8o3z",
"2n8cSf{{]`~)[}!vT^xDHz7xSsn8xBf{[}!~![]!nU/xDK88zJ",
"X,z~C9}}~()!!]{NbKbDD87DZ@&z~C9[]^Q!!!^'DvFcFD88JK",
"C+cW`FA{)~``!{{NznDJz7zK~C+j!!KG{)~!!!{{SznDJz8zJ^",
"!xDzKSc!L)}!]{[SDs>v25G~[!xDzKDv)H)[!'}'ZSs>v26H~}",
"^nDzKJbKDQ]'{}!~^t.<#dQ^}EnDxFJbFD(]'{)^~^t.<#dQ^[",
"!SFnJSnnbT{{[!!)}/n,6cL(!!SJnJnSnb~{{[!!)}/n,6nF(`",
"KZUgl;bjaS[`A~^~!~L=dc/!)HZUgl;cjrS[`H~^~!~L=dc/!)",
"Q`_*3:~C0n^^FSHcSL(SnF}![!`_*3:~Cev^^FbDcSK/SnF}'{",
"Q~^j%c''Sv)!GbbbJB^SbK[{{!~/x-x']SvW!AbnbDB/SbF[{{",
"!)~Y%zA/SS[/nxzxDxADK!{{{`)~P-zUQnS[^nzzxDxTSF){{{",
"{{]'b7zHhrHSDAn8x8!^L}!![{{]'b7zKhuGSDnz7z8!/H}!){",
"{{[^bnSJs2bbF}Zx:<G~))``){{[^bnSJ52bbH/xx:<H~)!!`)",
"{{{!DDnS7zn8cAnGf3T`[^])^[{{!SDnS7znzxFcGf6T`[^})H",
"{[QQ!S+2#cf%7ncZcb^})`(H~[[(Q!M+2$xf%7bcDcb~[!!(HK",
")}HHEWro<BPdxJxBcS![[}SDb^}HH(Wwo<BIdxb8ScS!{}[SSc",
"b'^'}{Y<zF^n8ScGHK]{{{Zz8b`^]}{R<zL~n887AAF]{{{Fx8",
"8HHQ]/FzDHLn%;8S`^]{Q^Z+6zHHQ}^FzDLLn% &D`^]{)/ZO3",
"DL~}{}!BnLLr$6c!Q~'QH`'M8SK~}{]!BnLLu#<jQ)A](H``Z8",
"xDn{{{]L~!B4mSn!}}SQ^~~KzxDn[{{]F~!B4MSn!{]S!~~^F8",
"FFc[]^(!(R;$SnB^}!lFKHHFkSFv[]^Q!EE,$SGF~]!xFLLLJ5",
"^!v'//!^(U3xR^F!{{ZJcDKD@A!v'R/!^(U<xRZS!{{GFcDLDX",
"'!xA]`^/`g$8SSS'{{BznxSxsW!x~}`^(`g%8DHL'{{nxnzDx3"
};
