/* XPM */
static char *result[] = {
/* columns rows colors chars-per-pixel */
"50 50 199 2 ",
"   c #794D36",
".  c #7F4D46",
"X  c #754C4D",
"o  c #6F514E",
"O  c #6D4A50",
"+  c #764E57",
"@  c #684C69",
"#  c #704B64",
"$  c #785C65",
"%  c #634E76",
"&  c #79657A",
"*  c #97521C",
"=  c #A86619",
"-  c #B0751A",
";  c #824A2D",
":  c #8B522A",
">  c #945726",
",  c #9C5E26",
"<  c #8D5636",
"1  c #85513B",
"2  c #A45F23",
"3  c #9E6822",
"4  c #986438",
"5  c #A66625",
"6  c #B57A26",
"7  c #B2792C",
"8  c #C37E26",
"9  c #814E42",
"0  c #855745",
"q  c #9B7354",
"w  c #A77648",
"e  c #A77D53",
"r  c #947A6B",
"t  c #8D7F7A",
"y  c #BA8225",
"u  c #BE822B",
"i  c #C08719",
"p  c #C58928",
"a  c #CA9629",
"s  c #D49B2C",
"d  c #C48D36",
"f  c #C18A39",
"g  c #D59C34",
"h  c #D7A92E",
"j  c #D8A635",
"k  c #D3A23A",
"l  c #DEB334",
"z  c #DEB538",
"x  c #E2A934",
"c  c #E7B939",
"v  c #E4BA3B",
"b  c #E9CC33",
"n  c #E5C33D",
"m  c #EAC53E",
"M  c #E5C83A",
"N  c #EDCE3D",
"B  c #F0CE3F",
"V  c #ECD835",
"C  c #EDD63E",
"Z  c #EDDD3B",
"A  c #F1D53E",
"S  c #F0DA3B",
"D  c #ECEC36",
"F  c #EDE43D",
"G  c #ECEA3C",
"H  c #F0E73C",
"J  c #AA874D",
"K  c #BFB758",
"L  c #998260",
"P  c #A38871",
"I  c #BEB168",
"U  c #A7A37E",
"Y  c #BABF7E",
"T  c #CF9640",
"R  c #C89855",
"E  c #D8A741",
"W  c #DEB34E",
"Q  c #D5B653",
"!  c #E7B941",
"~  c #B3C677",
"^  c #DEC14B",
"/  c #DEC85A",
"(  c #CFD95F",
")  c #D9DC56",
"_  c #D6DB5A",
"`  c #ECC242",
"'  c #EECC44",
"]  c #E7C749",
"[  c #F1CC41",
"{  c #E7D346",
"}  c #EDD441",
"|  c #EDDB42",
" . c #ECDD4A",
".. c #F2D945",
"X. c #EBD456",
"o. c #DDE352",
"O. c #ECE343",
"+. c #EBEA41",
"@. c #E6E44C",
"#. c #ECE94C",
"$. c #F2E444",
"%. c #F0E842",
"&. c #F0E34D",
"*. c #ECE454",
"=. c #ECE75D",
"-. c #EBEA5B",
";. c #F1E85E",
":. c #C8CC79",
">. c #CED674",
",. c #C8D178",
"<. c #EEDF65",
"1. c #F1D660",
"2. c #D6E074",
"3. c #EBE768",
"4. c #EBED7A",
"5. c #EDF07A",
"6. c #3F3CAC",
"7. c #3C3CB4",
"8. c #3438BD",
"9. c #3A3BBB",
"0. c #5D4E82",
"q. c #5C548B",
"w. c #4D4298",
"e. c #544592",
"r. c #665783",
"t. c #75728A",
"y. c #4743A2",
"u. c #4443AA",
"i. c #4A44AA",
"p. c #5A56A0",
"a. c #5E5DAE",
"s. c #4349BA",
"d. c #5562BC",
"f. c #5865BB",
"g. c #6B79AD",
"h. c #7478A9",
"j. c #6675B2",
"k. c #707DB6",
"l. c #1F29D6",
"z. c #1D27DA",
"x. c #1E28D9",
"c. c #272DCE",
"v. c #282FCE",
"b. c #2D34C7",
"n. c #2B32CA",
"m. c #3135C4",
"M. c #363AC1",
"N. c #3036C9",
"B. c #333ECD",
"V. c #232CD4",
"C. c #202BD8",
"Z. c #2631D5",
"A. c #2933D4",
"S. c #2D3AD1",
"D. c #3B48CC",
"F. c #3642D1",
"G. c #3A47D2",
"H. c #3A4AD0",
"J. c #424FCD",
"K. c #4651C5",
"L. c #4B59CA",
"P. c #515ECA",
"I. c #5565C7",
"U. c #7887B9",
"Y. c #908082",
"T. c #8B9697",
"R. c #989B97",
"E. c #9CAC9C",
"W. c #B6B786",
"Q. c #B0B99F",
"!. c #868FA4",
"~. c #8E9BA6",
"^. c #8490B4",
"/. c #A6AEA6",
"(. c #ABBAB1",
"). c #B8C382",
"_. c #B1C094",
"`. c #BAC4A9",
"'. c #BAC4BC",
"]. c #CAD28B",
"[. c #C8CD93",
"{. c #D7DD9B",
"}. c #D6E09B",
"|. c #E8EC87",
" X c #EEEE8E",
".X c #F3EE88",
"XX c #EEF185",
"oX c #ECED9B",
"OX c #F3EF9D",
"+X c #EBF09E",
"@X c #C2C7AD",
"#X c #C5D0A2",
"$X c #D6DFA9",
"%X c #E9ECA5",
"&X c #F2EDAB",
"*X c #F1F1A9",
"=X c #E9EAB5",
"-X c #ECF1BB",
";X c #F0EEC0",
/* pixels */
"z.z.z.z.z.z.z.z.z.z.z.z.z.z.z.z.z.z.z.z.z.z.z.z.z.z.z.z.z.z.z.z.z.z.z.z.z.z.z.z.z.z.z.z.z.z.z.z.z.z.",
"z.z.z.z.z.z.z.z.z.z.z.z.z.z.z.z.z.z.z.z.z.z.z.z.z.z.z.z.z.z.z.z.z.z.z.z.z.z.z.z.z.z.z.z.z.z.z.z.z.z.",
"z.z.z.z.z.z.z.z.z.z.z.z.z.z.z.z.z.z.z.z.z.z.z.z.z.z.z.z.z.z.z.z.z.z.z.z.z.z.z.z.z.z.z.z.z.z.z.z.z.z.",
"z.z.z.z.z.z.z.z.z.z.z.z.z.z.z.z.z.z.z.z.z.z.z.z.z.z.z.z.z.z.z.z.z.z.z.z.z.z.z.z.z.z.z.z.z.z.z.z.z.z.",
"z.z.z.z.z.z.z.z.z.z.z.z.z.z.z.z.z.z.z.z.z.z.z.z.z.z.z.z.z.z.z.z.z.z.z.z.z.z.z.z.z.z.z.z.z.z.z.z.z.z.",
"z.z.z.z.z.z.z.z.z.z.z.z.z.z.z.z.z.z.z.z.z.z.z.z.z.z.z.z.z.z.z.z.z.z.z.z.z.z.z.z.z.z.z.z.z.z.z.z.z.z.",
"z.z.z.z.z.z.z.z.z.z.z.z.z.z.z.z.z.z.z.z.z.z.z.z.z.z.z.z.z.z.z.z.z.z.z.z.z.z.z.z.z.z.z.z.z.z.z.z.z.z.",
"z.z.z.z.z.z.z.z.z.z.z.z.z.z.z.z.z.z.z.z.z.z.z.z.z.z.z.z.z.z.z.z.z.z.z.z.z.z.z.z.z.z.z.z.z.z.z.z.z.z.",
"z.z.z.z.z.z.z.z.z.z.z.z.z.z.z.z.z.z.z.z.z.z.z.z.z.z.z.z.z.z.z.z.z.z.z.z.z.z.z.z.z.z.z.z.z.z.z.z.z.z.",
"z.z.z.z.z.z.z.z.z.z.z.z.z.z.z.z.z.z.z.z.V.c.M.i.i.u.i.N.V.C.z.z.z.z.z.z.z.z.z.z.z.z.z.x.z.z.z.z.z.z.",
"z.z.z.z.z.z.z.z.z.z.z.z.z.z.x.x.z.C.c.9.e.+ 9 ; ; ; ; . # w.7.V.x.x.z.z.z.z.z.z.z.z.x.x.z.z.z.z.z.z.",
"z.z.z.z.z.z.z.z.z.z.z.z.z.z.x.x.V.9.@ < 2 2 8 8 8 y y u 2 , 1 % 8.l.z.z.z.z.z.z.z.z.z.z.z.z.z.z.z.z.",
"z.z.z.z.z.z.z.z.z.z.z.z.z.z.z.V.y.0 7 g c ! { 1.1.X.{ [ c c p > O 6.z.z.z.z.z.z.z.z.z.z.z.z.z.z.z.z.",
"z.z.z.z.z.z.z.z.z.z.z.z.z.z.z.i.e g m C S  .3. X&X&X3.$. . .[ g * X 7.z.z.z.z.z.z.z.z.z.z.z.z.z.z.z.",
"z.z.z.z.z.z.z.z.z.z.z.z.z.z.b.L ` [ V F F ..1.:.W.W.W.].oX4.*. .j * @ n.z.z.z.z.z.z.z.z.z.z.z.z.z.z.",
"z.z.z.z.z.z.z.z.z.z.z.z.z.V.t.^ | V F Z ' I h.L.B.B.D.I.(.%XOX3.} k : e.C.z.z.z.z.z.z.z.z.z.z.z.z.z.",
"z.z.z.z.z.z.z.z.z.z.z.z.l.s.K | Z F Z W t s.x.z.x.x.x.x.F.U.$X*X3.N y X 8.z.z.z.z.z.z.z.z.z.z.z.z.z.",
"z.z.z.z.z.z.z.z.z.z.z.x.A.T.| F Z Z ^ P n.x.z.z.z.z.z.z.x.A.U.+X.X .c > e.C.z.z.z.z.z.z.z.z.z.z.z.z.",
"z.z.z.z.z.z.z.z.z.z.x.x.K.>.H F O.M J u.z.z.z.z.z.z.z.z.x.x.H._.XX=.{ - X m.z.z.z.z.z.z.z.z.z.z.z.z.",
"z.z.z.z.z.z.z.z.z.z.l.l.g.@.D F } k % l.z.z.z.z.z.z.z.z.x.x.x.j.{.4. .g : u.z.z.z.z.z.z.z.z.z.z.z.z.",
"z.z.z.z.z.z.z.z.z.z.z.Z.E.+.D F ` w 7.x.x.x.z.z.z.z.z.z.x.z.x.F.Q. X<.` 5 0.z.z.z.z.z.z.z.z.z.z.z.z.",
"z.z.z.z.z.z.z.z.z.z.z.F.Y +.+.} k $ v.x.z.x.z.z.z.z.z.z.z.z.z.z.T.3.*.b 6 # c.z.z.z.z.z.z.z.z.z.z.z.",
"z.z.z.z.z.z.z.z.z.x.z.d._ G H } u r.Z.z.z.z.z.z.z.z.z.z.z.z.z.z.j.2.*.S p 9 9.z.z.z.z.z.z.z.z.z.z.z.",
"z.z.z.z.z.z.z.z.z.x.x.d._ F H A d e.z.z.z.z.z.z.z.z.z.z.z.z.z.z.D.[.#...g < 9.l.l.z.z.z.z.z.z.z.z.z.",
"z.z.z.z.z.z.z.z.z.x.x.f._ D H S u e.z.z.z.z.z.z.z.z.z.z.z.z.z.z.H.,.F  .l 4 9.z.z.z.z.z.z.z.z.z.z.z.",
"z.z.z.z.z.z.z.z.z.x.x.f.) +.+.| u e.z.z.z.z.z.z.z.z.z.z.z.z.z.z.H.,.+.| ! w 9.z.z.z.z.z.z.z.z.z.z.z.",
"z.z.z.z.z.z.z.z.z.z.x.d._ G G Z T w.x.x.z.z.z.z.z.z.z.z.z.z.z.x.G.:.D z x w M.z.z.z.z.z.z.z.z.z.z.z.",
"z.z.z.z.z.z.z.z.z.x.x.d.( G +.Z u % V.z.z.z.z.z.z.z.z.z.z.z.z.z.g.) F h g q M.z.z.z.z.z.z.z.z.z.z.z.",
"z.z.z.z.z.z.z.z.z.z.z.F.).+.%.$.^ $ m.l.z.z.z.z.z.z.z.z.z.z.z.x.R.+.C s E & V.z.z.z.z.z.z.z.z.z.z.z.",
"z.z.z.z.z.z.z.z.z.z.z.Z.E.-.;.+.^ 4 6.C.z.z.z.z.z.z.z.z.z.z.z.F.W.O.n s T q.z.z.z.z.z.z.z.z.z.z.z.z.",
"z.z.z.z.z.z.z.z.z.z.x.x.g.3.5.#.O.y % v.z.z.z.z.z.z.x.x.x.l.x.j.o.F h x R 7.z.z.z.z.z.z.z.z.z.z.z.z.",
"z.z.z.z.z.z.z.z.z.z.z.x.J.,.4.3.+.u : w.x.z.z.z.z.z.x.x.x.l.D.~ $.n s ! r b.z.z.z.z.z.z.z.z.z.z.z.z.",
"z.z.z.z.z.z.z.z.z.z.z.x.Z.!.|.|.#.n = o m.z.x.x.x.z.z.z.C.A.T.*.` a h W p.l.z.z.z.z.z.z.z.z.z.z.z.z.",
"z.z.z.z.z.z.z.z.z.z.z.z.x.K.[.+X3.F v 3 O u.V.l.z.z.z.z.J.R./ j i h ' P m.z.z.z.z.z.z.z.z.z.z.z.z.z.",
"z.z.z.z.z.z.z.z.z.z.z.z.z.Z.^.=X*X*.$.v 3   0.u.m.b.b.a.P f 6 - h N Q p.C.z.z.z.z.z.z.z.z.z.z.z.z.z.",
"z.z.z.z.z.z.z.z.z.z.z.z.z.z.S.(.-X|.#.$.! y >   1 9   4 5 = p v } ] Y.v.z.z.z.z.z.z.z.z.z.z.z.z.z.z.",
"z.z.z.z.z.z.z.z.z.z.z.z.z.z.z.P.'.;X+X3.*.| l p = = = 8 j c B S @.U 9.z.z.z.z.z.z.z.z.z.z.z.z.z.z.z.",
"z.z.z.z.z.z.z.z.z.z.z.z.z.z.z.z.P.`.=X&XoX3.=.X.m b m B Z  .&.3.W.K.z.z.z.z.z.z.z.z.z.z.z.z.z.z.z.z.",
"z.z.z.z.z.z.z.z.z.z.z.z.z.z.z.z.C.J.~.#X=X-X-X.X3.;.;.;.=.2.).!.D.z.z.z.z.z.z.z.z.z.z.z.z.z.z.z.z.z.",
"z.z.z.z.z.z.z.z.z.z.z.z.z.z.z.z.z.z.x.J.k./.@X$X}.{.{.`./.k.J.z.z.z.z.z.z.z.z.z.z.z.z.z.z.z.z.z.z.z.",
"z.z.z.z.z.z.z.z.z.z.z.z.z.z.z.z.z.z.z.z.C.Z.G.P.P.P.P.G.Z.C.z.z.z.z.z.z.z.z.z.z.z.z.z.z.z.z.z.z.z.z.",
"z.z.z.z.z.z.z.z.z.z.z.z.z.z.z.z.z.z.z.z.z.z.z.z.z.z.z.z.z.z.z.z.z.z.z.z.z.z.z.z.z.z.z.z.z.z.z.z.z.z.",
"z.z.z.z.z.z.z.z.z.z.z.z.z.z.z.z.z.z.z.z.z.z.z.z.z.z.z.z.z.z.z.z.z.z.z.z.z.z.z.z.z.z.z.z.z.z.z.z.z.z.",
"z.z.z.z.z.z.z.z.z.z.z.z.z.z.z.z.z.z.z.z.z.z.z.z.z.z.z.z.z.z.z.z.z.z.z.z.z.z.z.z.z.z.z.z.z.z.z.z.z.z.",
"z.z.z.z.z.z.z.z.z.z.z.z.z.z.z.z.z.z.z.z.z.z.z.z.z.z.z.z.z.z.z.z.z.z.z.z.z.z.z.z.z.z.z.z.z.z.z.z.z.z.",
"z.z.z.z.z.z.z.z.z.z.z.z.z.z.z.z.z.z.z.z.z.z.z.z.z.z.z.z.z.z.z.z.z.z.z.z.z.z.z.z.z.z.z.z.z.z.z.z.z.z.",
"z.z.z.z.z.z.z.z.z.z.z.z.z.z.z.z.z.z.z.z.z.z.z.z.z.z.z.z.z.z.z.z.z.z.z.z.z.z.z.z.z.z.z.z.z.z.z.z.z.z.",
"z.z.z.z.z.z.z.z.z.z.z.z.z.z.z.z.z.z.z.z.z.z.z.z.z.z.z.z.z.z.z.z.z.z.z.z.z.z.z.z.z.z.z.z.z.z.z.z.z.z.",
"z.z.z.z.z.z.z.z.z.z.z.z.z.z.z.z.z.z.z.z.z.z.z.z.z.z.z.z.z.z.z.z.z.z.z.z.z.z.z.z.z.z.z.z.z.z.z.z.z.z.",
"z.z.z.z.z.z.z.z.z.z.z.z.z.z.z.z.z.z.z.z.z.z.z.z.z.z.z.z.z.z.z.z.z.z.z.z.z.z.z.z.z.z.z.z.z.z.z.z.z.z."
};
