/* XPM */
static char *result[] = {
/* columns rows colors chars-per-pixel */
"50 50 213 2 ",
"   c #7D5E4F",
".  c #98531C",
"X  c #A96719",
"o  c #B0751A",
"O  c #89542D",
"+  c #975B27",
"@  c #8B5937",
"#  c #A05E25",
"$  c #9D6426",
"%  c #956139",
"&  c #A56723",
"*  c #B77B26",
"=  c #A57432",
"-  c #C27F24",
";  c #915D42",
":  c #916347",
">  c #866752",
",  c #956E51",
"<  c #8F7567",
"1  c #867F7C",
"2  c #BC8427",
"3  c #BA8034",
"4  c #C1881A",
"5  c #C58529",
"6  c #D39B2B",
"7  c #C59130",
"8  c #C59336",
"9  c #D69D34",
"0  c #D7AA2E",
"q  c #D7A537",
"w  c #DEB736",
"e  c #E3AA34",
"r  c #E4B738",
"t  c #E5C33D",
"y  c #EAC83B",
"u  c #F0CE3F",
"i  c #ECD538",
"p  c #EDDD3B",
"a  c #F0D53E",
"s  c #F1DA3C",
"d  c #EDED36",
"f  c #ECE43C",
"g  c #EDEB3D",
"h  c #F0E63D",
"j  c #B3884A",
"k  c #B39053",
"l  c #96846A",
"z  c #AD966B",
"x  c #B9AC78",
"c  c #D29A41",
"v  c #D6A748",
"b  c #E5B846",
"n  c #C2AA73",
"m  c #CBC75A",
"M  c #EAC846",
"N  c #F1C842",
"B  c #EDD441",
"V  c #EDDB43",
"C  c #EAD748",
"Z  c #F1DA45",
"A  c #E2C857",
"S  c #EBD758",
"D  c #DCE65A",
"F  c #EDE244",
"G  c #ECEA42",
"H  c #EAE44B",
"J  c #ECEA4C",
"K  c #F2E447",
"L  c #F1E943",
"P  c #EAE758",
"I  c #F2E95A",
"U  c #D4D070",
"Y  c #DBDD79",
"T  c #F1DB63",
"R  c #D1E56E",
"E  c #D4E47C",
"W  c #EBE868",
"Q  c #E8EC76",
"!  c #F1EF70",
"~  c #EEF17D",
"^  c #3A9BEF",
"/  c #419EEF",
"(  c #45A1EF",
")  c #49A2EF",
"_  c #46A1F0",
"`  c #4CA4F0",
"'  c #50A7F0",
"]  c #54A9F1",
"[  c #5BADF1",
"{  c #65B1EF",
"}  c #6BB4EE",
"|  c #73B7EA",
" . c #75B9EE",
".. c #7CBDEF",
"X. c #60AFF2",
"o. c #64B2F2",
"O. c #6CB6F3",
"+. c #6FB8F4",
"@. c #70B7F1",
"#. c #74BAF2",
"$. c #7BBEF1",
"%. c #7EC0F4",
"&. c #928B82",
"*. c #86949D",
"=. c #969998",
"-. c #A89E8E",
";. c #A2B092",
":. c #8D99A2",
">. c #8EA6B9",
",. c #99ACB8",
"<. c #ABAFAA",
"1. c #ACB4AA",
"2. c #A9B4B3",
"3. c #B7BFBA",
"4. c #F3BE9C",
"5. c #BCD09E",
"6. c #B4CDAE",
"7. c #B8D8BA",
"8. c #CDDE88",
"9. c #D6DD84",
"0. c #C6D99B",
"q. c #DDDB9E",
"w. c #E2DC8E",
"e. c #F3C09E",
"r. c #DDE187",
"t. c #CBE19B",
"y. c #DAE496",
"u. c #E8EB88",
"i. c #EFF08E",
"p. c #F2F18B",
"a. c #E7EA9B",
"s. c #F3F09D",
"d. c #C1DAA7",
"f. c #CDD1B6",
"g. c #D8D8B7",
"h. c #F4C4A4",
"j. c #F4C7A8",
"k. c #F5CAAC",
"l. c #E1D8AA",
"z. c #F6CEB3",
"x. c #E8D8B9",
"c. c #F6D0B6",
"v. c #F7D4BB",
"b. c #F8D6BE",
"n. c #D7E3A6",
"m. c #DAE4BB",
"M. c #E7E8A4",
"N. c #F2EDA8",
"B. c #F3F1A9",
"V. c #E8ECB5",
"C. c #EEF3BA",
"Z. c #84ABCD",
"A. c #97B8C4",
"S. c #87B1D1",
"D. c #95BBD4",
"F. c #A7BBC6",
"G. c #8ABFE4",
"H. c #81BFEE",
"J. c #80BFF0",
"K. c #97CAC9",
"L. c #9BC5DB",
"P. c #B2CCCA",
"I. c #A4CCD9",
"U. c #B8CDD1",
"Y. c #A5D2DA",
"T. c #B8D7DA",
"R. c #BBD6DE",
"E. c #86C2E4",
"W. c #83C1EE",
"Q. c #8BC5ED",
"!. c #93C6E4",
"~. c #9ACBE7",
"^. c #92C7EC",
"/. c #94CAEE",
"(. c #9CCDED",
"). c #83C2F2",
"_. c #8CC6F1",
"`. c #8FC8F1",
"'. c #91C9F0",
"]. c #A2CEE7",
"[. c #A1CFEB",
"{. c #A5D0E4",
"}. c #ACD4E5",
"|. c #A4D1EB",
" X c #ACD4E9",
".X c #B3D5E6",
"XX c #B9D7E5",
"oX c #B5D9E6",
"OX c #BCDBE5",
"+X c #B1D6E8",
"@X c #B3D8E8",
"#X c #C3CDCB",
"$X c #C4D6C7",
"%X c #DCDDC7",
"&X c #C6D7D8",
"*X c #EEDECC",
"=X c #F5D7C0",
"-X c #F4D9C4",
";X c #F0DDC9",
":X c #DBE2C7",
">X c #CEE0DF",
",X c #D6E2D4",
"<X c #D3E1DE",
"1X c #DCE3DC",
"2X c #E8E3CD",
"3X c #F3F0C0",
"4X c #EAE3D4",
"5X c #E3E5DA",
"6X c #E8E6D9",
"7X c #C4DEE3",
"8X c #CBDFE1",
"9X c #CDE0E0",
"0X c #D0E1E0",
/* pixels */
"^ ^ ^ ^ ^ ^ ^ ^ ^ ^ ^ ^ ^ ^ ^ ^ ^ ^ ^ ^ ^ ^ ^ ^ ^ ^ ^ ^ ^ ^ ^ ^ ^ ^ ^ ^ ^ ^ ^ ^ ^ ^ ^ ^ ^ ^ ^ ^ ^ ^ ",
"^ ^ ^ ^ ^ ^ ^ ^ ^ ^ ^ ^ ^ ^ ^ ^ ^ ^ ^ ^ ^ ^ ^ ^ ^ ^ ^ ^ ^ ^ ^ ^ ^ ^ ^ ^ ^ ^ ^ ^ ^ ^ ^ ^ ^ ^ ^ ^ ^ ^ ",
"_ ^ _ _ ^ ( ^ _ _ ^ / / _ _ / / / _ / ^ / / _ _ ^ / / _ _ ^ / / ( _ / ( / ( ( ( / ( ( _ / ( / ( _ ^ ",
"o._ o.[ ) [ _ O.] ' ] ] O.o.' ] ` X.X.` ] ` o.] ' ] ] o.o.] ' ] ] X.' ' ' X.] ' ` ] X.O.' ' ` [ X._ ",
"` ` _ ` ( ) ^ ` ( ` _ _ ' ` ( _ _ _ _ _ _ / _ _ ` _ ( ` ` _ _ ` _ _ _ _ ( _ _ ` _ _ ' ` _ _ ` ( _ / ",
"o.[ ` +.] [ _ o.[ +.o.[ O.+.] [ [ ] o.[ ] ' [ [ O.O.[ O.+.[ ] X.] X.X.] ' ] [ O.O.X.o.#.[ ] X.' o.[ ",
"' _ [ #.o.' ' [ X.o.$.o.] O.X.' _ ] #.o.] ] ] X.o.#.O.] o.X._ ` ] +.O.] ' ] [ X.#.O.] O.o.[ _ ' +.+.",
"^...'.#.[ +.#.X.[ O.#.$.)./.(.'.W.`.$.o.O.#.o.[ O.#.J.).`.H.W.W.J.J.X.O.+.O.X.O.@.#.J.'././.J.Q.J.O.",
">X9X8X|.G.O.#.o.#.#.H.Q.'.XX7X8X0X7X X(.J.#.O.O.O.J.(.[.XX0X0X0X8X.XG.#.+.O.#.@.H.J.`. X7X8X0X0X X X",
"5X5X6X1X8X X'.$.J. XXX|.'.|.XX0X5X5X1X5XR.L.D.>.,.2.2.U.&X&X1X5X5X5X0XXX/.J.J.|.oX+X`.(.+X8X1X6X1X1X",
"XX9X9X>X<X0X7X).+._.[.`.).`.'.].8X5X*Xf.-.< : O O O O : < :.F.#X0X8X0X1X7X/.#.J.[.'.).`._./.7X0X6X4X",
"). X|.|.XX.X7X+X'.).)._.).)./.|.&X3.< % # X - - - 2 2 * & + ; &.A.]..XXX7X.X(.J._._.).).`.[.XX1X5X5X",
").[.[./..X'.|.+XoX_.J._.J.'.|.R.<., - 9 r M M S T S C N r r 7 +   A.]./.(. XoX^.J.).$.`.(.@X7X0X0X8X",
"_.+X8X7X8XXXXXXX8X}.G.#.#.`.|.2., b y u s Z W i.N.N.W J Z Z N 9 . > 2.7XXXXX8X.X/.#.#._.|.+X7X+X+X|.",
" X0X<X8X8X<X0X5X5X<X7XH.$._.G.z N s a p f Z S Y w.r.u.r.s.~ I C 9 . < &X1X1X0X5X8X/.$.).(.(.(.`./.|.",
"7X7X X+X[.XX<X0X5X5X<X|.`.G.;.M a i h s B U d.%X*X*X2X:Xn.M.s.W B 9 + =.&X0X5X5X1X+X'._.(.'.(. X XXX",
"OX@X X(.(.|.OXOX<X1X<X}.`.K.m F p f s A x U.,X<X1X5X5X5X,Xf.V.B.W y 2 > F.7X0X1X1XXX/._.|.+XoXOXOXOX",
"@X(.@X|.`.'.OX9X0X1X1X.X].5.V g p s r x U.OXOXOX>X<X1X5X9X{.7.a.p.J r $ =.R.9X5X5XoX[.(. XOXoX|. XOX",
"(.(.|.@X`.(.OX9X<X1X>XoXU.R g f f y k 2.OX}.(. X9X<X5X5X7X/.~.t.p.I y * > U.&X0X0XoXoX XoXoX(.(.(.@X",
"@X|.@XOX@X@XOX9X0X8XOX}.7.H d f B q -.T.oX|.+XXX7X<X6X1XoX/.(.7.y.~ C 9 + <.0X0X9X+X X X X X'.(. XOX",
" XoXOXOXoX X+XXX9X7XOXOXt.G d p t j 3.XX X|.XX7X<X1X<X>X@X|. XoXt.p.T t = &.8X7X7XoXOX+X X|.}.oXOX7X",
"%./.|.~.|.).#.Q.{.~.].Y.8.G G a q l L.].).$.Q..XT.}.{.K._.%.%.E.t.I I i * < D.!.|.(.~.W.%.%.Q.~.(.|.",
"[ } _. .^.#.X. .$.} #.K.D g h B 8 &.| ).$.{  .W. . .} [ } %.%.{ K.E J s 7 ; Z.|  .@.{ { %.@.o.W. ._.",
"%.%.W.W.Q.O.....$.$.o.K.D g h a 8 *.$.Q.#.#. ...%.O.%.%...%.%.%.E.y.J Z 9 ; Z...#.+.+.W.E.W.$.%.%./.",
"_.%.} ^.Q.+.W.X. .%. .K.D d g s 8 *.Q.Q.%.| { %.%.|  . .W.%.%.W...R h Z r = Z.| %.| +.Q...%.%. .W.(.",
"/.} %.E.`.).Q.O._.W.%.K.D g g V 3 *.W.^.%.%.%.%.%.%.%.} %._.Q.%...R g Z M j Z.H.%.%.{ W.W.^.%.#.W./.",
"`.| W.%./.^.%.%.Q.W.%.K.D G g p q :.%.~.!.%.%.%.W.%.%.{ %.(.^.%.%.E f w e , S.H.%.| { %./.(.%.W. .^.",
"(./.%.^.+X!.%.%._.^._.K.D g G f 2 1 E.Y.~.%.%._.^.Q.W.%.^.(.~.~.6.P f 0 9 k D.Q.^.^.%.`.(.(.(.W.W.|.",
"|.{.%.|.}._._.%.(.'.`.^.8.G L K m < L.{./._.%.(./._.`.).`.`./.{.0.F p 0 v z !.'._.`.)./.'.'.+XW./.+X",
"|. X). X[.(.(.~.|.|.`.{.d.P I G t = ,.].(.(.(.|.|.`.|.|. X(.(.Y.8.L t 6 c =.|.[./.(.[. X/.(. X'.|.|.",
"(.(._.(.|.[.[././.|./.+X7.W ~ J i 3 l !.(.|././.(./. X@X|./.[.7.D f 0 e n >.(.(.(.|.oX|.(.(.(.`./.|.",
"'.|.[./. X|.+X(.`.{.+X+XY.E Q W G 6 O :. X@X(./.(.@X X|./._.Y.E g t 6 b x K./.(. X@X|.'./.(.(.|./.|.",
"_.|.oX|.(.[.|.@X|.@XOXoX+Xd.i.u.J t X > K.|.+X}.+XOXoX|..XI.5.P M 7 w b <.}.|. XoXoX X X|.'.'.@X X|.",
" X XOXOX X@X@X9XOXOXOX9X9X$Xy.s.W K w $ > ,.R.R.9XOX9X9X&X0.A q 4 0 u x P.XX7X7X7X7X9X9X9X+X+XoXOX+X",
"<X9X9X0X9X<X9X0X9X0X1X0X>X,Xm.V.N.J K w $ @ &.2.#X#XU.6.n 8 2 o 0 u A 1.8X0X8X0X1X0X9X0X9X0X9X9X<X9X",
"6X1X1X6X1X5X5X6X1X1X6X1X1X1X,Xm.C.u.J Z b 2 + O % ; % % & X 5 r B C n *X5X5X1X1X5X5X1X5X5X5X1X1X5X5X",
"6X6X4X4X6X4X4X4X4X4X6X4X6X2X4X:Xm.3Xs.! J p e * X X X * q r N Z H U f.4X4X4X4X6X6X6X4X4X6X4X4X4X4X6X",
"2X6X;X*X*X-X*X4X;X4X4X2X2X;X;X*X%Xn.M.B.s.Q I S y y y N V K Z S 9.x.*X;X*X4X*X4X4X*X-X*X*X;X4X2X-X4X",
"*X*X-X*X-Xb.2X*X=X;X;Xb.-X-Xb.;X*Xx.q.M.V.C.B.i.I I I I I E u.q.-X;X=X=X;X*X=X=X;X=X=X-X=X-X;X-X-X;X",
"b.-Xb.b.b.b.-Xb.b.=X-Xb.-X-Xb.b.=X-X-Xx.l.q.M.a.a.a.a.M.M.l.g.=X=X=X=X=X=X=X=X=X-X=X-X-X=X=X=X=Xb.b.",
"b.b.b.b.b.b.b.b.b.b.b.b.b.b.b.b.b.b.b.b.b.v.v.x.x.x.x.x.x.v.b.b.b.b.b.b.b.v.b.b.=Xb.=Xb.b.b.b.b.b.b.",
"b.b.b.b.b.c.c.b.b.b.b.c.c.c.b.b.b.b.b.b.v.c.b.b.b.b.c.z.v.b.b.b.b.b.b.c.c.v.b.b.b.b.k.c.b.b.b.b.b.b.",
"k.k.b.b.b.c.z.b.b.c.c.k.h.z.c.c.z.c.=X=Xc.z.b.b.c.z.k.j.k.z.c.k.c.b.b.v.c.v.b.v.c.k.j.k.c.z.k.v.b.b.",
"k.z.b.v.z.b.c.b.c.k.j.j.h.k.c.k.z.b.c.z.v.v.c.z.k.k.j.h.k.c.c.k.v.b.c.v.v.c.c.k.k.j.h.j.c.c.k.v.b.z.",
"c.k.k.c.c.c.j.h.j.c.z.k.h.c.b.c.k.k.z.z.z.k.j.k.z.z.k.h.z.v.c.k.k.c.c.c.k.j.k.z.c.j.h.c.v.v.k.k.c.z.",
"b.k.z.c.j.j.k.k.z.b.c.j.k.z.c.v.z.z.z.k.k.k.k.z.b.c.k.k.z.c.v.c.k.c.k.j.k.k.k.v.v.k.k.k.c.v.c.k.c.k.",
"v.v.v.c.e.h.b.b.z.j.z.j.j.h.h.v.b.b.z.h.h.c.c.z.k.k.k.j.k.h.c.v.b.c.h.e.c.v.c.k.k.k.k.j.h.c.v.v.c.h.",
"h.k.v.z.e.k.c.k.b.k.c.c.j.k.k.k.k.c.z.h.k.z.z.c.z.z.z.k.k.k.k.k.c.c.j.k.k.c.c.k.c.c.k.k.k.j.j.c.b.e.",
"z.z.c.h.e.h.j.k.k.b.b.v.j.h.c.z.c.c.j.e.h.j.k.k.c.v.v.k.h.k.c.k.c.j.e.h.j.k.k.c.b.b.j.e.k.c.k.c.k.e.",
"h.b.z.h.k.k.e.e.e.k.k.h.e.e.e.h.c.z.h.j.j.e.e.e.k.c.h.e.e.e.h.c.c.j.j.j.e.e.e.k.z.j.e.4.e.h.z.b.j.k."
};
