/* XPM */
static char *result[] = {
/* columns rows colors chars-per-pixel */
"50 50 224 2 ",
"   c #7C5738",
".  c #7C5D4E",
"X  c #756254",
"o  c #776966",
"O  c #70777E",
"+  c #97531C",
"@  c #A96719",
"#  c #B0751A",
"$  c #89542D",
"%  c #985C27",
"&  c #8D5635",
"*  c #8B5E3C",
"=  c #A05E25",
"-  c #9D6623",
";  c #9A6738",
":  c #A56524",
">  c #B67B26",
",  c #AE7A32",
"<  c #C27E24",
"1  c #8A5B44",
"2  c #906347",
"3  c #8F7866",
"4  c #BD8428",
"5  c #C0881A",
"6  c #C68628",
"7  c #C8952A",
"8  c #D49C2B",
"9  c #C48D39",
"0  c #C79436",
"q  c #D59D34",
"w  c #D7AA2E",
"e  c #D7A538",
"r  c #DEB536",
"t  c #E3AA34",
"y  c #E5B939",
"u  c #E5C33D",
"i  c #EAC93B",
"p  c #F0CE3F",
"a  c #ECD538",
"s  c #EDDD3B",
"d  c #F0D53E",
"f  c #F1DA3C",
"g  c #ECED36",
"h  c #ECE43C",
"j  c #EDEB3D",
"k  c #F0E63D",
"l  c #B6894A",
"z  c #B09054",
"x  c #948971",
"c  c #AC9E77",
"v  c #B4A374",
"b  c #D39A41",
"n  c #D6A748",
"m  c #E5B845",
"M  c #BADE7C",
"N  c #D1C358",
"B  c #EBC241",
"V  c #E9C948",
"C  c #E9CD4E",
"Z  c #EDD542",
"A  c #EDDC42",
"S  c #EAD749",
"D  c #F2DA46",
"F  c #EBD556",
"G  c #DDE85B",
"H  c #EDE343",
"J  c #ECEA41",
"K  c #E9E34A",
"L  c #ECEA4C",
"P  c #F2E447",
"I  c #F1E943",
"U  c #ECE454",
"Y  c #E9E85A",
"T  c #F2EA5C",
"R  c #F2D660",
"E  c #D9E761",
"W  c #DAE67A",
"Q  c #EBE868",
"!  c #EBEE7A",
"~  c #F0F073",
"^  c #2380BF",
"/  c #3C86BA",
"(  c #58819D",
")  c #6C869C",
"_  c #4E87AE",
"`  c #5B98BD",
"'  c #6D8CA5",
"]  c #6C9AB8",
"[  c #71ADB6",
"{  c #278ACC",
"}  c #2D8BC9",
"|  c #398BC4",
" . c #3491CD",
".. c #3A93CC",
"X. c #298FD1",
"o. c #2C91D4",
"O. c #2C95DA",
"+. c #2F99DF",
"@. c #3696D5",
"#. c #359ADD",
"$. c #3C9BD9",
"%. c #2D99E0",
"&. c #329EE4",
"*. c #309FE8",
"=. c #3BA2E5",
"-. c #37A3E9",
";. c #33A3EC",
":. c #3AA6EC",
">. c #35A7F0",
",. c #35AAF6",
"<. c #3CACF5",
"1. c #539DCB",
"2. c #439FDB",
"3. c #699FC5",
"4. c #4AA4DC",
"5. c #58A7D0",
"6. c #58A6D7",
"7. c #52A7DB",
"8. c #71ABCE",
"9. c #77B5D9",
"0. c #45A7E5",
"q. c #42AAEC",
"w. c #4CAEEC",
"e. c #55ACE2",
"r. c #5CAEE1",
"t. c #51ADE8",
"y. c #5DB3E6",
"u. c #53B2EE",
"i. c #5CB3EA",
"p. c #42AFF4",
"a. c #4AAFF0",
"s. c #45B1F6",
"d. c #4CB4F5",
"f. c #53B6F5",
"g. c #58B7F3",
"h. c #56B8F6",
"j. c #5BBAF6",
"k. c #66B7EA",
"l. c #67BAEC",
"z. c #6ABDEE",
"x. c #73BDE7",
"c. c #63BDF5",
"v. c #6BBEF2",
"b. c #6EC0CF",
"n. c #79C4CC",
"m. c #79C4DC",
"M. c #7BC3EA",
"N. c #7DC5ED",
"B. c #66C0F7",
"V. c #6CC2F6",
"C. c #74C5F5",
"Z. c #7BC6F3",
"A. c #7DC9F6",
"S. c #72C5F8",
"D. c #78C7F8",
"F. c #7AC9F8",
"G. c #888886",
"H. c #929E94",
"J. c #A39F89",
"K. c #92AC93",
"L. c #ABAE85",
"P. c #A7A699",
"I. c #929EA3",
"U. c #93AEB9",
"Y. c #A8B6A9",
"T. c #A9B9B7",
"R. c #A9CB93",
"E. c #9CCCB6",
"W. c #AFD0A6",
"Q. c #AED8BE",
"!. c #BAD6B9",
"~. c #C6D88A",
"^. c #D9DD91",
"/. c #D6E286",
"(. c #CCE397",
"). c #D7E699",
"_. c #E9EC8A",
"`. c #F3EF88",
"'. c #E8EC9C",
"]. c #EEF190",
"[. c #F4F09D",
"{. c #C3DDA8",
"}. c #C3DCB0",
"|. c #D9E7A6",
" X c #DCE8B1",
".X c #E8EFA7",
"XX c #F2EDA8",
"oX c #F2F1AA",
"OX c #E7EBB9",
"+X c #EDF3BA",
"@X c #97BACC",
"#X c #89B7D2",
"$X c #97CECD",
"%X c #87C4DE",
"&X c #9ACDD7",
"*X c #AACCCE",
"=X c #B9DBC6",
"-X c #AAD5D6",
";X c #B7D9DA",
":X c #BCDCDC",
">X c #89C7E5",
",X c #84C6EA",
"<X c #85C9ED",
"1X c #8CCBEB",
"2X c #96CCE7",
"3X c #92CEED",
"4X c #99D2E3",
"5X c #96D0EE",
"6X c #9CD2EE",
"7X c #80C7F0",
"8X c #83CBF4",
"9X c #8BCEF3",
"0X c #90CFF1",
"qX c #94D1F1",
"wX c #98D2F0",
"eX c #A1CEE2",
"rX c #A5D2E2",
"tX c #A3D5EC",
"yX c #A9D7EA",
"uX c #ADD8E9",
"iX c #B6DBE7",
"pX c #BDDDE5",
"aX c #B1D9E8",
"sX c #C2DED5",
/* pixels */
"s.V.:.g.6X8XpXpXuXV.<.h.qXwX6XpXiXaXc.C.f.<.j.<.s.s.V.:.g.6X<XpXpXaXS.<.f.qX6X6XpXiXaXj.C.f.<.j.p.p.",
"d.l...c.B.c.pXpXpX6Xj.j.qXqXqXaX6X9X9XyX9X<.;.,.j.f.z. .c.B.c.pXpXpX6Xj.j.qX6XtXaXwX9X9XuX8Xp.;.,.c.",
"V.V.<.,.f.Z.pXpXpX5Xc.8X9X9X8XS.tXaX6XuX8Xs.{ ;.s.V.V.<.<.d.Z.pXpXpXqXj.8X9XyXqXS.tXaXtXyX8Xp.{ >.s.",
"-.g.<.f.v.e.pXpXaX6X8XwXiXiXtXh.<X9Xs.V.D.s.,.s.V.=.j.<.f.V.e.pXiXuXtX8X6XiXuXwXh.8X9Xs.V.S.s.,.s.S.",
"{ >.f.A.M.1.pX6X8XwXqXwXyXyXpXZ.V.V.s.B.D.=.s.B.V. .>.f.A.M.1.pXwX8XwXqXwXyX9XyXM.B.V.p.B.F.=.a.c.F.",
"g.s.V.S.6X7X5X9X9X6XqX6XaXpXpX<XS.d.,.B.B.@.z.h.<Xj.s.S.V.6X7X5X9X9XtX0X6XiXpXpX8XS.d.,.B.c.@.z.j.9X",
"5Xd.V.s.D.V.f.5XF.qXiX6XyXpXaXC.V.0.O.u.&.:.A.8XaX5Xd.B.s.D.V.f.wXF.qXiX6XyXuXyXC.V.0.+.g.&.:.7X8XiX",
"0Xj.V.s.D.S.j.S.B.qXaXyXpXaX6X8X9X5.} ;.o.u.5X9XuX5Xc.V.s.D.S.j.D.B.qXuXuXpX6X9X7X9X5.} *.o.u.0X9XiX",
"5XB.S.j.S.j.j.j.f.<XpXpXaX6X6X6XaX0Xc.%.;.h.Z.6X6X5Xv.S.c.v.c.c.j.h.Z.pXpXaX6XtX6XaX9Xj.#.;.h.D.qX6X",
"A.N.1X7.u.#.j.u.0.l.aX6XZ.Z.9XZ.0X8XD.2.t.y.#XU.U.U.[ #X6.t.&.h.w.4.z.aXtXZ.Z.9XZ.5X8XF.$.a.j.0X6X6X",
"6XtXeX#.;.$.8X>X4.j.0X9XZ.V.F.f.c.A.2X8.) 3 2 $ $ $ $ 2 o ( _ 7X>X4.j.1X9XZ.j.B.f.B.A.qXV.j.D.uXyXpX",
"wX8X1Xu.o.d.tXyXc.j.tX6XZ.f.f.h.v.8.3 & = : 6 < > 5 4 > : = 1 G.@Xj.l.6X6XC.j.h.h.S.j.9Xc.j.F.aXpXpX",
"tX6X8X1X&.p.Z.9Xc.v.uX9Xh.d.a.a.] 2 , q y m C F R F S V y y 0 % . 3.l.uX9Xh.s.s.s.S.s.9XS.D.6XpXpXpX",
"pXpXyXyXj.,.s.F.r.4.C.c.S.8Xl.` z e i d s D Q ].oXXXQ D D D B q + . ` Z.B.V.c.s.,.s.<.5X9XF.uX6XwXpX",
"pXpXpX9Xf.B.V.V.p.=.f.j.Z.iX9.x u D a h H D R W ^.^./._.[.! U D q + o y.h.A.9Xf.f.$.*.Z.8X6XwXtXtXwX",
"pXpXpX6XV.V.h.B.,.s.j.p.s.x.K.V d a k f C N }.&X%X;XsXsX{..X[.Q S q % ' q.s.V.f.N.e.;.1XyXiX9XuXwXA.",
"pXiX0XqXqXb.X.=.X.f.e.O.>.8.N H s h f V L.*X3XA.8XiXiX0X4X=X XoXQ p 4 . | <.j.h.V.f.j.8XuX6XtXqXF.F.",
"iXqXuXyX8XV.;.>.:.<X>Xt.:.E.A h s f V v *XiX7Xf.F.aXwXyXtX1X*X'.`.H r - ) :.g.2.9.7Xf.5XpXaXiX8Xh.S.",
"j.tXqXiXaXyXN.,.f.A.A.c.r.E j h A u z Y.pXiX8X<.p.c.6XqXiXaX-X(._.Y V # X =.<.=.>XqXV.yXpXpXiX8Xs.s.",
"d.A.A.qXaX0XF.d.C.A.A.g.[ G g k Z e J.;X0X9XZ...;.p.A.8XqXaX4X$X).`.D 8 $ ( ^ +.V.tX9XyXpXqX9XZ. .>.",
"B.S.A.aXpXaX6Xj.h.A.F.e.R.J g k B l T.qX8XtXuXx.<.B.D.A.aXpXaX4X{.].Q u & O *.u.5XqX8XyXqX8XtXyXz.<.",
"d.s.h.iXpXuXF.h.F.A.j.4.R.J j f e x %XtXyXqXyXA.s.s.s.h.iXpXuXA.R.Q Y a # 3 i.s.V.A.tX9XtXyXqXyXA.<.",
"S.V.f.iXuXA.9X4X0X9X#.[ E j k Z 9 G.i.C.A.F.8XC.p.V.V.f.aXuX8X9XQ.W L a 0 2 9.v.A.tX6Xj.C.A.A.8XA.:.",
"9X4Xg.yX9X0XtXA.qXm.;.b.Y g k d 0 P.Z.S.f.B.F.V...N.4Xg.yX9X0XtX3X).I D q 2 8.c.6XpXiXZ.S.f.B.F.V.} ",
"tX4Xd.8XaXtX9X5XyXr.o.b.G g g d 0 P.j.s.j.s.V.s.q.4X4Xd.7XiXyX9X4XW j D r , #XD.tXpXpXj.s.j.d.V.s.;.",
"d.V.:.g.tX9XiXiXuXV.<.n.G j j D 0 P.j.S.h.<.B.<.<.s.V.:.j.tX9XiX:XW j A m l @X6XpXpXiXc.S.f.<.j.<.<.",
"d.z...B.V.B.pXpXpX6Xj.n.G J j f 0 I.8XuX8Xs.;.<.c.f.B. .c.B.c.pX:XW h y t l @XtXaX6X9X8XyX8Xs.;.<.c.",
"V.V.>.<.d.7XpXpXpX5Xj.$XG j J h 0 x &XyX8X<.{ ;.s.B.V.<.<.f.N.pX}.Y h w q z @XwXZ.tXaXtXyX8X<.{ ;.s.",
"-.j.<.d.c.e.pXpXaXtX8X4X/.J j I n x 7.V.D.s.,.d.V.0.j.<.d.c.e.pX(.I Z 8 n c rX6Xf.<X9Xd.V.A.s.,.s.S.",
"| %.s.9XM.1.aXuX8X9X6X6X{.Y T L u ; ` V.S.<.,.V.C...&.<.9Xx.1.;X/.L i 8 b H.1XuXz.h.S.f.V.V.<.<.V.F.",
"M. .u.5X6XD.7XpX6X8XtX6XQ.Q ~ L a 4 3 C.s.>.s.D.9XM. .f.4X6XA.E.L A t t n @XpXpXz.<.j.S.C.s.,.s.S.9X",
"5Xd.V.s.A.V.f.6XA.5XiX6X-XW ! Q K 0 $ ' =.<.Z.8XaX4Xd.V.d.F.M.M I y 8 y c &XiXyXV.V.q.%.g.=.<.A.8XpX",
"9Xh.V.s.F.V.j.S.V.qXyXyXpX{._._.L u @ X / a.3X<XuX1Xj.V.p.N.W.Y B 4 r m Y.sXwX9X8X9X6.} *.X.w.3X8XiX",
"6XV.S.j.C.j.c.j.h.8XpXpXaX-X^.[.Q I r - X ] Z.5XtX6XV.S.9.W.F e 5 w Z v *XaX6XtXwXuX9Xj.&.;.j.D.qXtX",
"Z.Z.<X6.u.#.d.u.0.z.aXtXA.<X!.OXXXU I r -   ) U.%X9.9.U.v 9 > # e i C Y.6XN.9X9X8XwX8XF.$.w.f.9X6X6X",
"5XtXeX#.;.$.8X,X4.g.qX9XA.B.<X!.+X_.L P B 4 + $ ; 1 * ; : @ 7 y Z C L.>X9XZ.h.V.d.B.A.qXc.j.D.aXyXpX",
"5X8XqXu.O.d.yXyXB.g.6X6XA.g.j.m.}.+X[.Q U Z r < @ @ @ 6 q y p f K R.8.6X6XZ.h.h.h.V.c.1Xc.j.C.aXpXpX",
"6X6X8X,XO.s.Z.qXB.z.aX9Xh.s.s.d.%X!.oXoX].~ Y F u i p B Z K H U ~.9.V.aX9Xh.s.s.d.S.s.<XV.C.6XpXpXpX",
"pXpXyXyXh.,.d.A.i.7.A.c.V.<Xc.>.d.y.W.|.OX+XoX].T Y T T Q W R.E.%Xk.7.N.B.V.j.s.,.d.<.6X9XA.uX6X6XiX",
"pXpXiX9Xh.j.B.V.q.=.h.h.A.aXV.d.$.;.Z.>X=X}. X|.'.'.).|.}.$Xm.V.Z.q.&.g.h.Z.9Xf.d.#.;.A.8XwX6XtXtX6X",
"pXpXpX6XV.S.j.B.,.s.h.s.d.N.j.N.e.;.8XtXiX3X;X-X&XsXsX:X6Xv.C.j.B.,.s.j.s.f.V.f.Z.e.;.1XyXiX9XaX6XF.",
"pXiXqXwX6Xl.o.=.o.d.e.O.,.j.f.V.h.j.8XiX6XtXqXA.8XiXiX0X0X6Xk.o.:.O.f.6.O.,.j.h.V.g.h.8XuX6XtXqXF.F.",
"qXaXA.A.5X2X7.{ *.j.>Xw.d.S.f.c.d.c.6XpXaXiXc.V.j.9XuX8X8XqX2X7.{ *.j.>Xa.d.f.<.c.d.B.6XpXuXaXB.V.f.",
"j.yX9XyXuXpX>X*.s.Z.9Xj.<.B.f.Z.8XS.uXpXpXiXZ.s.<.f.yX9XyXaXiX>X;.s.D.8Xj.<.<.,.N.7XD.uXpXpXpXS.d.,.",
"s.Z.A.qXuX9XD.s.S.F.F.h.O.#.<.V.tX9XuXpX3X9XZ. .>.p.8XA.0XaX9XZ.s.V.A.F.j.O.^ +.V.tX9XuXpXqX9XZ. .;.",
"V.D.8XaXpXaX6XB.j.F.F.7.o.;.h.5XqX8XyXqX8XtXyXz.p.c.D.8XaXpXaXtXj.j.A.F.7.o.*.u.5XwX8XyXqX8XtXtXx.<.",
"d.V.j.iXpXpXyXA.8X6Xc.:.k.c.j.tXiXuXz.3X8X8X9XS.p.d.V.j.iXpXpXuXD.8X6XB.:.k.c.c.tXaXuXz.5X8X9X8XD.<.",
"S.C.h.iXaX8XqX6X5X1X#.o.B.B.j.8XuX6Xf.C.F.F.A.S.p.V.S.f.aXuX9XqX6XqX1X#.o.c.A.S.8XuX6Xd.C.A.F.F.C.<.",
"9X6Xg.yX9X9XtX8XqX,X;.d.1X9XS.6XpXiXZ.C.f.V.F.v...N.6Xg.yX9X9XtX9XqX,X;.a.1XZ.B.6XpXiXA.V.f.B.F.V.} ",
"yX4Xd.8XaXtX9XqXtXr.o.<.V.c.V.tXpXpXc.s.j.d.V.s.q.6XrXs.8XaXtX9X9XtXy.o.<.V.A.D.yXpXpXl.s.c.d.V.s.;."
};
