/* XPM */
static char *result[] = {
/* columns rows colors chars-per-pixel */
"50 50 225 2 ",
"   c #736153",
".  c #6C7279",
"X  c #97531C",
"o  c #A96719",
"O  c #B0751A",
"+  c #87522D",
"@  c #975B27",
"#  c #8C5633",
"$  c #885A39",
"%  c #A05E25",
"&  c #9D6525",
"*  c #9A6835",
"=  c #A66624",
"-  c #B67B26",
";  c #AB7930",
":  c #C17E24",
">  c #855D49",
",  c #8B624A",
"<  c #946945",
"1  c #8C6851",
"2  c #887568",
"3  c #957565",
"4  c #BD8428",
"5  c #C0881A",
"6  c #C58628",
"7  c #D39B2B",
"8  c #C59130",
"9  c #C59336",
"0  c #D69D34",
"q  c #D7AA2E",
"w  c #D7A437",
"e  c #DEB635",
"r  c #E4AA34",
"t  c #E5B839",
"y  c #E5C43D",
"u  c #EBC43E",
"i  c #EACB3A",
"p  c #F0CE3F",
"a  c #ECD538",
"s  c #EDDC3B",
"d  c #F0D53E",
"f  c #F1D93D",
"g  c #ECED36",
"h  c #EDE43C",
"j  c #ECEB3D",
"k  c #F0E63C",
"l  c #B68A4A",
"z  c #B39154",
"x  c #958570",
"c  c #AD9D6A",
"v  c #B4A877",
"b  c #D29A41",
"n  c #D6AD4B",
"m  c #E5B846",
"M  c #B9DE7C",
"N  c #CDC859",
"B  c #E9C947",
"V  c #F1C742",
"C  c #EDD441",
"Z  c #EEDB42",
"A  c #E9D748",
"S  c #F2DA46",
"D  c #E2CE5B",
"F  c #EBD556",
"G  c #D8E559",
"H  c #EEE343",
"J  c #ECEA42",
"K  c #EAE74B",
"L  c #F2E547",
"P  c #F0E943",
"I  c #ECE454",
"U  c #E8E85A",
"Y  c #F1EA5C",
"T  c #D1D773",
"R  c #EDDE63",
"E  c #F2D660",
"W  c #D1E360",
"Q  c #D9E77B",
"!  c #EBE868",
"~  c #EAEE78",
"^  c #F1EE70",
"/  c #EEF17D",
"(  c #5A98BE",
")  c #7494A3",
"_  c #6E9EBC",
"`  c #769EB9",
"'  c #6BABB4",
"]  c #7FC3BC",
"[  c #2585C5",
"{  c #2988C7",
"}  c #2A8CCD",
"|  c #328CC6",
" . c #3891CC",
".. c #2A8ED1",
"X. c #2B92D5",
"o. c #2C95DA",
"O. c #2D98DF",
"+. c #3295D5",
"@. c #3399DC",
"#. c #3C9AD8",
"$. c #2E9CE4",
"%. c #2F9FE8",
"&. c #339DE3",
"*. c #359FE5",
"=. c #36A1E7",
"-. c #3BA1E3",
";. c #33A3EC",
":. c #3AA6EB",
">. c #3DA9EE",
",. c #34A6F1",
"<. c #36A9F4",
"1. c #3CACF5",
"2. c #4997C9",
"3. c #589EC8",
"4. c #479DD5",
"5. c #49A2DA",
"6. c #57A8DA",
"7. c #6DB1D2",
"8. c #69B6DB",
"9. c #47AAE6",
"0. c #44AAEC",
"q. c #4BADEB",
"w. c #53ACE4",
"e. c #59ADE3",
"r. c #4EB0EE",
"t. c #59B4EB",
"y. c #42AEF5",
"u. c #4AAFF1",
"i. c #45B1F6",
"p. c #4BB3F5",
"a. c #53B6F5",
"s. c #58B6F1",
"d. c #56B8F6",
"f. c #5CBAF5",
"g. c #61AFE0",
"h. c #66B7E5",
"j. c #64BAED",
"k. c #6EBEED",
"l. c #75BDE3",
"z. c #71BEEC",
"x. c #64BEF5",
"c. c #6BBFF1",
"v. c #76C2D2",
"b. c #6FC0EF",
"n. c #70C0E2",
"m. c #75C2EE",
"M. c #7CC4EE",
"N. c #66C0F7",
"B. c #6CC2F6",
"V. c #73C5F6",
"C. c #7AC7F4",
"Z. c #7DC9F6",
"A. c #78C7F8",
"S. c #7BC9F8",
"D. c #90928C",
"F. c #A19A95",
"G. c #AAB28C",
"H. c #8599A2",
"J. c #8FADB7",
"K. c #A4ADAC",
"L. c #A7B8BB",
"P. c #BCD788",
"I. c #B7CE95",
"U. c #8DC6B6",
"Y. c #A7D2A6",
"T. c #AFD3B4",
"R. c #D3DA8A",
"E. c #C9DA94",
"W. c #D6E693",
"Q. c #D9E799",
"!. c #EAED89",
"~. c #F1EF8F",
"^. c #EFF289",
"/. c #E7EC9B",
"(. c #F4F09D",
"). c #CADFAF",
"_. c #C3DDB7",
"`. c #CBE2AA",
"'. c #D8E6A4",
"]. c #C8E2BC",
"[. c #D8E5BE",
"{. c #E9EFA7",
"}. c #F2EDA8",
"|. c #F2F1AA",
" X c #E7ECB1",
".X c #EDF2BA",
"XX c #89B4CB",
"oX c #94B8CA",
"OX c #88B9D7",
"+X c #A0BBC7",
"@X c #81BFE2",
"#X c #9EC9C3",
"$X c #86C7D1",
"%X c #97C9DD",
"&X c #9BD2DA",
"*X c #B1CCCC",
"=X c #A9C7D4",
"-X c #A6D4DA",
";X c #B8D9DB",
":X c #88C7E6",
">X c #82C6EB",
",X c #85C9ED",
"<X c #8BCBED",
"1X c #94C9E2",
"2X c #9CCDE4",
"3X c #92CEEC",
"4X c #92D0E4",
"5X c #96D1EF",
"6X c #9CD2ED",
"7X c #83CBF4",
"8X c #8BCDF2",
"9X c #91CFF0",
"0X c #94D0F0",
"qX c #A4D4E4",
"wX c #ACD6E6",
"eX c #AFD8E7",
"rX c #A4D5EB",
"tX c #AAD7EA",
"yX c #ADD8E9",
"uX c #B9D7E0",
"iX c #B4DAE7",
"pX c #BDDDE5",
"aX c #B1D9E8",
"sX c #C1DEC0",
"dX c #F1F0C1",
/* pixels */
"7XN.p.p.V.6X6X6X6X6X6X6X6X6X0X7X7X8X6X6X9X7Xx.9.+.o.%.1.p.f.C.9XC.x.d.f.x.V.7XeXpXpXpXpXpXpXpXrXc.f.",
"7XN.p.i.x.7X6XiXaXyXrX8X7X7X7X7X8XrXtX6X7X7XV.e.| } $.<.1.p.x.7Xx.a.a.N.A.A.7XtXpXpXpXpXpXpXpX5Xs.1.",
"Z.N.p.1.a.c.3XiXaXrX9X7X7X9X0X0X6XyXyX6X7X7X9Xh.#.X.%.1.p.f.z.9XV.f.f.A.Z.8X6XeXpXpXpXpXpXpXpX3Xs.1.",
"A.N.i.1.1.p.,XiXrX8X7X7X8X6XyXyXaXiXaX6X8X9XtX>X9.*.<.y.d.c.9XrX8XV.A.S.8XrXiXpXpXpXpXpXpXiXiX3Xa.i.",
"S.N.p.<.<.y.V.6X9X7XS.S.8X6XtXpXpXaXrX6X0X6XrX7Xa.1.i.d.x.7X9XrX6X0X8X7X9XyXpXpXpXpXpXaXaXtXrX8Xf.f.",
"S.x.y.<.<.y.c.7X7XS.A.S.7X8X5XyXaXrX0XrXtX6X9XB.i.i.f.x.A.S.7X8X5XrX0X8X9XaXpXpXpXpXiXrX0X8X8X7XV.B.",
"A.x.9.=.1.p.x.V.c.A.c.S.7X7X5XyXaX6X0XrXiXtX8XA.d.a.x.x.A.S.7X8X5XtX5X8X9XtXpXpXpXiXyX5X7X7X7X7XC.Z.",
"A.g.#. .9.x.V.V.x.d.x.c.8X5XyXpXpXyXyXiXpXaXyX0XV.f.a.d.x.7X9XrX6X0X8X7X8XtXpXpXpXyX0X7X7X8X6X6X7X7X",
"B.e. .| w.c.V.x.d.p.d.x.8XtXpXpXpXpXpXpXpXuXiX5XS.x.a.p.x.S.6XtX6X7XS.7X9XtXiXiXaX6X8X7X8X5XyXrX0X0X",
"d.0.*.@.y.a.a.a.d.f.f.d.z.rXpXpXpXpXpXpXuXwXoXJ.` _ _ g.z.>X8X9X7X7X8X6XrX5X5X9X0X6X6XrXrX6X5X5XrXtX",
"i.<.,.,.<.1.1.i.d.x.d.p.x.6XpXpXpXpXuX+XF.3 , + + + + 1 2 H.XX@X7X7X9XwXrX9XS.A.7X6XaXiXyX6X8X8X6XeX",
"1.<.<.1.<.<.p.f.d.d.i.i.x.rXpXpXpXL.3 * % o : : : 4 4 - = @ $ D.oX6XwXaXtX8XA.x.x.9XaXyX6X9XS.A.m.C.",
"1.,.<.<.1.y.f.x.d.y.,.y.j.6XpXsXK.< 9 0 t B B F E F A V t t 7 @ > L.eXiXrX9XV.a.a.>XqX6X8X7XS.N.a.d.",
"@.$.%.<.i.d.c.c.w.&.$.1.j.2XpXL.b b u i Z S ! ~.}.}.! L S F V 0 @ > L.rXrX5X>Xa.y.V.3X8XS.S.A.N.i.i.",
"[ } &.y.f.A.A.V.6.| X.*.f.2X*Xc V C a k L S R T R.R.R.W.(.~ I A 0 X 2 %X3XrX6Xx.y.x.7XZ.A.S.A.N.i.i.",
"} +.0.a.N.S.7X<Xg.2.#.:.s.2XG.B d s k f B N T.-X-X-X4X&X).{.(.! C 0 @ H.6XeXqXV.d.x.A.B.N.B.B.x.i.i.",
"=.>.f.B.A.Z.6XrX1Xk.r.0.f.#XN H s s s B v *XiXrX0X7XZ.8XqX].[.|.R p 6 1 =XuXwX8XB.A.V.f.a.d.B.N.y.u.",
",.i.f.B.Z.0XrXiX6XZ.x.p.j.I.H h s s B v %XyXaX6X7X7X8X0X6XeX]./.^.H e & F.;XwX7Xc.x.x.d.p.d.N.f.p.a.",
";.<.i.s.<XtXiXpX6XC.x.i.8.W j h Z i z J.0X8X8X7XZ.8X6XrX6X5X-XW.^.U i - 1 *XrXk.p.p.p.d.x.d.a.a.x.N.",
";.1.p.s.M.6XqXtX0XC.f.q.v.K g k C w D.1X7X7X8X8X8X0XyXtX5X8X6XsXQ.^.S 7 # K.qXx.1.1.p.d.f.d.1.y.f.B.",
",.1.d.f.N.N.M.8X8XA.f.p.Y.J g f B l XX,X7X<XrXrXtXyXiXyX5X7X6X;X`.^.! t = D.rXj.1.p.f.f.p.y.1.1.p.f.",
"1.a.N.B.d.i.N.C.Z.A.f.t.P.J j Z w x :XZ.Z.0XtXiXiXiXiXyX5X9XrXpXW.! I a - 3 OXj.p.f.c.r.:.,.<.,.;.y.",
"d.x.V.B.p.1.f.V.Z.V.f.v.G J k C 4 D.V.C.Z.8X0XrXiXiXrX6X6XrXiXpX].~ L f 0 , OXc.N.B.B.w.+.O.;.%...@.",
"N.V.V.B.p.1.f.S.Z.V.t.v.G j k d 9 H.V.A.C.Z.7X5XaXyX5X5XrXiXpXpXpXQ.P V 0 < OX7XA.S.V.6.| ..*.$.[ [ ",
"d.x.B.B.a.1.f.S.S.V.t.' G g g d 9 ) x.B.S.8X5XtXiXiXtXrXyXpXpXpX;XQ j A e ; OX8X7X9X:Xl.6.*.:.%.X.X.",
"i.a.N.B.p.1.f.A.S.m.6.' G g j Z 9 ) p.f.V.5XyXpXpXpXpXpXpXpXpXpXqXQ j Z m z +X0X7X6XwX3Xz.f.1.<.,.,.",
"d.x.B.B.f.d.N.A.B.f.-.' G J J h 9 ) d.d.N.,XaXpXpXpXpXpXpXpXyXrXqXQ h e r ; oX5X5XwXaX6X7Xf.y.y.p.0.",
"N.B.A.A.A.N.V.A.f.i.:.v.W g J j 4 ) t.d.a.m.iXpXpXpXpXpXpXiX6X8XT.U h q r z OXrXeXiXiX6XZ.f.y.y.x.t.",
"V.C.8X<XB.N.V.V.f.1.<.9.P.J P L e 2 g.p.y.n.eXpXpXpXpXpXpXaX9XV.I.J Z 7 w F.@X8X3X6XrX9XZ.f.y.a.V.l.",
"A.8X6X5XB.p.x.V.d.1.<.1.Y.U Y L y * ( 1.y.b.eXpXpXpXpXpXpXyXm.n.E.J i q 0 H.B.x.j.z.7X7XV.x.i.f.3X:X",
"Z.8XrX2Xg.-.p.f.q.=.%.,.v.U / K a 4 . #.1.m.eXpXpXpXeXyXyX6Xb.] K Z w r n 7.B.p.y.f.A.S.V.f.p.s.3X<X",
"7X0XwX%X6.} -.0.&...o.;.8.Q / G h 4 X ( >.b.eXpXpXiX6X0X9X,Xn.M L y 7 m c @Xc.p.y.f.A.S.V.f.y.a.C.C.",
"7X0XrX%X3.[ X.;.X.[ X.:.t.T.!.!.K y o   5.n.wXpXiXrX9X7X7X>XY.I B 8 q m J.b.N.p.1.f.A.S.V.s.>.r.V.V.",
"7X8XtX2Xg.o.&.;.$.$.-.s.B.$XE.(.! P t &   ` -XwX6X8X7X7X2XI.D w 5 q B v 8.B.B.r.1.x.A.S.V.t. .5.:X<X",
"7X0XrX6Xj.1.:.;.,.<.p.x.V.Z.*X|.}.I L e & $ D.J.OXOXOXoXv 9 6 O q i N ) p.N.B.p.i.x.B.A.k.6.| ( %X2X",
"0X6X6X<XV.a.-.X.$.;.y.a.B.9XwX]..X!.K L t 4 @ + * > > @ o o 6 t C B G.j.f.d.d.d.f.B.V.N.a.9.@.5.:X,X",
"yXrX0X7XS.k.4.[ X.;.1.i.j.4XeX;X].dX(.! I Z e 4 o o o 6 w m p f K G.7.f.f.p.i.f.B.A.V.f.i.,.<.q.V.V.",
"iXtX8X7X8X<X6.X.$.,.i.p.x.m.<X4X-X`.{.|./.^ U F y i V V Z H L I I.v.d.d.a.1.1.p.x.B.B.d.1.<.1.a.7X,X",
"pXtX0X8X6XqXj.:.;.1.p.N.x.s.s.V.M.4XT.`. X.X|.~.Y U Y Y U Q E.U.8.N.d.p.1.<.<.1.i.f.N.a.>.<.<.f.3XrX",
"tX6X0X5X6X5Xj.y.1.p.f.B.N.i.i.x.S.C.V.8.$XT.`.'.'./.Q.`._.#Xn.a.x.B.t.-.$.;.,.$.@.q.s.9.=.$.,.s.<X6X",
"9X5XrXrX5X7Xf.y.p.N.B.A.N.i.i.x.V.S.V.f.1.>.w.n.%X&X4X,XZ.V.V.V.V.V.6. ...$.%...[ @.:.@.{ X.;.a.V.5X",
"5X6XeXaX6X7Xx.p.d.N.V.V.N.i.i.x.A.S.V.r.-.:.i.f.B.A.B.N.V.S.A.Z.7X<Xh.4.+.=.%...[ O.;.o.} X.0.f.C.5X",
"aXiXiXpXiXrX,XB.d.a.f.N.N.y.y.N.V.S.V.5.| #.s.B.V.B.d.a.N.A.C.Z.9XrX1Xh.w.>.,.%.$.;.,.%.&.9.f.M.6XrX",
"pXpXpXpXiXtX7XB.d.p.f.V.N.a.p.N.V.V.j.5.{ 4.j.B.N.N.a.a.f.B.A.8XrXeXrX7XN.i.1.1.i.;.=.;.<.p.N.Z.rX6X",
"pXpXpXpXrX8Xc.d.d.f.B.V.A.N.N.B.V.f.p.-.&.:.i.a.p.a.d.f.d.f.M.rXeXiXrX7XN.p.1.a.t.#.} O.;.1.p.N.7X8X",
"pXpXpXiX6X7Xx.p.f.V.Z.Z.S.V.B.A.B.d.1.<.,.<.<.1.i.a.f.x.p.p.m.6XtXeX6X7XN.i.i.x.m.5.{ X.;.1.i.f.C.8X",
"pXpXpXiXyX5XC.x.N.Z.8X5X<Xx.f.B.B.p.<.<.<.<.<.i.a.d.d.p.y.1.s.B.,X3X8XZ.N.p.p.M.3X6.@.&.<.i.d.B.0X6X",
"pXiXiXiXaXtX9XZ.S.7X5XrX<Xs.y.x.x.p.<.,.<.<.1.p.N.x.p.<.,.<.1.i.f.A.Z.C.N.p.r.,X6Xk.>.<.1.a.B.8XrXyX",
"rXrX6X6X6X6X6X5X8X7X5XtX1X5.+.q.r.-.o.&.,.1.a.N.V.j.#.@.%.<.<.<.d.V.S.A.x.p.p.V.<Xx.y.i.d.x.A.7X0XtX",
"8X7X7X7X7X8XrXyX6X7X0XtXOX2.[ &.=.} [ X.:.a.N.A.A.h. .{ o.<.<.1.a.V.S.A.x.p.y.c.C.d.y.a.N.V.C.S.7X0X"
};
