/* XPM */
static char *result[] = {
/* columns rows colors chars-per-pixel */
"50 50 224 2 ",
"   c #1C2E38",
".  c #2A3630",
"X  c #5D1B1E",
"o  c #6F1717",
"O  c #6B1C21",
"+  c #563535",
"@  c #682A2C",
"#  c #7B2428",
"$  c #793A3C",
"%  c #304C33",
"&  c #2B6B2D",
"*  c #544E38",
"=  c #7E5D39",
"-  c #1C1E4E",
";  c #0E1D55",
":  c #0D1D5B",
">  c #111C56",
",  c #111C5B",
"<  c #0A2156",
"1  c #0A215C",
"2  c #162250",
"3  c #242D55",
"4  c #0D1D62",
"5  c #0F1C6C",
"6  c #121D62",
"7  c #0B1C70",
"8  c #0C2163",
"9  c #0D226B",
"0  c #132565",
"q  c #11226C",
"w  c #1F3065",
"e  c #0C2573",
"r  c #0D257C",
"t  c #0D2A7C",
"y  c #122474",
"u  c #13257B",
"i  c #13287D",
"p  c #182878",
"a  c #272F65",
"s  c #273A63",
"d  c #212B7E",
"f  c #293776",
"g  c #343B76",
"h  c #443E56",
"j  c #6A2E5B",
"k  c #413B6A",
"l  c #762C73",
"z  c #364356",
"x  c #154B71",
"c  c #36436F",
"v  c #464345",
"b  c #554743",
"n  c #515353",
"m  c #57585C",
"M  c #75484C",
"N  c #68514E",
"B  c #7B644A",
"V  c #7A6358",
"C  c #585667",
"Z  c #504C73",
"A  c #535877",
"S  c #6B5B70",
"D  c #5D6267",
"F  c #656467",
"G  c #736E75",
"H  c #78787A",
"J  c #8C0F13",
"K  c #9C1218",
"L  c #A91A21",
"P  c #85292D",
"I  c #892A32",
"U  c #992E32",
"Y  c #B8262B",
"T  c #CE1C24",
"R  c #D02E36",
"E  c #816131",
"W  c #9A3249",
"Q  c #B5395C",
"!  c #CF3F4C",
"~  c #DA3B43",
"^  c #904C50",
"/  c #AF4851",
"(  c #8A6840",
")  c #997144",
"_  c #A37752",
"`  c #8C4F6A",
"'  c #A55C63",
"]  c #95706D",
"[  c #B7666A",
"{  c #D0535A",
"}  c #ED5152",
"|  c #F75D63",
" . c #D16D72",
".. c #469863",
"X. c #60956E",
"o. c #5AB561",
"O. c #AD8955",
"+. c #BA9263",
"@. c #A99279",
"#. c #A8A660",
"$. c #C2975B",
"%. c #C39861",
"&. c #D5A869",
"*. c #CAA774",
"=. c #D7AE71",
"-. c #DDB373",
";. c #E2B87A",
":. c #0E2B84",
">. c #0F278B",
",. c #0F298C",
"<. c #142784",
"1. c #142A85",
"2. c #132A8B",
"3. c #18298A",
"4. c #0F2F90",
"5. c #132B93",
"6. c #182996",
"7. c #132C9B",
"8. c #192D9B",
"9. c #193399",
"0. c #263784",
"q. c #273698",
"w. c #132CA4",
"e. c #192DA6",
"r. c #132BAC",
"t. c #1231A3",
"y. c #1835A5",
"u. c #1A33AC",
"i. c #1627B5",
"p. c #172ABD",
"a. c #192CBB",
"s. c #1A35B4",
"d. c #1E3BB4",
"f. c #1C35BB",
"g. c #1639BB",
"h. c #1B3BBA",
"j. c #2638A8",
"k. c #2438B7",
"l. c #5C328B",
"z. c #432DA9",
"x. c #394A92",
"c. c #2845AC",
"v. c #3446A7",
"b. c #2D4AB4",
"n. c #464985",
"m. c #4B5589",
"M. c #565888",
"N. c #485496",
"B. c #4F619A",
"V. c #696382",
"C. c #706F94",
"Z. c #747796",
"A. c #576FAD",
"S. c #1829C5",
"D. c #182AC4",
"F. c #1A27CC",
"G. c #1A29CB",
"H. c #1C37C3",
"J. c #1C3AC5",
"K. c #1637C9",
"L. c #1D36C9",
"P. c #1D3CCB",
"I. c #1C27D6",
"U. c #1D29D5",
"Y. c #1D27DA",
"T. c #1D29D8",
"R. c #2B2EC3",
"E. c #232CCC",
"W. c #2437C8",
"Q. c #2227D3",
"!. c #222CD2",
"~. c #2732D5",
"^. c #1F46C5",
"/. c #2947CB",
"(. c #2848D3",
"). c #2B4BDC",
"_. c #3253DB",
"`. c #2D4CE1",
"'. c #365AE8",
"]. c #3F61E0",
"[. c #485CD0",
"{. c #4C65D2",
"}. c #4265EA",
"|. c #4F75EB",
" X c #4469F0",
".X c #807997",
"XX c #CC7A85",
"oX c #7D9192",
"OX c #7C86A8",
"+X c #5E82EE",
"@X c #6F8BF1",
"#X c #898587",
"$X c #998A97",
"%X c #869397",
"&X c #AE958C",
"*X c #B8A796",
"=X c #8986A3",
"-X c #8E95B4",
";X c #A299AA",
":X c #9CABAB",
">X c #A8A9B2",
",X c #BAB5BA",
"<X c #DE888A",
"1X c #D8BC8E",
"2X c #E8BE81",
"3X c #C7AEAF",
"4X c #9BCFA0",
"5X c #B9CBBF",
"6X c #CEC294",
"7X c #E7C487",
"8X c #F5D299",
"9X c #ECD6B2",
"0X c #94A2CB",
"qX c #B7B3C7",
"wX c #C2BEC0",
"eX c #BCC1D1",
"rX c #C4C7CA",
"tX c #DAC9C7",
"yX c #CED0CC",
"uX c #C6CBD2",
"iX c #DAD4D4",
"pX c #DDDFDC",
"aX c #E7C9CD",
"sX c #DDDEE1",
/* pixels */
"Y.Y.Y.Y.Y.Y.Y.Y.Y.Y.Y.Y.Y.Y.Y.Y.Y.Y.Y.Y.Y.Y.Y.Y.Y.Y.Y.Y.Y.Y.Y.Y.Y.Y.Y.Y.Y.Y.Y.Y.Y.Y.Y.Y.Y.Y.Y.Y.Y.Y.",
"Y.Y.Y.Y.Y.Y.Y.Y.Y.Y.Y.Y.Y.Y.Y.Y.Y.Y.Y.Y.T.T.Y.Y.Y.Y.Y.Y.Y.Y.Y.Y.Y.Y.Y.Y.Y.Y.Y.Y.Y.Y.Y.Y.Y.Y.Y.Y.Y.Y.",
"Y.Y.Y.Y.Y.Y.Y.Y.Y.Y.Y.T.Y.T.I.I.U.t.5.7.7.7.7.7.G.T.I.Y.Y.Y.Y.Y.Y.Y.Y.T.Y.Y.Y.Y.Y.Y.Y.Y.Y.Y.Y.Y.Y.Y.",
"Y.Y.Y.Y.Y.Y.Y.Y.Y.Y.Y.T.Y.D.t.w.t.2.1.1.u u 9.y.s.g.g.K.I.Y.Y.Y.Y.T.Y.T.Y.Y.Y.Y.Y.Y.Y.Y.Y.Y.Y.Y.Y.Y.",
"Y.Y.Y.Y.Y.Y.Y.Y.Y.Y.Y.D.t.7.1.1.:.:.1.<.q Z M.8./.(./.K.K.K.Y.I.F.7.w.F.Y.Y.Y.Y.Y.Y.Y.Y.Y.Y.Y.Y.Y.Y.",
"Y.Y.Y.Y.Y.Y.Y.Y.T.I.p.,.y u e u <.1.1.9 <.Z.&XM.c.'.`.`.P.g.i.w.7.y f R.Y.Y.Y.Y.Y.Y.Y.Y.Y.Y.Y.Y.Y.Y.",
"Y.Y.Y.Y.Y.Y.Y.Y.I.D.t : : : : : y u y y 0.$X7X1XG {. X'.).W.u.r 6 k C k.T.Y.Y.Y.Y.Y.Y.Y.Y.Y.Y.Y.Y.Y.",
"Y.Y.Y.Y.Y.Y.Y.Y.I.r.r r r e 8 6 8 8 6 8.Z _ 1X&X&X[.'.].'.).H.f.g V m k.Y.Y.Y.Y.Y.Y.Y.Y.Y.Y.Y.Y.Y.Y.",
"Y.Y.Y.Y.Y.Y.Y.Y.Y.I.F.S.D.w.9 <.5.1.q 9.Z V C f 0.h.'. X'.`.P.L.j.C f D.I.Y.Y.Y.Y.Y.Y.Y.Y.Y.Y.Y.Y.Y.",
"Y.Y.Y.Y.Y.Y.Y.Y.Y.T.F.r.1.2.2.7.s.k.7./.k.d 3.8.d._.'.'.'.'.(.H.R.j.r p.Y.Y.Y.Y.Y.Y.Y.Y.Y.Y.Y.Y.Y.Y.",
"Y.Y.Y.Y.Y.Y.Y.Y.T.T.r.4.1.8.s.f.H.K.f.).(.7.w.k.}.@X@X+X}.).P.L.L.h.4.a.I.T.T.Y.Y.Y.Y.Y.Y.Y.Y.Y.Y.Y.",
"Y.Y.Y.Y.Y.Y.Y.T.U.r.,.2.7.s.H.H.H.H.J.W.K.f.(.|.|.b.c f 0.k.(.L.K.^./.h.F.I.Y.Y.Y.Y.Y.Y.Y.Y.Y.Y.Y.Y.",
"Y.Y.Y.Y.Y.Y.Y.T.t.4.1.1.5.w.8.8.w.h.H.H.L.H._.|.b.d M.-XZ.x.b.(.K.W.}.d.t.D.Y.Y.Y.Y.Y.Y.Y.Y.Y.Y.Y.Y.",
"Y.Y.Y.Y.Y.Y.Y.T.7.1.1.1.1.1.1.<.3.8.w.f.K.f.(.].9.c :XpXuXoXx t.W.(.c.i t r.Y.Y.Y.Y.Y.Y.Y.Y.Y.Y.Y.Y.",
"Y.Y.Y.Y.Y.Y.Y.r.4.1.1.u q q y e y <.2.u.H.K.P./.9.oXrXpXpX4X..A.s.c.B.a 2.D.Y.Y.Y.Y.Y.Y.Y.Y.Y.Y.Y.Y.",
"Y.Y.Y.Y.Y.Y.Y.:.1.i y 9 : : : : 5 i 3.e.H.L.H.g.d.-XyXsXpX4Xo.oXc a OXs i.T.Y.Y.Y.Y.Y.Y.Y.Y.Y.Y.Y.Y.",
"Y.Y.Y.Y.Y.Y.Y.1.<.q : : : , , 6 i 1.5.2.u.k.H.K._.0XyXsXsX4X& % D . F s i.U.Y.Y.Y.Y.Y.Y.Y.Y.Y.Y.Y.Y.",
"Y.Y.Y.Y.Y.Y.Y.i q : 4 1 1 8 4 i 5.u.a.5.3.y.f.k.k.C.,XsXsX:X& . % . z c.U.I.Y.Y.Y.Y.Y.Y.Y.Y.Y.Y.Y.Y.",
"Y.Y.Y.Y.Y.Y.Y.7 : < >.i.i.7.:.2.u.s.e.r p 1.8.q.S @.&XrXpX5X..& * z . n.W.Y.Y.Y.Y.Y.Y.Y.Y.Y.Y.Y.Y.Y.",
"Y.Y.Y.Y.Y.Y.Y.: 6.r.S.T.I.p.2.6.d.e.r : 6 y g V +.1X*.6X9X9X6X#.O.%   q.!.T.Y.Y.Y.Y.Y.Y.Y.Y.Y.Y.Y.Y.",
"Y.Y.Y.Y.Y.Y.Y.7.F.Y.Y.I.D.7.4.e.8.y : ; ; 4 h E &.;.;.;.2X2X;.&.O.* 6.F.Y.Y.Y.Y.Y.Y.Y.Y.Y.Y.Y.Y.Y.Y.",
"Y.Y.Y.Y.Y.Y.Y.Y.Y.Y.Y.Y.a.1.5.9.u 4 ; > , ; 3 b O.%.%.=.;.&.$.+.B m.Q.Y.Y.Y.Y.Y.Y.Y.Y.Y.Y.Y.Y.Y.Y.Y.",
"Y.Y.Y.Y.Y.Y.Y.I.Y.Y.Y.Y.p.1.<.y 4 ; , > ; : ; 2 s = E O.O.O.( M.x.!.Y.Y.Y.Y.Y.Y.Y.Y.Y.Y.Y.Y.Y.Y.Y.Y.",
"Y.Y.Y.Y.Y.Y.Y.Y.Y.Y.Y.Y.p.1.u 4 : ; > : 4 4 ; ; > - b E E = Z R.Y.~.Y.Y.Y.Y.Y.Y.Y.Y.Y.Y.Y.Y.Y.Y.Y.Y.",
"Y.Y.Y.Y.Y.Y.Y.Y.Y.Y.Y.I.p.<.y : , 5 1 8 y 0 ; > 4 p S ) _ ) C E.Y.Y.Y.Y.Y.Y.Y.Y.Y.Y.Y.Y.Y.Y.Y.Y.Y.Y.",
"Y.Y.Y.Y.Y.Y.Y.Y.Y.Y.Y.Y.p.u 4 , 8 r.:.y 5 : ; 4 <.q.;X1X-.$.V.!.Y.Y.Y.Y.Y.Y.Y.Y.Y.Y.Y.Y.Y.Y.Y.Y.Y.Y.",
"Y.Y.Y.Y.Y.Y.Y.Y.Y.Y.Y.I.a.y 4 e p.F.5.q : , > 5 u.[.,X8X2X=.=X!.Y.Y.Y.Y.Y.Y.Y.Y.Y.Y.Y.Y.Y.Y.Y.Y.Y.Y.",
"Y.Y.Y.Y.Y.Y.Y.Y.Y.Y.Y.Y.i.8 9 p.I.U.5.8 < > ; 5 2.c.>X7X;.-.=X~.Y.Y.Y.Y.Y.Y.Y.Y.Y.Y.Y.Y.Y.Y.Y.Y.Y.Y.",
"Y.Y.Y.Y.Y.Y.Y.Y.Y.Y.Y.Y.I.5.e I.I.F.:.8 >.i.,.4 9 9.$X-.-.=.=X~.Y.Y.Y.Y.Y.Y.Y.Y.Y.Y.Y.Y.Y.Y.Y.Y.Y.Y.",
"Y.Y.Y.Y.Y.Y.Y.Y.Y.Y.Y.Y.Y.S.r.Y.Y.F.e >.D.Y.S.7.e 2.] *.-.&.C.!.Y.Y.Y.Y.Y.Y.Y.Y.Y.Y.Y.Y.Y.Y.Y.Y.Y.Y.",
"Y.Y.Y.Y.Y.Y.Y.Y.Y.Y.Y.Y.Y.Y.Y.Y.I.I.r.S.Y.I.D.2.9 p n.] $.] N.I.Y.Y.Y.Y.Y.Y.Y.Y.Y.Y.Y.Y.Y.Y.Y.Y.Y.Y.",
"Y.Y.Y.Y.Y.Y.Y.Y.Y.Y.Y.Y.Y.Y.Y.Y.Y.Y.T.I.Y.S.,.1 , i i.N.S N.s.I.Y.Y.Y.Y.Y.Y.Y.Y.Y.Y.Y.Y.Y.Y.Y.Y.Y.Y.",
"Y.Y.Y.Y.Y.Y.Y.Y.Y.Y.Y.Y.Y.Y.Y.Y.Y.Y.Y.F.F.w.9 : : u u.s.y.d.g.U.U.T.T.Y.Y.Y.Y.Y.Y.Y.Y.Y.Y.Y.Y.Y.Y.Y.",
"Y.Y.Y.Y.Y.Y.Y.Y.Y.Y.Y.Y.Y.Y.Y.Y.Y.Y.I.,.>.u 4 ; : <.u.7.4.y.g.U.I.T.Y.Y.Y.Y.Y.Y.Y.Y.Y.Y.Y.Y.Y.Y.Y.Y.",
"Y.Y.Y.Y.Y.Y.Y.Y.Y.Y.Y.Y.Y.Y.Y.Y.I.:.e 4 8 8 : ; 4 9.f.f.t.y./.U.Y.Y.Y.Y.Y.Y.Y.Y.Y.Y.Y.Y.Y.Y.Y.Y.Y.Y.",
"Y.Y.Y.Y.Y.Y.Y.Y.Y.Y.Y.Y.Y.Y.Y.Y.Y.r.w.r.w.r.,.: 6 k.f.D.t.y.).U.Y.Y.Y.Y.Y.Y.Y.Y.Y.Y.Y.Y.Y.Y.Y.Y.Y.Y.",
"Y.Y.Y.Y.Y.Y.Y.Y.Y.Y.Y.Y.Y.Y.Y.Y.Y.Y.T.T.T.T.w.1 y /.W.G.w.9.(.!.Y.Y.Y.Y.Y.Y.Y.Y.Y.Y.Y.Y.Y.Y.Y.Y.Y.Y.",
"Y.Y.Y.Y.Y.Y.Y.Y.Y.Y.Y.Y.Y.Y.Y.Y.Y.Y.Y.I.f.9.r 9 6./.P.a.p :.^.U.T.Y.Y.Y.Y.Y.Y.Y.Y.Y.Y.Y.Y.Y.Y.Y.Y.Y.",
"Y.Y.Y.Y.Y.Y.Y.Y.Y.Y.Y.Y.Y.Y.Y.Y.Y.Y.T.U.x.s 2 9 y.t.c.B.c 7 c.}.Y.Y.Y.Y.Y.Y.Y.Y.Y.Y.Y.Y.Y.Y.Y.Y.Y.Y.",
"Y.Y.Y.Y.Y.Y.Y.Y.Y.Y.Y.Y.Y.Y.Y.Y.Y.Y.T.a.m.G C m.A.N.A %XoXZ OX0Xh.T.T.Y.Y.Y.Y.Y.Y.Y.Y.Y.Y.Y.Y.Y.Y.Y.",
"Y.Y.Y.Y.Y.Y.Y.Y.Y.Y.Y.Y.Y.Y.Y.Y.Y.T.U.f C #X>XeXqX:XF n ;XwX5X%Xg E.Y.Y.Y.Y.Y.Y.Y.Y.Y.Y.Y.Y.Y.Y.Y.Y.",
"Y.Y.Y.Y.Y.Y.Y.Y.Y.Y.Y.Y.Y.Y.Y.Y.Y.Y.T.g v m H H H b + h F X.H F g Q.Y.Q.Y.Y.Y.Y.Y.Y.Y.Y.Y.Y.Y.Y.Y.Y.",
"Y.Y.Y.Y.Y.Y.Y.Y.Y.Y.Y.Y.Y.Y.Y.Y.Y.Y.U.w n G %X>X:X+ X N .X*X$X` j k.Q.Q.Y.I.Y.Y.Y.Y.Y.Y.Y.Y.Y.Y.Y.Y.",
"Y.Y.Y.Y.Y.Y.Y.Y.Y.Y.Y.Y.Y.Y.Y.Y.Y.W.n.D #X,XtXtXaX3X^ O # I P U Q wXqX` z.Q.Y.I.Y.Y.Y.Y.Y.Y.Y.Y.Y.Y.",
"Y.Y.Y.Y.Y.Y.Y.Y.Y.Y.Y.Y.Y.Y.Y.Y.Q.M.n ] ] Q | &. ./ ] W K K o I <XiXaX! W l z.I.Y.Y.Y.Y.Y.Y.Y.Y.Y.Y.",
"Y.Y.Y.Y.Y.Y.Y.Y.Y.Y.Y.Y.Y.Y.Y.Y.!.m * M I K ~ | } Y U $ P K # ] :X,X' Y T ~ Q l Q.Y.Y.Y.Y.Y.Y.Y.Y.Y.",
"Y.Y.Y.Y.Y.Y.Y.Y.Y.Y.Y.Y.Y.Y.Y.Y.I.v.Z @ J J L ~ } R K o O J @ S %X#X@ J K R ~ ! l.!.Y.Y.Y.Y.Y.Y.Y.Y.",
"Y.Y.Y.Y.Y.Y.Y.Y.Y.Y.Y.Y.Y.Y.Y.Y.Y.F.N.M $ $ ' ' <X{ ^ + @ $ M C.#X#X` ^ ' [ XXXX` R.Y.Y.Y.Y.Y.Y.Y.Y.",
"Y.Y.Y.Y.Y.Y.Y.Y.Y.Y.Y.Y.Y.Y.Y.Y.Y.Y.Y.Y.Y.Y.Y.Y.Y.Y.Y.Y.Y.Y.Y.Y.T.T.Y.Y.Y.Y.Y.Y.Y.Y.Y.Y.Y.Y.Y.Y.Y.Y.",
"Y.Y.Y.Y.Y.Y.Y.Y.Y.Y.Y.Y.Y.Y.Y.Y.Y.Y.Y.Y.Y.Y.Y.Y.Y.Y.Y.Y.Y.Y.Y.Y.T.T.Y.Y.Y.Y.Y.Y.Y.Y.Y.Y.Y.Y.Y.Y.Y.Y."
};
