/* XPM */
static char *result[] = {
/* columns rows colors chars-per-pixel */
"50 50 239 2 ",
"   c #2A3932",
".  c #6F1717",
"X  c #641C20",
"o  c #563535",
"O  c #732F31",
"+  c #314D33",
"@  c #2C6B2D",
"#  c #565239",
"$  c #7F5F39",
"%  c #1C1E4E",
"&  c #0E1D55",
"*  c #0D1E5B",
"=  c #111D56",
"-  c #111D5B",
";  c #17204F",
":  c #0D2559",
">  c #13265B",
",  c #0E1E62",
"<  c #0F1D6C",
"1  c #121E62",
"2  c #0B1E71",
"3  c #0E2263",
"4  c #0E2668",
"5  c #132866",
"6  c #11226B",
"7  c #19366A",
"8  c #0D2B72",
"9  c #132474",
"0  c #13257B",
"q  c #162879",
"w  c #173475",
"e  c #293572",
"r  c #443E56",
"t  c #2E546C",
"y  c #304B73",
"u  c #4F4D4D",
"i  c #6C494D",
"p  c #75484C",
"a  c #706359",
"s  c #5C5869",
"d  c #464F74",
"f  c #6B5B70",
"g  c #58646D",
"h  c #686766",
"j  c #707070",
"k  c #78787A",
"l  c #8C0F13",
"z  c #9C1218",
"x  c #A91A21",
"c  c #8E2B30",
"v  c #B9262B",
"b  c #CF1D24",
"n  c #D02E36",
"m  c #816131",
"M  c #993E42",
"N  c #D83C43",
"B  c #E03C44",
"V  c #904C50",
"C  c #AF4954",
"Z  c #8C7048",
"A  c #A37852",
"S  c #875568",
"D  c #A65D63",
"F  c #966E6E",
"G  c #B1696E",
"H  c #E15257",
"J  c #D16D72",
"K  c #718E78",
"L  c #50A762",
"P  c #AD8A55",
"I  c #99956F",
"U  c #B5926A",
"Y  c #C2985B",
"T  c #C49961",
"R  c #D5A86A",
"E  c #CDA973",
"W  c #DCB473",
"Q  c #E2B87A",
"!  c #0F2E83",
"~  c #142A85",
"^  c #162886",
"/  c #142B8B",
"(  c #183986",
")  c #162C97",
"_  c #192D9B",
"`  c #1A3597",
"'  c #263784",
"]  c #273597",
"[  c #162EA2",
"{  c #1936A5",
"}  c #1B33AC",
"|  c #1C39B7",
" . c #1C36BC",
".. c #2739AA",
"X. c #243CB5",
"o. c #303FB1",
"O. c #194B8F",
"+. c #34578F",
"@. c #326492",
"#. c #356697",
"$. c #1C52A6",
"%. c #2D4EAF",
"&. c #1C64A2",
"*. c #3072B0",
"=. c #4A538D",
"-. c #605F84",
";. c #4D6E8E",
":. c #74758E",
">. c #4F6FA7",
",. c #1C37C4",
"<. c #1D39C8",
"1. c #223AC8",
"2. c #2848CB",
"3. c #2A49D7",
"4. c #3056D2",
"5. c #3071CA",
"6. c #2D4DE1",
"7. c #365AE8",
"8. c #3F61E0",
"9. c #4A5DC5",
"0. c #4874CF",
"q. c #4265EA",
"w. c #4A70ED",
"e. c #836F8D",
"r. c #DC7E85",
"t. c #3482BC",
"y. c #588397",
"u. c #769295",
"i. c #5887A6",
"p. c #4E8DB6",
"a. c #5789B3",
"s. c #708EAA",
"d. c #7AA1B9",
"f. c #2988C7",
"g. c #378BC9",
"h. c #3691CD",
"j. c #298FD1",
"k. c #2B91D5",
"l. c #2C95DA",
"z. c #2E98DE",
"x. c #3899D7",
"c. c #349ADD",
"v. c #2D99E0",
"b. c #339DE3",
"n. c #3AA2E6",
"m. c #33A3EC",
"M. c #39A5EB",
"N. c #36A7F0",
"B. c #35AAF6",
"V. c #3CACF5",
"C. c #4E91CD",
"Z. c #5699C8",
"A. c #429DD8",
"S. c #6598C6",
"D. c #619FD8",
"F. c #5BA4CC",
"G. c #4BA4DD",
"H. c #55A5D7",
"J. c #6EADD4",
"K. c #78B3D4",
"L. c #6988F0",
"P. c #47A9E8",
"I. c #54ACE4",
"U. c #5CAEE1",
"Y. c #53B2EE",
"T. c #5BB4EB",
"R. c #42AFF5",
"E. c #4BAFF1",
"W. c #45B1F6",
"Q. c #4CB4F5",
"!. c #53B6F5",
"~. c #5AB6F2",
"^. c #56B8F6",
"/. c #5BBAF6",
"(. c #6AB7E6",
"). c #66BAED",
"_. c #6ABDEE",
"`. c #79BDE6",
"'. c #63BDF5",
"]. c #6ABEF2",
"[. c #77C2EC",
"{. c #7DC5ED",
"}. c #66C0F7",
"|. c #6CC2F6",
" X c #74C5F6",
".X c #7BC6F3",
"XX c #7DC9F6",
"oX c #73C5F8",
"OX c #7AC9F8",
"+X c #898687",
"@X c #86968C",
"#X c #918F96",
"$X c #AE958C",
"%X c #9E9BAA",
"&X c #95AEB0",
"*X c #ACB0B1",
"=X c #D8BC8E",
"-X c #E3A486",
";X c #C7AEAF",
":X c #97C99E",
">X c #9BCFA0",
",X c #B4C6B6",
"<X c #CEC394",
"1X c #E7C487",
"2X c #F5D299",
"3X c #ECD6B2",
"4X c #8EB6C9",
"5X c #A1AAC6",
"6X c #C2BEC0",
"7X c #92C3D9",
"8X c #A6C9D7",
"9X c #BCC2D1",
"0X c #B9D9DE",
"qX c #87C5E5",
"wX c #83C6EB",
"eX c #85C8ED",
"rX c #8ACAEC",
"tX c #98CCE6",
"yX c #92CEEC",
"uX c #96D0EE",
"iX c #9BD2EE",
"pX c #80C7F0",
"aX c #83CBF4",
"sX c #8BCEF2",
"dX c #90CFF1",
"fX c #94D1F1",
"gX c #98D2F0",
"hX c #A1CEE2",
"jX c #A3D5EC",
"kX c #AAD7EA",
"lX c #ADD8EA",
"zX c #B6DBE7",
"xX c #BDDDE5",
"cX c #B1D9E8",
"vX c #C4C6C9",
"bX c #D0CBCC",
"nX c #DDDDDB",
"mX c #E7CACD",
"MX c #DDDEE1",
/* pixels */
"W.|.M./.jXaXxXxXlX|.V.^.iXuXiXxXzXcX'. X!.V.'.V.V.Q.].M./.iXaXxXxXkX}.V.!.iXiXiXxXzXcX'. X!.V./.V.W.",
"Q.).h.'.'.'.xXxXxXiX/./.fXuXgXlXiXsXaXlXeXR.m.N./.!._.h.'.].'.xXxXzXiX/./.uXiXiXcXgXsXaXlXaXW.m.V./.",
"|.|.V.B.Q..XMXcXxXyX/.aXsXrX{.'.tX>.+.>.%.$.O.&.n.^.'.N.V.Q..XMXMXcXyX/.aXsXkXuXoXjXcXjXkXaXR.j.m.W.",
"n.^.V.!.}.I.xXcXlXjXaXiXzX7Xi.*.*.~ ^ ^ 0 0 _ { *.5.5.c.Q.}.G.cXzXkXjXsXiXzXlXiX~.eXsXW.}..XW.B.Q. X",
"f.N.!.OX[.F.zXiXaXgXuXK.a.>.( ~ ~ q / 0 6 d =...2.2.<.4.g.Z.F.zXqXp.i.qXgXkXsXiX[.}.|.W.|.OXn.E.}.OX",
"/.W.oX XiXeXuXsXsXiXJ.@.2 0 9 0 ^ ~ ~ < ~ e.$X-.%.7.6.6.1.4.Z.a.>.w y K.iXcXzXMXaX XQ.B.}.}.h.}.^.aX",
"uXQ.}.W.OX|.Y.uXOXK.t : : * * * 9 9 9 9 ' #X1X<X-.0.q.7.6.1.{ 0 7 r a 8XiXkXcXkX|.|.P.l.Y.b.M.{.aXzX",
"sX/.|.W.OX X/.|.}.s.@.@.d y 5 1 4 4 , _ d A -X$X$X9.q.q.7.3.<.| e a h 4XkXxXgXsXsXsXH.f.m.k.E.uXsXzX",
"uX}. X/.oX/././.^.[.8X8X4Xa.w ^ / ^ 6 _ =.a s e ' | 6.w.q.6.<.<...s y 4XxXlXgXiXiXcXsX'.c.m.!.OXfXiX",
"XX.XrXH.Y.c.^.Y.G.).8Xa.( ( / [  .X.[ 2...e ^ _ | 7.7.q.7.6.3.<.1...' 4XiX{.aXsXXXdXsXOXA.E./.dXiXiX",
"iXjXhXc.m.x.aXqXP./.p.O.~ ) |  .,.<.,.3.1.[ [ X.q.L.L.L.7.6.<.<.,.| O.J.sXpX^.].!./.OXgX}.^.OXlXkXxX",
"uXaXsXY.l.Q.kXkXT.*.` ^ )  .,. .,.,.<.1.<. .3.w.w.%.y e ' X.3.<.,.<.3.%.K.].^.^.^. X/.eX}./.OXcXxXxX",
"jXiXaXeXc.W.[.rX*.O.~ ! ) [ _ _ [ ,.,.,.,.,.3.w.%.q ;.%X:.+.X.3.,.<.q.| &.G.W.V.Q.|.Q.aX|.OXiXxXxXxX",
"xXxXlXkX/.B.Q.XX%.^ ~ ~ ^ ^ ~ ~ ^ ) [  .,.,.3.8.` y %XnXbXs.y ` 1.3.%.0 w t.'.Q.B.W.V.iXdXOXlXiXgXxX",
"xXxXxXsX!.}.}.t.O.^ ~ 9 2 6 9 2 2 ^ / } ,.,.1.2._ :.vXnXMX>XL >...o.;.7 #.U.fX!.!.x.b.OXXXiXuXjXkXfX",
"xXxXxXiX|.|.^.! ~ 0 9 6 * * * * < ^ ^ [ ,.<.<.,. .&XbXMXMX>XL u.e q #Xe g.E.|.!.{.I.m.eXlXxXsXlXfXXX",
"xXzXsXfXiX(.j.~ 0 6 * : - * : 3 0 / / ) }  .,.<.6.5XbXMXMX>X@   g   s y *.B./.Q.|.!./.aXlXiXkXuXOXOX",
"zXfXkXkXsX_.m.( 4 * 4 7 4 4 4 0 / } } ) / }  . .o.-.;XMXMX:X@   +   u a.P.B.~.G.K.XXQ.uXxXcXzXXX^.oX",
"'.iXuXzXcXkXwX4 : : @.p.t.*.8 ) } ,.[ ! 9 ^ _ ] -.U #X6XnX,XK @ # + + y.I.B.V.m.qXuX XkXxXxXzXXXV.W.",
"W.aXXXfXzXsX.X> *.Z.U.Q.j.f.` ) } [ 2 * < 0 r a U 1XE <X3X3X<XI P + + i.Y.l.f.l.|.iXsXlXxXuXsX.Xh.B.",
"|.oXaXlXxXcXiX*.H.OXOXG.5.&./ { [ 2 & & & < r Z R Q Q Q 1X1XQ W P # i.(.G.k.n.Q.uXuXaXlXuXaXjXlX[.V.",
"W.W.~.zXxXlX X^.oXXX/.M.f.^ / _ ^ , & - - & % # A Y T R Q R Y P Z u.[.^.M.Q.!.W.|.aXiXaXjXlXdXkXOXV.",
" X|.!.zXlXaXsXuXsXrXc.l.C.! ^ 0 , & - & & & & = r i m P P P P u.u.rXeXc.l.'. X}.OXjXiX/.OXOXOXaX XV.",
"rXiX!.kXsXsXjXaXfXqXm.E.Z.~ 0 , & & - & , , & & : % # m m $ K 7X.XuXqXm.E.sX.X}.iXxXxXXX|.!.|.OX|.f.",
"kXiXQ.aXcXkXsXfXjXU.k.V.C.! 9 * = y > 4 9 3 = = > q f A A A I [.uXjXU.k.V.|.XXXXlXxXxX).W./.W.|.E.m.",
"Q.|.M.~.jXeXzXxXlX|.N.!.Z.w 4 > 7 d.O.9 6 - & 1 ~ ] %X=XW Y @X8XxXlX}.N.!.uXgXjXxXzXcX/. X!.V./.V.V.",
"Q.).h.}.}.}.xXxXxXiX/./.S.q 5 y K.K.+.9 * - = < { 9.6X2X1XR *X0XxXxXgX^./.uXiXiXcXiXsXaXkXaXW.M.V./.",
"}.|.N.V.!.XXxXxXxXyX/.OXS.5 7 H.tX8X#.3 : > : 6 / %.%X1XW W ,X0XxXxXuX/.XXsXkXgXOXiXlXkXkXaXV.j.M.W.",
"n.~.V.Q.'.I.xXxXlXiXaXgX8Xy.t T.eXqXO.> #.h.&.> 4 ] #X=XW W :XbXzXlXjXsXiXzXlXuX/.wXsXQ.|.OXW.B.W. X",
"f.n.W.aX[.Z.cXzXsXdXjXgXiX7Xd.}.~.(.O.#.H.V.c.*.w ^ F T W R @X0XlXsXsXiXiXiXdXcX}.~.OX!.|.}.V.V.|.OX",
"{.h.Y.iXiX.X.XxXiXaXjXjXiXxXxX|.V.T.t.(.W.B.x.#.7 q =.F U F i.{.xXiXaXjXiXiXxXxX|.V./.}.OXW.B.Q.OXsX",
"iXQ.|.W.OX}.!.iXOXfXzXiXlXxXzX|.|.P.z.T.b.l.@.: * ~  .=.f =.*.Y.gXOXfXzXiXkXcXlX|.}.P.z.~.n.N.XXaXcX",
"eX/.|.W.OX|./. X}.gXlXkXxXcXiXaXsXH.t.k.f.&.8 : : 9 } | ..| 5.E.].].fXlXuXxXgXsXXXsXH.f.b.j.P.uXsXcX",
"iX|. X/.|.}.}./.!.aXxXxXcXiXiXiXcXyX!.&.O.w > ; = ^ } [ / } *.~.'.^.oXMXMXcXiXiXiXlXdX/.n.m.^. XfXjX",
"OX[.eXU.Y.c.!.Y.P.).cXjXaXaXsXaXyX@.t 7 4 7 : : , [ X.0.&.{ 5.E.Y.P.'.cXjXpXaXsXaXuXsXOXx.E.^.sXjXgX",
"uXkXhXl.m.x.aX{.G.~.dXsX.X}.OX!./.Z.p.p.t.p.#.> , X.%.S.&.$.8.aXqXA./.sXsX X^.oX!.}.OXsX}./.OXlXjXxX",
"iXaXdXY.l.Q.kXkX}.T.iXiX.X^.^.^.|.}.sX}./.XXs.> 9 2.0.`.*.` 5.iXjX'./.iXiX.X^.^.^.|.}.sX}./. XlXxXxX",
"iXuXaXeXl.W..XfX}.}.lXsX^.Q.W.Q.|.Q.{.|.F.i.@.6 ] 2.D.J.@.! 5.`.dX'._.cXsX^.W.R.Q.|.Q.wX}..XuXxXxXxX",
"xXxXlXkX~.B.W.OXT.H.XX}.|.eX'.B.W.V.tXXXi.r ; 1 { | a.u.r < %.(.OXT.H..X].|./.W.B.Q.V.iXsXXXlXjXiXzX",
"xXxXzXsX^./.}.oXP.n.!./..XcX|.Q.x.m.{.J.u.j s =.>.=.g #Xu.=.s.8XF.P.b.^.^.OXsX^.Q.x.m.XXaXiXiXiXjXiX",
"xXxXxXuX|. X/.}.B.W./.W.Q.{.'..XI.m.qXy.g K *X9X9X&Xh u #XvX6X#X;.b.W.~.R.!.].!..XI.N.eXjXxXsXlXiXOX",
"xXxXfXgXiX).j.M.k.Q.I.l.B./.!.|.!.!.eXj # s k k k u o r h K :.j d f.Q.I.v.B./.!.|.!.!.sXcXiXiXfXXXOX",
"fXlXOXXXuXtXH.f.m./.qXP.Q.|.!./.!.}.yXu u j #X*X%Xo X i +X%X#Xa i g.).qXP.Q.^.R.}.!.}.iXxXlXxX/.|.!.",
"^.lXsXlXlXxXqXm.W. XsX/.V.}.!.eXXX(.u.h +X*XbXbX3X;XV X O c c v C vXvXG S.P.P.B.{.{.oXlXxXxXxXOXQ.B.",
"W.XXXXuXlXsX XW. XOXOX/.z.c.V.|.iXu.a I G C J r.J C F c z z . c $XnXmXN C f =.x.|.jXsXkXxXuXsX.Xh.m.",
"}.OXaXlXxXlXiX}./.OXOXG.k.m.!.uXyXa # p c z B H B n c p c z O S *X;XD v b B C e.tXuXeXkXuXXXjXjX(.V.",
"!.|.'.zXxXxXlXOXaXiX'.M.).}./.jXcX&Xg O l l v N H n x . . l O a #X+XO l z v N N #X8XlX}.uXsXsXaXOXV.",
"|.|.~.cXlXsXuXiXuXrXc.k.}.'./.sXlXqXy.i O M C D -XJ c o o O i k +X+XS V D J $Xr.D 8XiXQ. XOXOXOX XN.",
"sXiX!.kXsXsXjXaXgXwXm.E.sXaX XiXxXzX.X X!.|.OX}.h.wXiXY.kXsXsXjXaXdXeXm.Q.sX X'.uXzXzX.XoX!.|.OX}.f.",
"kXjXQ.eXlXkXsXdXjXU.l.V.|.}.}.kXxXxX/.Q.'.Q.|.Q.M.tXjXQ.aXcXjXsXdXjXU.l.V.].XXXXiXMXxX'.W./.!.|.Q.M."
};
