/* XPM */
static char *result[] = {
/* columns rows colors chars-per-pixel */
"50 50 233 2 ",
"   c #2B3830",
".  c #6F1717",
"X  c #641C20",
"o  c #563535",
"O  c #732F31",
"+  c #2F4935",
"@  c #2C6B2D",
"#  c #555437",
"$  c #70583A",
"%  c #1C1E4E",
"&  c #0E1D55",
"*  c #0D1E5B",
"=  c #111D56",
"-  c #111D5B",
";  c #0E2356",
":  c #13265B",
">  c #282B4B",
",  c #0E1E62",
"<  c #0F1D6D",
"1  c #121E64",
"2  c #0D1E70",
"3  c #0E2165",
"4  c #132865",
"5  c #11236C",
"6  c #173365",
"7  c #0E287C",
"8  c #122574",
"9  c #13257B",
"0  c #162879",
"q  c #1A3575",
"w  c #283673",
"e  c #443E56",
"r  c #264764",
"t  c #324B72",
"y  c #504E4D",
"u  c #6C4C47",
"i  c #75484C",
"p  c #746458",
"a  c #5D5869",
"s  c #494773",
"d  c #675B72",
"f  c #5A636F",
"g  c #6E6A6B",
"h  c #777779",
"j  c #8C0F13",
"k  c #9D1218",
"l  c #8E2B30",
"z  c #B12026",
"x  c #D01E23",
"c  c #D02E36",
"v  c #816131",
"b  c #993E42",
"n  c #D83C43",
"m  c #E23D44",
"M  c #914D51",
"N  c #B54F54",
"B  c #8B714A",
"V  c #A37852",
"C  c #865D66",
"Z  c #A65D63",
"A  c #96706D",
"S  c #B06669",
"D  c #D34B4C",
"F  c #E9575C",
"G  c #CD6E6F",
"H  c #6B8978",
"J  c #50A762",
"K  c #AE8A55",
"L  c #8F887D",
"P  c #B2956F",
"I  c #A8A760",
"U  c #C2975B",
"Y  c #C49268",
"T  c #D4A76A",
"R  c #CDAA75",
"E  c #DDB473",
"W  c #E2B87A",
"Q  c #0F2D85",
"!  c #142A85",
"~  c #172986",
"^  c #142B8B",
"/  c #183689",
"(  c #172C99",
")  c #1B3597",
"_  c #27368A",
"`  c #162EA2",
"'  c #1A35A8",
"]  c #1C39B7",
"[  c #1C36BC",
"{  c #2839AA",
"}  c #243BB5",
"|  c #303FB1",
" . c #1E4A99",
".. c #2A5384",
"X. c #2C4F90",
"o. c #3B6896",
"O. c #1E51A7",
"+. c #294DB1",
"@. c #2867A9",
"#. c #2F70B3",
"$. c #4B518C",
"%. c #605F84",
"&. c #54728E",
"*. c #456897",
"=. c #74758E",
"-. c #4F74AC",
";. c #1C37C4",
":. c #1D39C8",
">. c #223AC8",
",. c #2848CB",
"<. c #2A49D7",
"1. c #3155D0",
"2. c #3270C7",
"3. c #2D4DE1",
"4. c #365AE8",
"5. c #3F61E0",
"6. c #4A5DC5",
"7. c #4F6FC9",
"8. c #4265EA",
"9. c #4A70ED",
"0. c #807997",
"q. c #DD7E85",
"w. c #708A92",
"e. c #5687B1",
"r. c #7090AB",
"t. c #7DA3B9",
"y. c #378DDA",
"u. c #3C96E4",
"i. c #3A9BEF",
"p. c #4988CB",
"a. c #5799CB",
"s. c #549BD6",
"d. c #698DC9",
"f. c #77ADD4",
"g. c #419FEF",
"h. c #6F8BF1",
"j. c #45A1EF",
"k. c #49A3EF",
"l. c #53A8EE",
"z. c #46A1F0",
"x. c #4BA4F0",
"c. c #51A7F0",
"v. c #55AAF1",
"b. c #5CADF1",
"n. c #65AFED",
"m. c #6BB3EC",
"M. c #76B7E8",
"N. c #75BAEE",
"B. c #7CBDEE",
"V. c #64B2F2",
"C. c #6CB6F2",
"Z. c #70B7F0",
"A. c #74BAF2",
"S. c #7BBDF1",
"D. c #7EC0F4",
"F. c #898888",
"G. c #86938C",
"H. c #909095",
"J. c #AE958C",
"K. c #ABA399",
"L. c #8C97AA",
"P. c #93A2AB",
"I. c #98ADB1",
"U. c #B0B0B0",
"Y. c #D89089",
"T. c #D9B490",
"R. c #E9BF81",
"E. c #F3BE9C",
"W. c #CDB7AC",
"Q. c #E3BBA3",
"!. c #9BCFA0",
"~. c #B7C5B1",
"^. c #CEC394",
"/. c #E7C487",
"(. c #F3C09E",
"). c #F5D299",
"_. c #DFC7B8",
"`. c #F4C4A3",
"'. c #F4C7A8",
"]. c #F5CAAC",
"[. c #E9C8B0",
"{. c #F6CEB2",
"}. c #EDD4B7",
"|. c #F6D1B6",
" X c #F7D4BC",
".X c #F8D6BE",
"XX c #92B2C9",
"oX c #88B8D6",
"OX c #A1AAC6",
"+X c #82BFEB",
"@X c #C2BEC0",
"#X c #91C1DF",
"$X c #AFCAD3",
"%X c #8FC4E6",
"&X c #84C1EE",
"*X c #8BC4ED",
"=X c #96C8E8",
"-X c #94CAEE",
";X c #9CCDED",
":X c #83C2F2",
">X c #8BC6F1",
",X c #8FC8F1",
"<X c #92C9F0",
"1X c #A4CEE3",
"2X c #A1CFEB",
"3X c #A9D2E7",
"4X c #A3D1EB",
"5X c #ACD5E9",
"6X c #B3D6E6",
"7X c #B7D7E5",
"8X c #B4D9E7",
"9X c #BCDCE5",
"0X c #B1D7E8",
"qX c #C7C9CA",
"wX c #D0CFCF",
"eX c #DBDCD9",
"rX c #E7CACD",
"tX c #EEDECC",
"yX c #F6D7C0",
"uX c #F3D9C4",
"iX c #F0DDC9",
"pX c #CFE1DF",
"aX c #D3E2DE",
"sX c #DCE4DC",
"dX c #EDE0CF",
"fX c #EAE3D4",
"gX c #E3E5DB",
"hX c #E8E6D9",
"jX c #C4DEE3",
"kX c #CADFE1",
"lX c #DDDEE1",
"zX c #CDE0E0",
"xX c #D0E1E0",
/* pixels */
"i.i.i.i.i.i.i.i.i.i.i.i.i.i.i.i.i.i.i.i.i.i.i.i.i.i.i.i.i.i.i.i.i.i.i.i.i.i.i.i.i.i.i.i.i.i.i.i.i.i.",
"i.i.i.i.i.i.i.i.i.i.i.i.i.i.i.i.i.i.i.i.i.i.i.i.i.i.i.i.i.i.i.i.i.i.i.i.i.i.i.i.i.i.i.i.i.i.i.i.i.i.",
"j.i.j.j.i.j.i.z.g.g.g.g.j.j.u.u.u.@. .O. .O.O.O.y.i.i.i.z.g.i.i.g.g.g.g.g.j.g.g.g.z.z.z.g.g.g.g.z.i.",
"V.j.V.V.z.b.x.V.v.l.v.v.D.u.@.#.O./ / 7 8 7 ) ' #.2.2.s.V.c.c.c.b.b.c.x.c.b.b.v.x.v.b.C.x.b.z.b.V.z.",
"c.x.z.x.j.z.j.z.j.k.j.y.#.O.Q ^ Q Q ^ 9 5 s %.( ,.<.:.,.2.y.g.z.g.@.@.u.g.z.z.x.z.z.x.c.z.z.z.z.z.g.",
"V.b.x.C.v.b.x.b.v.C.a. .8 0 8 8 ! Q ^ 5 ^ =.J.%.+.5.3.3.:.,.y.#.@.6 t a.c.b.b.C.C.b.V.A.v.b.V.c.V.b.",
"c.j.b.A.b.c.c.b.b.a...; * * * * 8 7 8 8 _ H.R.^.d 7.8.4.3.>.{ 7 6 s g a.c.v.b.V.S.C.v.C.V.b.j.x.C.A.",
"<XB.,XD.b.C.D.b.l.p.......t 3 1 3 3 * ) s K Y.K.K.6.8.8.4.<.;.] w p a a.A.V.b.V.A.A.S.<X;X<X+X>X:XV.",
"zXzXzX4X*XC.A.V.A.m.f.f.f.r.q ! ~ ~ < ( $.p a w / ] 3.9.8.3.:.:.{ a t a.m.C.C.A.:X+X>X5XjXkXkXkX0X5X",
"gXgXgXsXjX3X-XS.+X3X3Xe./ / ! ( ] >.` ,.{ w ~ ( +.3.5.4.4.3.<.:.>.{ _ XX;XS.+X4X8X0X<X2X6XkXsXgXxXgX",
"7XkXzXzXaXsX9X*XC.:Xe._ ! ( ] [ ;.;.[ <.>.` ` } 8.h.h.h.8.<.:.:.>.[ X.I.jX-XN.:X;X<X:X>X>X;XjXsXhXhX",
">X5X4X4X7X6XjX0X%Xe.) ^ ( [ ;.[ ;.;.:.>.:.;.1.9.9.+._ w _ } <.:.;.:.,.1.XX0X;X+X>X>X:X:X<X;X7XsXgXgX",
":X2X2X;X0X<X4X3Xe. .Q ! ( ` ( ` ` [ ;.;.:.;.3.9.+.0 $.L.=.X.| ,.>.>.8.+.X.oX7X*X:X:XD.,X;X8XkXaXlXjX",
">X0XkXjXkX7X7X7X*.~ ! ~ ! ! ! ! ^ ( ` [ ;.;.>.8.) t I.lXwXr.r ` >.>.{ ~ / r.jX6X-XZ.C.>X4X8X9X0X0X4X",
"5XkXlXkXkXlXsXr.X.~ ~ 9 < < 5 8 2 ~ ^ ' ;.;.>.<.) =._.zXhX!.J -.' | *.6 &.$XsXsXjX-XS.:X-X;X;X<X;X4X",
"jXjX5X5X2X7XkX! ~ 9 2 1 * * * * < ~ ^ ` ;.:.;.:.} L.wXgXsX!.J r.w w H.t I.eXsXgXgX0X;X>X;X<X2X5X5X8X",
"9X8X5X;X;X2XzX~ 0 < : , - ; - 1 9 ^ ( ^ ' >.[ :.3.XXwXlXlX!.@ + f   d r XX9XaXsXsX7X-X>X4X8X8X8X9X9X",
"0X;X0X4X,X<X9X/ 5 1 : : 6 4 3 9 ^ ' [ ( ^ ' [ } | %.U.fXeXI.@   +   y e.1XjXkXsXsX8X2X;X5X8X8X4X0X8X",
";X2X4X5X,X;X9X4 : : &.t.t.e./ / ` ;.` 2 8 ~ ` _ %.P J.$XxX~.J @ # @ + w.$XjXpXaXaX7X8X5X8X8X;X;X;X0X",
"0X2X8X9X8X8X9X; w.P.$X0X3Xt./ ( [ ` 2 , 4 8 w p P R.Y.^. X[.T.I K + + w.6XjXpXpXzX0X5X5X8X4X-X-X5X9X",
"5X8X9X9X9X5X5Xr.$XjX9X8X#X*./ ' ( 9 * & * , e B T W W W /.R.W E K $ w.1X3X8XjXjX9X8X9X0X3X4X5X8X9X9X",
"D.-X3X;X;X:XA.*X;X=X1X;Xd.Q ^ ) 9 , & = - = > o K U Y T W T U K v w.4X*XD.&X1X1X2X2X;X&XD.D.*X1X2X4X",
"b.m.*XN.-XA.n.N.B.Z.Z.Z.p.^ ! 8 , & = = & & & % e u v K U K B w.r.M.&XN.m.m.D.m.N.Z.V.m.D.Z.n.&XN.,X",
"D.D.&XD.*XC.S.N.B.:XC.C.p.! 0 , * * = * , , * & & % y v v v H f.M.&X*XD.N.D.M.D.A.C.C.&X%XD.D.D.:X<X",
">XD.m.-X*XZ.&XV.D.D.M.m.p.q 8 , : 6 : 3 8 3 & = , 0 d V V V H oXN.D.%XD.D.n.N.D.D.N.A.&XB.&X:XZ.&X;X",
"-XC.D.*X-X:X&XC.*XD.D.D.p.7 3 * 6 p...8 5 - & - 9 { P.R.T U G.M.N.*X*X,X&XN.&XD.D.D.V.&X&X,XD.N.&X-X",
"-XZ.&XN.;X%XD.D.>XD.D.D.p.8 : r a.M.X.8 - - ; 5 ` 6.@X).R.T U.%XD.D.,X-XD.D.&XD.D.M.V.D.-X;XS.D.N.-X",
";X-XD.%X0X=XD.D.,X%XD.>Xa.3 w f.%XM.o.3 ; : ; 4 ^ +.U.T.E E ~.=X*X&X2X;X*XD.*X*X,X%XD.>X;X2X;X*X:X4X",
"2X4XD.4X3X,X&XD.;X-X,X,XM.e.t -X1XM...4 o.d.o.: < _ H.E E E ~.$X>X,X4X;X>X:X-X<X-X,X:X<X,X<X5X&X,X0X",
"2X5X:X5X2X;X2X;X4X2X,X2X=XoXt.;X3XoXt *.oX;XoXe.w 0 0.R E T K.1X;X4X5X;X;X;X4X2X<X;X4X5X;X<X5X<X4X3X",
"4X;X>X;X4X4X2X-X-X4X-X0X8X4X;X2X=X*Xr.%X2X2Xf.*.6 9 s A U L w.%X,X-X4X4X4X-X-X2X;X5X8X4X2X2X2X,X-X2X",
"-X;X4X-X5X4X0X;X-X4X0X3X;X,X-X;X;X;X-X4X3XXXo., - ~ ] $.d $.2.%X;X-X4X5X5X;X-X;X5X5X4X<X-X-X;X4X-X4X",
",X4X8X4X;X2X5X8X5X0X9X8X5X4X4X,X;X8X3X#XoXe.4 3 - 0 ' ] { ] -.%X5X5X2X;X4X8X5X5X8X8X5X5X4X;X-X0X5X4X",
"5X5X9X9X5X0X0X9X9X9X9XzXzXzX9X0X0X9X7X&...q 1 & ; ~ ' ( / ` 7.=X8X9X8X5X8X9X9XzXzX9XzXzX9X8X5X8XjX0X",
"sXzXzXxXzXaXzXaXzXpXsXpXpXaXpXpXkX&.t 6 6 6 : = 1 ` } d.-.{ d.7XjXaXzXpXpXpXkXpXaXaXzXaXxXaXzXzXxXxX",
"gXsXsXgXsXgXsXhXsXsXgXgXsXgXgXsXgXI.P.L.P.P.&.; 1 } } OXr.' d.eXsXgXsXgXgXgXsXsXgXgXsXgXgXgXsXaXgXgX",
"hXhXfXfXfXfXfXhXfXhXhXfXhXhXfXfXhXfXfXfXfXhXL.: 8 1.7.wXH.) d.fXhXfXfXfXfXhXfXhXhXfXfXfXhXfXhXfXfXhX",
"dXfXiXdXdXuXdXfXtXfXfXdXuXdXiXiXfXtXtXtXU.H.f 4 _ ,.XXW.f Q 7.eXtXiXdXiXdXdXtXfXfXdXuXtXtXiXfXtXiXdX",
"dXdX.XiXuX.XdXtX.XuXiX.XuXuX.XiXtXuXiXtXG.e : 3 ` } r.G.s 8 -.eXuXuXuXuXiXdXuXuXiX.XuXuX.XiXtXuXuXuX",
".XuX.XuX.X.XuX.X.XuXuX.XuXuX.X.XyXyXyX^.G.g a $.-.$.d F.w.s =.$XU.|..X.X.X.X XuXuX.XuXuX.X.XuX.XyXyX",
".X.X.X.X.X.X.X.X.X.X.X.X.X.X.X.X.X.X Xh a F.U.qX$XI.a y H.qX@XH.g _..XyX.X.X.X.X.X.X.X.X.X.X.X.X.X.X",
".X.X.X.X.X|.|..X.X.X X{.{.}..X.X.X.X}.g # a g 0.A y o e g H =.g p [..X|.|. X.X X.X X{.|. X.X.X.X.X.X",
"].{..X.X.X|.|..X.X|.{.].'.]. X{.{.|.}.y y h G.I.P.o X i F.K.H.C M _.[.[.}.|. X|. X].`.].|.|.{.}..XyX",
"].{..X|.{..X|.|.{.{.].].(.].|.{.].[.L g F.U.qXrXrXW.i X l O l z N _.wXG T.[.{.[.].].(.].|.{.{.|.|.{.",
"|.'.{. X{.|.'.'.'.|.].].'.|. X|.].P p L S N F Y.G Z A b k k . l Y.lXrXD D N Y.}.{.].`.|.|.|.{.].|.{.",
" X].].|.'.'.].].{. X X].].{.|. X].B # u l k m F m x b O l k O C U.U.Z z x m F G |.].].].|. X|.].|.].",
"yX|..X{.E.`..X X{.].].].'.].`.|.|.K.g O . j z n F c k . . j O p F.0.O j k z n D Y Q.].'.`.{. X X.X`.",
"'.'. X|.).{.|.].|.].{.{.].].].].'.[.0.i O M M N Y.G M X o O i h F.F.C M Z S q.q.S Q.].].].].`.|.|.`.",
"{.{.|.`.E.'.'.].{.|..X|.'.`.{.{.{.|.'.(.`.'.].{.|..X|.'.`.{.{.{.|.].(.`.'.'.{.|..X|.].`.].{.{.|.].(.",
"'.|.|.`.].'.(.(.(.{.{.(.(.(.(.'.|.|.`.'.'.(.(.(.].{.'.(.E.(.'.{.|.'.].'.`.E.`.].].'.(.E.(.'.{.|.`.]."
};
