/* XPM */
static char *result[] = {
/* columns rows colors chars-per-pixel */
"50 50 229 2 ",
"   c #2C3830",
".  c #6F1717",
"X  c #641C20",
"o  c #563535",
"O  c #732F31",
"+  c #304935",
"@  c #2C6B2D",
"#  c #545338",
"$  c #60513A",
"%  c #0E1D55",
"&  c #0D1E5B",
"*  c #111D56",
"=  c #111D5B",
"-  c #17204F",
";  c #0D255A",
":  c #12245A",
">  c #282B4B",
",  c #0E1E62",
"<  c #0F1D6D",
"1  c #121E64",
"2  c #0C1E71",
"3  c #0E2163",
"4  c #132965",
"5  c #11226C",
"6  c #17356A",
"7  c #0E2A72",
"8  c #132574",
"9  c #13257B",
"0  c #16297B",
"q  c #1B3675",
"w  c #293474",
"e  c #443E56",
"r  c #344257",
"t  c #164976",
"y  c #324A6E",
"u  c #504E4D",
"i  c #6B4C48",
"p  c #75484C",
"a  c #5B5769",
"s  c #4A4773",
"d  c #6B5B70",
"f  c #546572",
"g  c #656665",
"h  c #727171",
"j  c #78787A",
"k  c #8C0F13",
"l  c #9C1218",
"z  c #A91A21",
"x  c #8E2B30",
"c  c #B9262B",
"v  c #CF1E24",
"b  c #D02E36",
"n  c #816131",
"m  c #993E42",
"M  c #D83C43",
"N  c #E03C45",
"B  c #8D4D53",
"V  c #AF4953",
"C  c #8E7147",
"Z  c #A37852",
"A  c #8C596B",
"S  c #966E6E",
"D  c #B0696E",
"F  c #E15356",
"G  c #D16D72",
"H  c #55A166",
"J  c #AE8A55",
"K  c #878A7B",
"L  c #B5926A",
"P  c #A8A760",
"I  c #C2985B",
"U  c #C49961",
"Y  c #D4A76A",
"T  c #CDAA75",
"R  c #DDB473",
"E  c #E2B87A",
"W  c #0F2E83",
"Q  c #142A85",
"!  c #172886",
"~  c #142A8B",
"^  c #183787",
"/  c #172C98",
"(  c #183697",
")  c #263784",
"_  c #253595",
"`  c #162EA2",
"'  c #1A35A8",
"]  c #1C39B7",
"[  c #1C36BC",
"{  c #2739AA",
"}  c #233CB6",
"|  c #303FB1",
" . c #1A4E8B",
".. c #2F568C",
"X. c #26589B",
"o. c #336592",
"O. c #1F54AB",
"+. c #325CA1",
"@. c #2A4CB1",
"#. c #2E6FAF",
"$. c #337BBA",
"%. c #4B518C",
"&. c #605F84",
"*. c #4D7193",
"=. c #74758E",
"-. c #4976A4",
";. c #5576AA",
":. c #1C37C4",
">. c #1D39C8",
",. c #223AC8",
"<. c #2848CB",
"1. c #2A49D7",
"2. c #3156D0",
"3. c #1F6BC4",
"4. c #2F75CA",
"5. c #2D4DE1",
"6. c #365AE8",
"7. c #3F61E0",
"8. c #4A5DC5",
"9. c #4972D4",
"0. c #4265EA",
"q. c #4A70ED",
"w. c #88728F",
"e. c #DC7E85",
"r. c #3784B5",
"t. c #6F8F94",
"y. c #5389AC",
"u. c #5E92AB",
"i. c #4784B6",
"p. c #5889B6",
"a. c #728CAC",
"s. c #2585C5",
"d. c #2986C8",
"f. c #2A8CCD",
"g. c #348AC4",
"h. c #3892CC",
"j. c #2A8ED1",
"k. c #2B92D5",
"l. c #2C95DB",
"z. c #2D98DF",
"x. c #3294D4",
"c. c #3499DC",
"v. c #3B9AD8",
"b. c #2E9CE4",
"n. c #2F9FE8",
"m. c #349EE4",
"M. c #32A3EC",
"N. c #3BA4E9",
"B. c #34A6F1",
"V. c #39A6F0",
"C. c #35A9F5",
"Z. c #3CACF5",
"A. c #5192C7",
"S. c #489CD2",
"D. c #56A3CD",
"F. c #48A1D9",
"G. c #58A7DA",
"H. c #74AFCF",
"J. c #68A9D5",
"K. c #75B6DB",
"L. c #6A8DE8",
"P. c #44AAEC",
"I. c #4AAAE8",
"U. c #54ACE4",
"Y. c #4EB0EE",
"T. c #5AB3EB",
"R. c #42AFF5",
"E. c #45B1F6",
"W. c #4CB3F6",
"Q. c #53B6F5",
"!. c #58B7F2",
"~. c #56B8F6",
"^. c #5CBAF5",
"/. c #66B7E7",
"(. c #6DBEEE",
"). c #74BBE5",
"_. c #63BDF5",
"`. c #6BBEF2",
"'. c #78C3EE",
"]. c #66C0F7",
"[. c #6CC1F6",
"{. c #73C5F6",
"}. c #7AC7F4",
"|. c #7CC9F6",
" X c #78C7F8",
".X c #7AC9F8",
"XX c #898687",
"oX c #8F9093",
"OX c #AE958C",
"+X c #91A394",
"@X c #8998B0",
"#X c #95A9A9",
"$X c #ADA0A0",
"%X c #AEAEB2",
"&X c #D8BC8E",
"*X c #D5A99A",
"=X c #9BCFA0",
"-X c #B5C4AF",
";X c #E7C487",
":X c #F5D299",
">X c #ECD6B2",
",X c #8DB7CB",
"<X c #87B9D6",
"1X c #C2BEC0",
"2X c #8DC4DE",
"3X c #96C6DD",
"4X c #AFC8D3",
"5X c #B4D4DB",
"6X c #85C6E9",
"7X c #8CCBED",
"8X c #9ACCE5",
"9X c #92CDEC",
"0X c #96D1EF",
"qX c #9CD2ED",
"wX c #83CBF4",
"eX c #8BCDF2",
"rX c #91CFF1",
"tX c #94D0F0",
"yX c #ABD5E6",
"uX c #A4D5EB",
"iX c #AAD7EA",
"pX c #ADD8E9",
"aX c #B4DAE7",
"sX c #BDDDE5",
"dX c #B1D9E8",
"fX c #CECACB",
"gX c #DDDDDB",
"hX c #E7CACD",
"jX c #DDDEE1",
/* pixels */
"wX].W.E.}.qXqXqXqXqXqXqXqXqX0XwXwXtXqXqX0XwX_.P.x.l.n.Z.W.^.}.rX}._.^.^._.{.eXuXsXdXaXsXsXsXsXqX[.!.",
"wX].W.E._.wXqXaXaXpXuXeXwXwXwX|.eXqXiXqXwX.X}.G.g.f.b.B.Z.W._.|._.W.Q._.{. XeXiXsXjXsXsXsXsXsX0X!.E.",
"|.].E.R.Q.].9XaXaXuX0XwXwXeX7X0X9X;.o.+.+.+.+.+.g.f.b.V.W.^.}.7X{.^._.{.wXeXqXaXsXsXsXsXsXsXaX9X!.Z.",
"}.].E.Z.Z.Q.6XdXqXrX|.|.eX2Xy.-.-.^ ! ! 0 7 ( ' 3.3.3.c.~.(.rXuX9X{.{.wXeXuXdXaXsXsXsXsXsXsXaX0X!.E.",
".X].E.C.C.R.}.qXtXwX|.G.i.+.^ ~ W W ~ 9 5 s %.( <.1.>.2.4.G.tXuX2Xy.i.).eXiXsXsXsXsXsXaXpXiXuXeX^.!.",
".X].E.C.C.R.`.wX|.}.J.o.0 8 8 9 ! Q ~ 5 ~ w.OX&.O.7.5.5.,.2.A.p.-.q y H.rXiXsXsXsXsXaXuXtXeXeXwX[.[.",
"}._.P.m.Z.W._.{.{.G.t ; : = ; & 8 9 8 8 ) oX;X&Xd 9.0.6.5.,.' Q 4 s g H.rXiXsXsXsXaXpXtXwXwXwXwX|.wX",
"}.T.v.h.U._.[.{.^.r.......y 3 , , < & / s J *XOXOX8.0.0.6.1.>.] ) C g H.eXiXdXjXsXiXtXwXwXeXuXtXwXwX",
"{.U.h.g.U.[.{.[.~.P.I.U.J.a.q Q ~ Q 5 ( s A a w ^ } 5.q.0.5.,.>.{ a y J.9XuXaXaXpXtXeXwXwXqXiXuX0XtX",
"Q.P.c.c.P.W.Q.Q.~.^.U.$.^ ^ ~ / ] [ ` <.} 0 ! / ] 6.6.0.6.5.1.>.,.{ ) H.qXqXtXtXqXqXuXuXuXqXtX0XqXiX",
"E.Z.V.C.Z.Z.Z.E.!._.$.( ~ / ] [ :.>.[ 1.<.` ` @.0.L.<Xq.0.5.>.>.:.[  .H.uXeXwX.X|.qXdXaXpXqXeXrXqXpX",
"Z.C.C.C.C.Z.E.~.Y.$.( Q / [ :.} :.:.:.>.>.[ <.q.q.@._ w ) ,.,.>.} ,.<.2.<X6X`._._.0XdXpXqXtX|..X'.wX",
"V.C.B.C.C.E.~._.$. .W Q / / / ` ` [ :.:.>.:.1.q.@.0 &.#X=.%.} 1.,.>.7.@.+.H.{.Q.W.wXyXqXeX.X.X].Q.Q.",
"c.b.M.Z.E.~.[.].X.Q ~ Q Q ~ Q Q ~ / ` [ :.:.1.0._ y #XgXfXa.t ` ,.1.{ Q q p.'.Q.E.'.0X7X.X.X.X].E.E.",
"s.f.m.R.^.{. Xi.( Q Q 9 < 5 2 2 2 ! ~ ' :.>.,.,.' =.4XgXgX=XH -.{ @.*.6 o.<X8X^.E._..X}..X.X X].E.E.",
"f.k.P.Q.[..XwXW W 9 8 , & & & & < ! ~ ` :.>.>.:.@.@XfXjXgX=XH oXw w w.y H.dXyX'.~.].{.[.].].{.].E.E.",
"M.N.!.{. XwXqX! 0 5 3 ; = : = 1 9 ~ / ~ ' } :.>.5.@XfXjXjX=X@ + a   a y ,XaXpX7X[. X{.^.W.~.{.].E.W.",
"C.E.^.[.|.tXiXQ 5 3 ; ; 4 4 3 9 ~ ' [ / ~ ' :.[ | =.%XjXjX#X@ + #   u a.5X5XiX7X].].].~.W.~.^.^.W.W.",
"M.Z.E.!.7XiXaX4 ; ; o.s.g.$.^ ~ ' :.` 2 8 ! / ) &.OXOX1XjX-XH @ # @ + t.5XsXyX[.W.E.W.~._.~.W.Q._.].",
"M.Z.E.^.'.qXyX; -.A.G.R.R.A.^ / ] ` 2 , 1 8 y A L ;XT &X>X>X&XP J + + a.5XsXqX/.Z.E.E.~._.~.Z.E.^.[.",
"B.E.Q.]._.[.}.y.K.}.^.E.b.O.^ ' / 9 & % % , e n Y ;XE R ;X;XE Y J # t.4XsXsXuX_.Z.W.^.~.W.E.Z.Z.W.~.",
"Z.W.].].Q.E._.}.wX.X^.R.d.W ~ ` 9 , & * = * > e Z I U Y R Y U J C +X5X5XaXdX8X].W.^.].Y.P.M.B.B.B.P.",
"Q.].[.].Q.Z.^.{..X X^.E.d.~ Q 8 , % * * & & % - e i n J I J Z +X#X5XdXqXqX0XeX{._.[.[.U.x.z.M.b.k.c.",
"].{. X[.W.Z.^.{..X{.^.P.4.~ 9 , % & % & & , % % - - $ n n i K 4X5X5XuXeXwX|.|.|. X.X'.G.g.k.M.b.s.s.",
"~.].{.[.W.Z.^..X}.{.T.v.r.W 8 & : q ; , 8 3 * * ; 0 d C Z Z K 5XdXqX0XwXwX0X0XwX|.eX7XK.G.F.B.n.k.l.",
"W.W.].].W.Z.^. X}.{.G.g.#.W , 1 6 g. .8 5 & * 1 Q _ $X&XR I P 5XqXeX|.wXeXuXiXtXwXqXiX0X[.!.Z.B.M.B.",
"Q.^.[.{.^.Q.]. X[.^.F.x.3.8 ; t S.I.X.5 = = * < ' 8.1X:X;XR %XiXqX0X0X0X0XqXqXqXqXpXaXqX'._.E.Z.E.P.",
"].{. X X{.[.{. X_.E.Z.M.s.; 6 k.Y.U.X.3 ; : : < ~ @.%X&XR R -X7XqXpXpXpXuX0XrXqXpXaXaXqX|.^.E.E.].T.",
"{.|.eXeX X].[. X~.Z.C.C.b.#.t R.W.U. .; X.D.*.4 8 _ oXE R R %X'.7XaXaXiXqXwX|.eX9XqXuX7X|.^.E.W.'.).",
"}.wXqX0X].W._.[.~.Z.C.C.B.b.r.^.^.I.t X.x.(.,Xt.q ! S Y R Y +XT.'.pXiX0XwX|.{.]._.'.wXwX{._.E.^.0X6X",
"wXeXiX8X/.N.Y._.Y.N.n.C.C.Z.Q.].].F.s.j.R.(.,X*.6 0 ..S L S y.F.[.8XqXwX|.|.[.W.Z._.}.|.{.^.E.!.0X6X",
"wXeXyX3XD.f.m.P.c.j.l.B.Z.~.].{.[.F.f.l.P.D.*.3 = 0 ] %.d %.$.N._.wXwX|..X|.[.Q.Z.^.{.|.}.^.E.Q.|.'.",
"eXrXuX3XD.s.l.M.l.s.f.N.Q.].|.wX'.D.r.f.c.#.7 & = 9 ' } ' ] 4.R.~. X X X{. X].W.E.^.{..X{.^.R.Y.[.'.",
"wXeXpX8XJ.l.b.M.n.z.N.!.].{.wX0X8XK.U.X. .t : - & Q ' / / ` #./.`.`._.^.^.{.[.W.Z.^. X.X{.U.h.S.2X9X",
"wXrXuXqX/.Z.V.M.B.C.W.].{.wXeXiX8Xo.t 6 ; 7 ; : 1 ` :.A.-.' 9.(.`.{._.W.W._.`.W.E._.{. X[.G.g.A.3XuX",
"tXqXqX9X[.!.N.k.b.M.E.Q.[.eXuXaXyXH.p.r.r.r.o.; 1 } } J.p.' S.Q.~.~.~.~.~.~.~.~.^.[.{.].^.P.c.F.'.7X",
"pXuXtXwX.X(.S.s.l.M.Z.E._.9XyXaXpXrX{.Q.R.Q.i.: < <.9.3Xy.^ 0.Z.R.E.~._.^.W.W.~.{. X{.^.R.B.B.Y.'.}.",
"aXiXeXwXeX7XG.k.l.C.Z.Q._.'.6X8XqXeX{.Q.h.r. .5 _ <.J.H.%.^ 4.C.E.W.~.~.W.R.Z.W.^.[.[.~.Z.C.C.!.'.wX",
"aXuXtXeXqXqX/.N.M.Z.W._.].Q.~.}.|.|.{.Y.r.r - 3 ` } ;.a.r < #.~.W._.^.Y.Z.C.C.Z.E.^.[.Q.V.B.Z.!.0XqX",
"pXuX0X0XuX9X`.Z.E.W.^.[.].E.E._.}..X[.S.t.g a %.;.%.f oXt.%.=.4XD.`.!.N.b.M.B.b.m.I.!.I.c.M.B.!.eXqX",
"0X0XuXiX0XwX^.R.W.].[.{.].E.E.].{.|.[.o.g H %X4X4X#Xg u oXfX%XoX*.K.U.h.j.n.n.j.s.c.N.c.f.k.M.Q.'.0X",
"0XqXpXpXuXwX_.Q.Q.].[.{.].E.E.].}.}.[.f u d j j j u o e g j t.h a K.K.S.x.m.n.j.s.z.n.l.s.l.P.^.|.0X",
"pXaXpXaXdXuXwX].~.Q.^.{.].E.E.^.{.}.).y u j XX%X$Xo X i XX$XoXA p <X7X/.U.P.V.m.n.M.B.M.M.P.^.'.qXiX",
"sXsXjXaXdXyXwX[.~.W.^.[.[.W.Q.].'./.t.g XX%XfXhXhX1XB X O x x x V hXfXD a.I.V.R.R.N.n.M.N.Y.].wXqXuX",
"sXsXsXaXuXeX`.Q.~._.].{.{.].].{.[.t.# XXD V F *XF V S x l l k x OXhXhXF V A A.!.!.v.f.l.B.Z.W.].eXwX",
"sXsXsXaXqXwX_.W.^.{.|.wX.X{.[.{.].h # p x z N F F c x B x l O A %X1XA c v N V w.).S.f.l.M.Z.Z.^.|.wX",
"sXsXsXaXiXqX}._.[. XwX0XwX_.^.[.].u.f O k k z b F v l . . k O g oXXX. l z c N M oXD.v.n.C.E.~.{.tXqX",
"sXsXaXaXdXiX0X|..X|.9XyX9X!.R.].^.P.*.i O m V V *XG B o o O i j oXXXA B B D e.e.S J.N.Z.Z.W.[.eXuXpX",
"uXqXqXuXqXqXqX0XeXwXtXpX9XF.z.P.Y.m.z.b.B.Z.Q._.{.^.F.l.M.B.C.Z.Q.{.|. X].W.E.'.7X].Z.E.Q.].{.wX0XiX",
"eXwXwXwXwXeXuXpX0XwXtXpX2Xi.r.M.N.f.r.k.B.W.]. X X/.h.s.l.B.C.Z.Q.{. X}.].E.R.[.'.^.E.Q.].{.|.|.wXrX"
};
