/* XPM */
static char *result[] = {
/* columns rows colors chars-per-pixel */
"50 50 97 2 ",
"   c #27285E",
".  c #28295F",
"X  c #2C2D63",
"o  c #2D2E6A",
"O  c #2F3066",
"+  c #2F3069",
"@  c #303166",
"#  c #33346C",
"$  c #37386F",
"%  c #3A3B6E",
"&  c #2F3171",
"*  c #343573",
"=  c #373871",
"-  c #3B3C73",
";  c #37387E",
":  c #3D3E7B",
">  c #3F4075",
",  c #3F407A",
"<  c #424375",
"1  c #43447D",
"2  c #47487F",
"3  c #4A4B7D",
"4  c #51517F",
"5  c #373982",
"6  c #3A3C83",
"7  c #3D3F8A",
"8  c #3F4086",
"9  c #3F4191",
"0  c #444583",
"q  c #474882",
"w  c #4B4C84",
"e  c #43458B",
"r  c #474889",
"t  c #4C4D8A",
"y  c #4F5085",
"u  c #4F5089",
"i  c #525385",
"p  c #575884",
"a  c #595A86",
"s  c #53548C",
"d  c #57588D",
"f  c #5B5C8C",
"g  c #434594",
"h  c #474994",
"j  c #4B4C94",
"k  c #44469A",
"l  c #46489A",
"z  c #4B4C9B",
"x  c #4F5094",
"c  c #4F509B",
"v  c #525494",
"b  c #575893",
"n  c #5A5B95",
"m  c #53549B",
"M  c #57589B",
"N  c #5B5C9B",
"B  c #5F608E",
"V  c #5F609B",
"C  c #64648E",
"Z  c #646493",
"A  c #676895",
"S  c #6B6B95",
"D  c #62639C",
"F  c #67689F",
"G  c #6B6C9A",
"H  c #6F709B",
"J  c #72729D",
"K  c #77789F",
"L  c #79799F",
"P  c #5354A0",
"I  c #5758A1",
"U  c #5A5BA1",
"Y  c #5F60A2",
"T  c #6364A2",
"R  c #6768A4",
"E  c #6D6EA3",
"W  c #6D6EA9",
"Q  c #6F70A2",
"!  c #6F70A8",
"~  c #7474A5",
"^  c #7778A7",
"/  c #7C7CA4",
"(  c #7374AB",
")  c #7C7DAB",
"_  c #7C7DB0",
"`  c #7F80A7",
"'  c #7F80AC",
"]  c #8181A6",
"[  c #8283AD",
"{  c #8788AE",
"}  c #8A8AAE",
"|  c #8585B1",
" . c #8788B2",
".. c #8C8DB2",
"X. c #8F90B3",
"o. c #9292B5",
"O. c #9596B8",
/* pixels */
"1 ` ..U M v t 1 1 > - B } ( M m m c m m m m m N Z a 1 : 5 ; 5 8 0 1 1 i / ..~ N m l k k 9 = > u t e ",
"% J [ D m h e 0 3 2 > B } [ R M P c z l l k k 8 # O X X X X # : 0 q w d ] ..~ Y m P z l g 0 0 w w w ",
"@ p Z s t e 0 w S J J ] o.o.[ ) ) ( T t g g e 6 X       X # : w s b A / ..O...[ _ ( ( M 8 1 a J L L ",
"@ < 2 1 1 1 < 3 L o...X.o.X.X..... .E t e h 0 - X X   X O - q b N N ) o.O.o.........[ n 1 1 Z ..O...",
"- : 1 1 1 < = 1 / } ) ~ ~ ~ ~ ( ~ ! V h e 0 0 - X     @ = , q n M P ( o.| ~ ~ ( ~ ~ G d 1 1 Z ..} ( ",
"2 1 1 1 : = @ % L } E V N V D V V N v h 0 1 1 - X X @ - , 1 q n m P ( ..^ D N N D N M t 1 1 Z o.[ F ",
"1 1 1 1 = @ X % L } Q M c M V V N c h 8 1 , 1 - X O - : 1 1 w n m P ( ..^ N m m N M z 0 1 , Z o._ V ",
"1 1 < = @ . . % ^ } Q M m c M N N l 8 = = = = # # = 1 1 1 , w n m P ( ..^ V m m m z g e , - f ..[ D ",
"1 2 : # o X X < / } E V N m c M M l 6 o . X X @ - , 1 1 1 , q b M c ( ..( D N m c k g e > @ 4 ..[ D ",
"0 w i q 1 1 1 s ] } E D V M m m c l 5 X . . @ $ 1 1 1 1 1 $ , d m c ( ..^ V m z k k k j w @ 4 ..) D ",
"< v N n n n n D } } E V N N M z k g 5 . @ - 1 y y y y y 3 $ = s m c E [ Q b z l k h h m s + 3 L ~ N ",
"= s N m c c z U | } E N m c z z l k 6 @ 4 H / / / / / / H < = s m l m B d t 0 t v j e j e # $ 3 y w ",
"@ t M z k g g c ( ( D j e z I U U I r = C O.o...X.X.X.../ 3 # q t g 0 0 1 1 1 w n v 0 e 8 + . O $ 1 ",
"o s M z g e g k P M t : : B ' | | [ G w H o.[ Q Q Q Q E D < X # : 2 0 2 q 1 q u N v j e : + + = > 1 ",
"@ w M z g e e g g e 8 $ $ C o...[ [ G i J o.~ V N N V N x - X @ < f B Z Z Z Z F Q E V 0 = + * > 1 1 ",
"o i M z g g e 0 g g 0 $ $ C ..W U D n w J o.~ N c c N m g & @ - f [ o.o.......o.o.o.[ i + - > 1 1 1 ",
"# t M z k k g e e e 1 = $ C } E P v t w J o.~ N m P P z g ; = 1 A ..o.[ [ [ [ [ [ [ ^ y $ > 1 1 1 1 ",
"$ s M l k k g e 8 1 1 - $ S | Q M l e w J o.^ V N m k k g 8 1 2 A } ' F D D D F D D V t 1 2 2 2 1 1 ",
"S D M z g e e 8 0 q u u i Z Q n t r e q J o.~ N m z k k g 8 1 1 A ..[ D M m V V V M m v s v v s s u ",
"} G b h 8 , , , > 2 n n N N b w 1 1 1 1 Z ] G v e g g g g r 1 2 Z ..' D m z M V V m k m N N N M M n ",
"Q d t 8 : # X X X - d n t j j r 1 1 - # % < - $ & * 0 r 0 1 1 2 Z } ) D M M c m N m l z z z z z z h ",
"b r 1 - # .     . = v d w e e 0 1 = # .   X . . o $ > 1 1 1 > 1 C ..[ D D n P c m c k k k g g k g e ",
"h 0 - @ . .       $ t b g e 0 1 = @ X     X   X - > 1 1 1 1 - $ p [ [ R V V n M c k k k g e e g e 6 ",
"e : # .         o - t t e 0 1 - # X     # - < 1 w t u u u u 1 # p } ) D M m m P k k k k k e e e r 1 ",
"0 = # @ @ @ X O $ 1 1 q q w 1 - $ @ @ @ q n n b n n n n N n t $ 4 ] ^ D x k k g g k k k k g e 0 1 1 ",
"J S C C C C 3 % , 1 1 d G L J S C C C S J / Y P P P m m m m e # % p f t t e e e e j c z g e 8 0 1 1 ",
"..} ....} [ C 1 1 1 q Z } o...} ..} ..} ..{ Y l g k k k k k 8 o X # > 1 1 q w u s V D x 9 : 1 i u y ",
"^ L ~ ^ ^ ~ f q 1 1 q A ..} / ( ^ L ^ ~ ~ ! P g e e k k k e : o X $ , 1 1 u J ] ] [ ) u & # 3 J ] ] ",
"D V V V V N t 1 1 1 1 Z ..' D V N D D D V M z g e e g g g r - # $ - 1 1 1 f [ o.}  .) 4 . X i ..o.| ",
"N m P N M z r 1 1 - $ p } ) D m M n D V m z k k g e 8 g g r 1 1 1 0 1 1 1 f [ | R D D 1 . $ B o._ T ",
"V M c M c k e 1 - # @ p { ) D M m m M V m k k k k g e M Y D Z Z Z Z C f w i ] [ M c v : $ , Z ..( m ",
"V n M z l k e > $ X # p } ) D N M P m M P k k k k g h W } } } { } } } L 4 3 L ) V v j 8 - 1 Z ..( n ",
"D M z z k l j t 1 1 2 A } ) D V N M m m z k k k 9 e g ~ o...[ [ [ [ [ Q 3 $ 4 a 3 0 e 0 1 1 i G f q ",
"n z k k k l c n n n N ~ o.) D V N N m l k k g e : 1 q J o./ F Y D F D n 2 $ % < % 1 w w w w w 2 % X ",
"t e e e h v m m c c m W ..) D M x c z l k g 5 * $ = 1 K ..^ N m M n M M D S S S S J L L K L C $ X . ",
"q 1 1 - w n c l g g l T ) J N j g 9 9 9 l m 0 > - < q J o.^ N P P M P P ) o.o...o.X.......o.S @ X # ",
"d w - $ 1 n c g e e h j n s w q : * & * n ) / L L Z y J X.~ V M m z k P _ o.) J ~ ~ ~ ~ ~ ~ d # - w ",
"v 0 = . , b P g e e e e 1 1 , : $ X X X C O... ...J u J o.^ D n m k k P _ } ! V M N V D V M r o 1 n ",
"g * X X , n m z g e e 1 1 1 , @ . . . @ Z o.W M F n w J ..Q N c k k k P _ ..! M z M V V N z 6 X 1 n ",
"F f p p Z ~ ! Y c e 0 q u u w 2 % X   X C ..W m m t q f Z d q 6 5 5 8 x ) } ! n P P M V M z 8 X 1 M ",
"O.o.X.o.o.O.O.| n 1 2 t n V n n t # X X C ..! M z h 1 = @ . X o X # = d ) } Q D N M z M M z 7 o 0 n ",
"O.} ) ) [ ) ) J s 2 1 u n b s v r + X # i A f u e : # . . X X - 1 1 w n [ } ~ D V n M m z l 9 * w n ",
"o.~ D V V V V N w 1 , w M u q j r - > w y u y w < = . . . . # s N N N F { } ~ N N N n z k k e 0 u N ",
"O.~ N c M N M j q : $ 1 b x x W ) L L / / ` / G > X . . . . = s n P z U _ ..E M P z z l k k e 0 s N ",
"o.( N c c M c g 8 $ X - w e x ) o.o...} ....X.J % . . . . . - s M z g z E / D v 9 7 8 g g g e 1 w d ",
"o.~ V N m z l 9 $ X . X # + , K o.^ Q W ! Q Q n @ . . . . $ 1 n M k e e v M t : & o & , 8 r 0 1 2 0 ",
"o.~ V M c l k 9 & X     . X < / ..Q V M N V N t X . . . $ - q n M k e e e e 0 - X X # - 1 1 0 w t w ",
"o.Q M j g k l h * X X X X # w L } E M c m N c e $ @ X - < 2 u n M z g g 8 0 1 = X # - 1 1 1 w n n n ",
"W n u e 8 8 v R Z B f 4 % - s / ..E N m m m l j f f f C H H J ^ R z g e 0 1 1 - $ - 1 1 1 1 w N N M ",
"c q 1 , * # Z .. .} { S q 1 i / ..Q N N c k k I [ X.....X.} ....~ j 8 8 2 y y y w w y w w 1 w n M k "
};
