/* XPM */
static char *result[] = {
/* columns rows colors chars-per-pixel */
"50 50 166 2 ",
"   c #284D3F",
".  c #295B36",
"X  c #29573A",
"o  c #2A5A3A",
"O  c #2B6A2E",
"+  c #2E7E25",
"@  c #2D742C",
"#  c #2E7C2A",
"$  c #307F2A",
"%  c #2B6730",
"&  c #2C6239",
"*  c #2F6B3B",
"=  c #306D3C",
"-  c #2E7430",
";  c #327E35",
":  c #317738",
">  c #273D4C",
",  c #283D4D",
"<  c #272F57",
"1  c #27285E",
"2  c #28295F",
"3  c #273453",
"4  c #283754",
"5  c #293A54",
"6  c #28315A",
"7  c #272860",
"8  c #2B2C63",
"9  c #2D2E6A",
"0  c #2F3067",
"q  c #2F306B",
"w  c #313266",
"e  c #33346C",
"r  c #37386E",
"t  c #3C3C6F",
"y  c #2F3170",
"u  c #333473",
"i  c #373871",
"p  c #3C3D74",
"a  c #34357A",
"s  c #37387B",
"d  c #3B3C7B",
"f  c #284A43",
"g  c #274149",
"h  c #2A474E",
"j  c #2B4B4C",
"k  c #2C5647",
"l  c #2C5A43",
"z  c #2E6241",
"x  c #3F4074",
"c  c #3F4078",
"v  c #44415E",
"b  c #72665F",
"n  c #776A58",
"m  c #48466C",
"M  c #434476",
"N  c #43447D",
"B  c #474879",
"V  c #494A7C",
"C  c #58557A",
"Z  c #695F69",
"A  c #655E7A",
"S  c #73676D",
"D  c #7E736C",
"F  c #66637E",
"G  c #8D7844",
"H  c #86734E",
"J  c #957F48",
"K  c #817253",
"L  c #877A67",
"P  c #2F8126",
"I  c #308527",
"U  c #318827",
"Y  c #318429",
"T  c #328B29",
"R  c #35942B",
"E  c #37992C",
"W  c #389D2D",
"Q  c #348632",
"!  c #358B30",
"~  c #3AA22F",
"^  c #3BA630",
"/  c #3DAC31",
"(  c #3FB132",
")  c #40B534",
"_  c #42BA35",
"`  c #9D8336",
"'  c #A28733",
"]  c #9F8644",
"[  c #9F8A4F",
"{  c #978455",
"}  c #A88E42",
"|  c #A28C4C",
" . c #3B3C84",
".. c #3D3E8A",
"X. c #3E4083",
"o. c #3F408C",
"O. c #3F4091",
"+. c #444583",
"@. c #474882",
"#. c #4B4C83",
"$. c #43448B",
"%. c #47498E",
"&. c #4C4D8B",
"*. c #4F5083",
"=. c #4F508C",
"-. c #535385",
";. c #5B5A85",
":. c #53548C",
">. c #59578B",
",. c #5A5B8B",
"<. c #434594",
"1. c #464897",
"2. c #4B4C94",
"3. c #44469A",
"4. c #47489A",
"5. c #4C4D9A",
"6. c #4F5092",
"7. c #4F519B",
"8. c #545593",
"9. c #575893",
"0. c #5B5C94",
"q. c #53559B",
"w. c #57589B",
"e. c #5B5C9B",
"r. c #605E81",
"t. c #5F609C",
"y. c #63648E",
"u. c #69668A",
"i. c #7F7A83",
"p. c #646594",
"a. c #6E6F96",
"s. c #63649D",
"d. c #67689D",
"f. c #6B6C9C",
"g. c #6F709E",
"h. c #74759D",
"j. c #78789E",
"k. c #5658A1",
"l. c #5B5CA1",
"z. c #6263A2",
"x. c #6668A0",
"c. c #6C6DA2",
"v. c #6C6EA8",
"b. c #6F70A4",
"n. c #7374A5",
"m. c #7B7BA2",
"M. c #7374AA",
"N. c #7C7DAB",
"B. c #7F80AC",
"V. c #7F81B0",
"C. c #9B938F",
"Z. c #938E9A",
"A. c #9E9691",
"S. c #8282A5",
"D. c #8484AC",
"F. c #8788AF",
"G. c #8989AE",
"H. c #8484B1",
"J. c #8788B0",
"K. c #8B8CB2",
"L. c #908FB2",
"P. c #8F90B5",
"I. c #9392B5",
"U. c #9998B6",
"Y. c #9596B9",
"T. c #9898B9",
/* pixels */
"^ ~ ~ E R I I T W ~ ~ E W W E R I U R T I I T E E W ~ ) ) ~ ~ ~ E R I P T E ~ ~ E W W E R U U T T I ",
"_ / W W W R U I U ~ ~ ~ E E W ~ W R I U R T + T E W W ~ ^ _ ) W ~ W R T P T E ~ ~ E E ~ ~ W E Y I R ",
"( / / ~ ~ ~ W U I T E ~ ~ E W ~ ) ~ T T T I + I T R W W ~ ) / / ~ ~ ~ ~ U I T E ~ ~ W E ~ / ^ R U T ",
"~ ( _ / ~ ) ) E U + T ~ ~ ~ W ~ _ _ ~ T + I T I + T R ~ W W ) _ / ~ ( _ E U P T W ~ ~ W ~ _ _ ~ R + ",
"/ ( / ) ) / ~ T I I T ~ ~ W / ( ) ^ R I I E ^ W U I U R ~ ) ) / ( ( ( / T P P R ~ ~ ~ ^ ( ( / R U U ",
"_ ( ~ ) _ ~ U P I T ~ ~ W ~ ) _ / R I I R ( _ / E P P R ^ _ ) ~ ) _ ~ T P P R W ~ W ~ ) _ / E P P R ",
"/ ) ) / ~ T I T W ) / W / ) ( / R I I E ) ) / E U U R / ) / / ) ( ~ T P T E ( / W / ) ( ( R I U R ( ",
"^ / _ ~ T U U R / _ ) ~ ( _ / R P I E / _ ) E I I T ~ _ ) ~ / _ ~ T U U E ^ _ ( ~ ( _ / E P I R / _ ",
"_ ) E U U ~ ~ T T / ) _ / ~ T I I R ) ) ) R P P R / ) ) ^ ) ) W T P ~ ^ T R ^ ) _ ( ~ T P U R ( _ / ",
") ~ U I U / ) E R E / _ ( W U U R ) ) ) R U U U ^ ) ) / ) ) ~ U P I ~ ) E R E ^ _ ( ~ U U E ^ _ ( W ",
"~ U + I T ^ ) ) ~ U T / _ _ ~ E ) ) ) R I I U ) _ ^ ^ ) ) ~ T P I R ~ ( ) ~ T R / ) _ ~ E ( _ / W I ",
"U I I T E W ~ _ ( E R R / ) ~ ~ ) ) R U I R ) ) ) ~ E ^ ~ U P P T E W ~ ( ( W R R ~ ) ^ ~ ( ( W U Y ",
"+ I T W ~ E E ^ ( _ ~ P E ~ ~ ~ ~ E U I T ) ) ) ) W E T U P P U R W W E ^ ( ) ^ T R ~ ~ ~ ~ W U P T ",
"U I U T E W W W ~ ) / E R T E E T U U U U R R W R W R T U U U U R W W W W ^ ( / ~ R R R E T T T U U ",
"E T I U R W ~ E W ~ ( _ E P T T + U R T + + + U T W W E E E U P U R E ~ E W ~ ( ( W I I T I Y T T + ",
"E R T I I T E W ~ W / ( ~ T P U T T U U T U U P P R E W W W E U P P R W W W W ^ ( ~ R I I T T U U R ",
"R W W Y $ U R W W E W ~ ~ W U U R T I T R E Y @ @ $ T W W W W W T I Y R E W W W W ^ W Y Y T T Y U R ",
"W W E E T I $ R W W W E R R R T U U R R R Y @ X   % I R W W W R R R I $ R E W W W R W R R U T R E E ",
"W W W W R - O $ T W W E T R E E T T R R I @ . , 4   % $ R W W W W R - % $ T W W R T T R R T U R E Y ",
"R W W R Q l f % $ R ! T Y # T R R R R T @ X , < < 3 f % I T W W W ! l f % $ T R T Y $ T R W R E T @ ",
"Y R W R : j 3   . = = = . . @ T E R T @ . , 1 1 2 2 3   % $ R E W Q j 3 f o * = = & . @ U E E U @ . ",
"O Y T ! : h < < 5 5 5 5 4 , . $ T T @ X , < 1 1 1 2 < 3 f % $ T T ; j 2 3 3 4 3 5 4 > . @ U U @ . , ",
"f o z z k 4 1 1 1 1 2 2 1 < > X @ - X , < 1 1 1 1 1 2 1 4 f X z z k 4 1 2 2 1 1 2 1 1 > o @ @ . g < ",
"< 6 6 2 < 2 1 1 1 1 1 2 2 1 < , . X , 1 1 1 1 1 1 1 2 2 < 2 6 6 6 < < 2 2 2 1 1 2 2 1 < > X X > < 2 ",
"7 2 2 2 1 2 1 1 1 1 1 1 1 1 1 < > , 1 2 1 1 1 1 1 1 7 7 7 7 8 e 9 1 1 1 1 2 1 1 2 2 2 2 < > > < 2 1 ",
"7 7 8 9 9 8 8 1 2 2 1 1 1 1 1 2 1 1 1 2 1 1 1 1 1 1 1 1 1 8 u d r 8 2 1 1 1 1 1 2 8 8 8 1 1 1 2 1 1 ",
"8 y  .+.@...a 8 2 2 2 2 1 2 2 2 1 1 7 7 1 1 2 1 1 1 1 7 y s X.c d r 8 2 2 2 2 1 2 i N e 2 < < 2 7 8 ",
"e +.4.q.q.5...y 7 2 2 2 w p r w w w q q w 7 2 2 1 1 7 9 d 7.9.>.>.-.B r 2 2 1 1 8 c =.N e 9 8 9 9 e ",
"&.9.q.7.5.3.<.d r 7 2 8 ;.m.p.>.:.&.$.$.&.p 8 2 2 2 9  .e.V.J.J.K.G.D.a.t 2 2 2 8 s 1.6.#.N p p N :.",
"e.e.w.5.3.3.1.%.N p p x h.I.M.s.s.e.q.7.7.+.u 7 7 8 u $.z.L.Y.L.J.K.K.m.*.e 7 2 7 u ..&.:.#.N d N 0.",
"s.q.5.3.3.3.5.8.0.9.9.0.N.I.n.s.t.t.e.q.4.3...u 8 i d @.p.L.H.b.x.c.x.d.0.#.0 7 7 7 0 p N +.p e x 0.",
"9.&.$.$.%.5.7.q.q.q.q.e.N.I.n.t.w.q.q.5.3.3.O.u 8 w i c p.L.D.s.e.w.e.t.w.+.0 9 u s N @.:.p.>.M N 0.",
"@.+.N N @.8.w.5.4.1.4.5.M.K.b.0.5.1.1.<.3.3.1.d w w r M p.G.D.s.q.7.q.e.5. .q y O.6.9.e.f.S.m.;.#.0.",
"=.#.c p p :.w.4.1.$.<.4.e.f.0.&.@...s a d 8.v.f.p.y.,.-.p.K.D.d.w.q.7.7.3...9 a <.7.t.t.b.F.Z.D Z >.",
"9.#.p e r &.e.4.<.+.$.O.$.#.N N N i 9 7 e y.K.L.K.J.m.>.p.K.D.s.t.w.5.3.3...q a <.q.t.s.n.K.A.{ H A ",
"5.X.y 8 e &.e.4.1.$.$.$.N N N c e 8 2 1 0 y.G.N.v.b.d.:.p.K.D.d.q.7.4.3.4.O.d  .1.7.s.N.K.T.A.| ` J ",
"q.=.B M V p.c.l.7.<.+.+.@.#.#.c p 0 7 1 w y.J.v.q.w.8.#.,.h.f.:.2.o.o.o.O.$.X.+.3.q.d.N.P.U.A.| ' ] ",
"N.S.m.m.S.D.J.H.c.&.+.N &.0.0.8.:.N 0 2 w y.G.n.w.q.2.+.B M x p u y y u X.+.N $.<.q.s.f.N.K.A.| G S ",
"K.L.J.H.H.J.J.D.g.#.N @.>.0.0.8.8.@.w 8 e ,.h.d.8.2.$.d e 8 7 7 0 i p x @.@.@.$.3.5.w.e.h.G.Z.L b >.",
"K.H.n.b.c.b.b.c.0.@.c +.:.0.=.&.5.+.u e M #.,.:.#.+.p q 8 1 1 8 c :.:.8.8.=.@.+.<.4.5.8.d.G.S.F C 0.",
"J.B.s.e.w.e.e.w.&.@.p p &.0.6.6.z.s.>.,.p.p.p.p.,.B e 8 2 2 2 8 V e.w.q.q.6.@.$.$.$.$.2.0.f.p.V V 0.",
"K.B.s.w.7.w.w.5.$.d r 0 V 8.2.7.N.J.F.G.G.K.K.J.m.V 2 2 1 2 2 8 @.e.q.4.1.%.X.c +.+.+.&.-.:.V p d 0.",
"G.S.s.w.w.7.5.4.$.u 8 8 i c d &.D.I.J.B.D.B.B.N.f.M 2 2 1 1 9 r #.e.7.<.$.X.i d $.&.:.p.g.f.y.B N 0.",
"G.N.s.e.w.5.3.3. .9 2 2 7 8 8 V S.J.b.d.s.s.d.s.:.p 2 2 2 7 e N :.e.5.<.$.d 9 u O.7.s.m.G.I.S.r.C u.",
"J.N.s.w.7.4.3.3. .8 2 2 2 2 0 *.S.J.c.w.q.w.e.q.%.u 2 2 9 e p N :.e.7.3.$.s 9 a <.q.s.b.S.I.Z.L K { ",
"H.b.e.2.<.$.<.7.6.x x t r 0 i >.F.F.c.w.q.q.w.5.<.N t M B *.:.>.s.d.7.3.<. .9 a <.7.w.s.n.J.A.| ` } ",
"l.9.&.@.X.s +.b.N.m.h.h.>.x c >.F.F.v.t.w.q.5.4.7.d.j.j.m.S.S.D.F.B.l.<.$.s 8 u o.4.5.9.f.G.C.[ ] L ",
"<.$.c p i 0 M S.Y.J.K.G.p.N N ,.G.J.c.e.w.5.3.3.k.H.T.I.K.L.K.K.K.F.w. .d u 8 y  ...o.&.>.h.i.n n u.",
"+.+.c e 8 8 M S.H.z.z.x.>.+.N >.D.D.x.q.5.3.1.3.w.H.L.N.c.c.c.g.c.d.N q 9 8 2 8 q q q q r p m v m ,.",
"+.p r 8 2 7 B S.H.e.7.q.&.N N #.u.p.:.+. . . .o.q.N.K.v.e.w.w.s.w.6.i 2 1 7 q q u u p p M V B r d 8."
};
