/* XPM */
static char *result[] = {
/* columns rows colors chars-per-pixel */
"50 50 196 2 ",
"   c #010802",
".  c #041A06",
"X  c #1C1C1E",
"o  c #211E1B",
"O  c #072909",
"+  c #092D0B",
"@  c #09340C",
"#  c #0A3A0E",
"$  c #172F17",
"%  c #16241C",
"&  c #1C231B",
"*  c #152B1A",
"=  c #1A2C19",
"-  c #153316",
";  c #1C3315",
":  c #123A14",
">  c #1A3812",
",  c #15341A",
"<  c #1B351B",
"1  c #153C19",
"2  c #1C3D1A",
"3  c #2C2416",
"4  c #2B2A16",
"5  c #25211C",
"6  c #2B241C",
"7  c #262D18",
"8  c #2D2A1B",
"9  c #332616",
"0  c #342B15",
"q  c #3B2B16",
"w  c #31271A",
"e  c #35291B",
"r  c #3A2C1A",
"t  c #233314",
"y  c #2D3614",
"u  c #233A16",
"i  c #243419",
"p  c #2C3B1B",
"a  c #343715",
"s  c #3A3215",
"d  c #323916",
"f  c #3F3E17",
"g  c #3B331A",
"h  c #412E16",
"j  c #412F19",
"k  c #453115",
"l  c #4B3415",
"z  c #433A16",
"x  c #4D3A16",
"c  c #44311A",
"v  c #4B351B",
"b  c #473B19",
"n  c #513615",
"m  c #553916",
"M  c #5B3D17",
"N  c #503719",
"B  c #533919",
"V  c #5B3E1A",
"C  c #603F18",
"Z  c #0D4411",
"A  c #0D4C12",
"S  c #124414",
"D  c #1A4414",
"F  c #124C15",
"G  c #164419",
"H  c #1B441C",
"J  c #154B19",
"K  c #1A4A18",
"L  c #0E5214",
"P  c #135216",
"I  c #135A17",
"U  c #1D5817",
"Y  c #155419",
"T  c #1A541C",
"R  c #155C19",
"E  c #274D16",
"W  c #2E4D17",
"Q  c #25461B",
"!  c #264818",
"~  c #354616",
"^  c #3D4316",
"/  c #344A1A",
"(  c #295418",
")  c #255A1C",
"_  c #3B5319",
"`  c #3A5D1B",
"'  c #146419",
"]  c #176419",
"[  c #166B1B",
"{  c #1A691D",
"}  c #16731D",
"|  c #18751E",
" . c #177B1E",
".. c #187C1F",
"X. c #3B651D",
"o. c #316B1D",
"O. c #24741E",
"+. c #2C731F",
"@. c #34721F",
"#. c #3C711F",
"$. c #205120",
"%. c #187620",
"&. c #1B7E21",
"*. c #226C21",
"=. c #346F22",
"-. c #247324",
";. c #2E7920",
":. c #357A21",
">. c #464317",
",. c #4C4117",
"<. c #4C4D19",
"1. c #5E421A",
"2. c #524C19",
"3. c #5B4C1A",
"4. c #40561A",
"5. c #585E1E",
"6. c #63421A",
"7. c #6B461B",
"8. c #644A1B",
"9. c #6E491D",
"0. c #734B1C",
"q. c #794F1D",
"w. c #68551D",
"e. c #7D511E",
"r. c #48681F",
"t. c #58631F",
"y. c #7F5320",
"u. c #477C23",
"i. c #587522",
"p. c #676A21",
"a. c #796621",
"s. c #6B7925",
"d. c #6A7A25",
"f. c #82541F",
"g. c #88571F",
"h. c #825321",
"j. c #895720",
"k. c #855920",
"l. c #8C5A21",
"z. c #935D22",
"x. c #8B6623",
"c. c #876E25",
"v. c #966023",
"b. c #9C6324",
"n. c #926D25",
"m. c #9B6925",
"M. c #897627",
"N. c #9C7929",
"B. c #A26625",
"V. c #A56926",
"C. c #AB6C27",
"Z. c #AE6F28",
"A. c #B06F27",
"S. c #B06F28",
"D. c #A77528",
"F. c #AD7228",
"G. c #B47229",
"H. c #BA752A",
"J. c #B17B2B",
"K. c #BE782B",
"L. c #C37C2C",
"P. c #C97F2D",
"I. c #16811F",
"U. c #18801F",
"Y. c #198420",
"T. c #1A8B22",
"R. c #1B9324",
"E. c #1C9B26",
"W. c #1E9E28",
"Q. c #238626",
"!. c #238B24",
"~. c #328423",
"^. c #239526",
"/. c #2B9226",
"(. c #239C27",
"). c #289A27",
"_. c #229D29",
"`. c #1DA127",
"'. c #1EA428",
"]. c #1FAB2A",
"[. c #1FB12B",
"{. c #21A429",
"}. c #21AC2A",
"|. c #21B32C",
" X c #22BB2E",
".X c #29BD2F",
"XX c #23C12F",
"oX c #24C430",
"OX c #25CA31",
"+X c #26D233",
"@X c #898029",
"#X c #CC812E",
"$X c #D1852F",
"%X c #D38630",
"&X c #D78831",
"*X c #D98931",
/* pixels */
"A ' [ ' +  .[.'  .T.|.L  .@ . [ A  .A @ R.}.L R.Y.|.# Y.. O } A  .# A '.].I.|.T.'.@ I.  @ | A  .@ I ",
"L I.T.T.A } [.T.T.Y.E. .} ' O }  .E. .Z R.|.Y.R.&.W.} } L +  .I.E.[ A '.].R.E...E.[ } A # I.I.E.I I ",
"Z `. X[.I. .T.`.].I.Y. XY.E.Z ' [.[.[.} Y.T.].`. .R.[. .R.#  .[.|.'.| U.R.].E. .E.|...R.+ R. X|.E.[ ",
"Z `.].].I.I ' E.[.} } oX . .# ' [.`.].[ I ' }.].' T.OX[ I.#  .[.{.{.' ' } |.E.' E. XI  .+ R. X{.R.I ",
"'  .T...' S S } I.I I  .L ' [ ' T.I. .P Z F  ...F '  .F ' ' ' T.I.| F Z P I.} P [ } F ' [ [ I.U.[ Z ",
"..| I.I.} }  . . .} '  .[ ' I.} } R.I.} }  . . .[ [  .' [ Y.} I.R.I.[ |  . . .[ [  .' } U.} I.R. .} ",
"`.].].E.I.].XX].Y.T.R.&. .Y.T.].`.].T.T.|.OXR.Y.T.R.| I.I.R.].`.].I.R. XXXR.I.R.I.| U.I.R.|.`.}.U.E.",
"}.T.T.I.R.XXXX].R.T.[.Y.'  .].`.T.T.I.`.OX X'.T.R.|.| [ I.].E.T.T.I.].OX|.E.I.E.|.[ [ R.|.R.I.U.I.|.",
"].E.I.I.R.W.`.[.].`.E.} [ E.[.`.W.Y...E.E.]. X'.].R.[ } `.|.W.E...Y.W.E.].[.`.'.T.[ I.].].E.R. .I.{.",
"].`.T. .T.T.W.[.E. X`.[ Y.OXoXE.'...&.R.Y.].].R.XXT.[ R.OX XE.`. .Y.R.T.[.].W. X .[ `.+X[.E.W.} R.R.",
"T.R.R...T.Y.R.].Y.|.'.[ Y.OX].Y.'.Y.Y.T. .E.'.Y.XXR.[ E.+XW.I.'...Y.T. .'.E.T.XXY.[ ].+XR.T.'.%.U.U.",
"..E.(.Y.`.T.R.}.R.|.'.} Y.OX`.} ].T.T.]. .].].T.XXR.[ R.OXR...|.Y.R.'.&.[.'.R.XXY.} '.OXI.Y.]. .{.E.",
"[ I.T.I.{.R.W.}.Y.[.W.[ } '.Y.' R...T.}.T.].`.Y. XT.[ I.]. .' E. .R.'.T.[.E.R.[...[ T.].[ } E. .(.`.",
"[ [ ..I.(.T.E.`. .R.Y.] } R.Y.'  . .T.E.T.`.E.} R.} ] &.R. .'  .%.R.W.T.].R.%.E.[ ' Y.R.[ ' &.&.R.E.",
"I Y ] '  .Y.R.`. .{ ' R } ].Y.P I ' ] &.Y.W.W.[ [ ] R  .}.[ F R ' { Y.Y.'.R.{ [ ' ] T.'.' F ] ' } Y.",
"1 , G F I [ &. .J 1 P F { R.' , , F S ] } Y.[ G G Y F | R.R , 1 F A ' %.Y.' 1 G F P Y.T.J * G F F [ ",
"* % : D G J P J * X : - < T Z % * S 1 G F R 1 % % : $ 2 R 1 % * S D G P P , % & : * H I : % $ S G G ",
"$ : : > t ; - = & 3 t 4 0 ; = - : : > t = - * 5 9 ; 0 9 ; = : : : t t - - & 5 4 ; q 4 ; = : : : t t ",
"~ S : t s 0 5 9 k V r v M g z ! F - y g 9 8 0 B M e B B e z S S - a g 9 8 q M B 0 M B e ^ S G ; a q ",
"_ I K a h l M 7.l.l.7.M V 7.8.( R D s h l 6.9.z.f.C M 6.8.3.U R u s k l 6.q.z.q.1.M 6.8.2.I P y k k ",
"5.] { 2 8 h 9.B.#XL.f.h m z.m._ } R i 4 l e.C.%XG.0.h C b.x.) | T 7 9 m g.G.$XB.6.s 0.B.a.R } H 4 q ",
"c.o.Y.{ = e 7.V.&XP.f.r j j.G.p.+.T.T 5 r q.G.*XH.0.6 B v.F.t.O.Y.H 5 v g.L.*XC.V 6 6.B.D.X...&.< 5 ",
"J.d._.Q.i r 6.l.L.L.f.e 9 9.C.J.u.}.*.7 j 7.b.#XG.7.6 q q.Z.@X~.}.) 4 l e.V.#XV.V o n z.G.@XT._.! 9 ",
"D.p.^.(.E h 0.b.H.H.q.6 q j.C.F.=.{.Q.d l y.B.L.S.6.6 l b.Z.N.:.}.-.0 M g.Z.L.B.N 5 C B.F.c.Q.}.) q ",
"F.a.~.).` l 9.z.S.H.7.6 l h.V.S.p././.^ m q.b.G.C.B 6 V j.C.V.r.^.~.z M f.V.H.b.h 6 9.z.S.n.#._.@.l ",
"H.m.r.O.4.m 7.g.G.S.6.o v q.B.H.x.o.;.>.m 0.z.H.V.n o V h.C.G.a.+.=.x M e.B.H.v.h w 6.l.G.F.t.-.X.n ",
"B.k.<.E f n 6.g.V.z.6.5 v 0.z.B.q.~ ( z m 9.z.B.z.n o M q.m.m.9.W W l M 0.v.B.f.q 6 6.g.B.v.3.E / l ",
"b.v.3.y 4 l m 9.z.m.9.w q C h.V.l.,.t r l M 0.B.z.C 6 k 6.l.m.y.f i q N M f.B.g.v 6 n 9.z.B.9.d t k ",
"H.G.9.8 5 h M f.G.K.h.e c 9.b.P.B.1.& 5 k 6.l.L.G.9.6 N q.C.L.z.v & w N 7.b.L.B.V 6 M f.G.L.e.r & r ",
"*XH.9.w & q 9.V.%XP.y.w v l.L.*XV.V o 5 c q.G.*XH.9.6 V b.P.%Xz.v X 5 B l.L.*XC.B 6 9.C.&XP.h.e X 9 ",
"P.H.9.6 X w 6.b.P.L.q.6 v k.G.%XV.V o X r q.V.%XG.C 6 V z.H.%Xz.v X o v h.G.%XB.l 6 9.B.L.P.y.r X 5 ",
"P.G.9.w X w C z.L.K.y.e v q.F.#XB.V 5 X r 9.B.P.G.7.6 V j.H.L.z.v o o c q.S.P.B.V 6 7.z.L.K.y.r X 5 ",
"H.z.V 6 o w 7.C.L.B.0.w v z.L.S.j.v o o j h.H.H.z.C 6 C V.L.C.y.j o 5 v z.H.S.l.N 6 9.G.L.B.7.q o 6 ",
"b.j.B 6 5 w V j.b.l.C o j h.z.z.e.j 6 o e 7.g.B.g.m 6 N j.z.z.7.r 5 5 j q.z.b.e.j 6 M z.z.z.M w o 6 ",
"B.Z.9.r e q m q.B.S.h.j h 7.l.S.B.V q h r C h.C.C.9.w l q.l.S.z.l e r j 7.j.C.B.V w m f.z.S.h.j e q ",
"%XH.9.e o q 0.C.P.P.j.j n z.L.*XV.V o o j f.G.&XH.0.q V b.P.%Xz.v o w N l.L.&XC.C r 9.A.%XP.h.r o 9 ",
"%XH.9.w X e C V.P.L.j.e j h.H.&XV.V o o r 0.A.&XH.7.6 l l.P.%Xz.v o o l h.K.*XC.C 5 V B.%XP.y.r o 3 ",
"L.G.9.w 5 r C z.L.L.h.w 9 0.C.P.V.B 6 o h q.z.P.G.7.6 h j.S.P.z.v 5 3 N h.V.P.B.V o N z.H.P.h.r o 9 ",
"H.C.9.e 6 k 9.b.H.H.0.w h g.C.L.B.V o 9 n h.B.L.S.V 6 m z.S.K.l.v o q M j.C.L.b.v 5 6.B.G.H.y.r o h ",
"H.C.9.e q n C z.G.G.7.o v h.B.H.B.M 9 h m 0.z.L.C.m o V l.C.H.z.v w h M q.B.H.b.j 6 7.z.G.G.h.r 9 l ",
"Z.b.6.r q m 6.z.A.C.C w N h.B.A.z.B w j V 9.z.S.b.n 5 M f.C.Z.f.j e l M e.B.G.l.h 5 C l.S.C.0.j e n ",
"b.l.V w r n 6.q.b.z.C o j 9.l.b.h.v 6 j m 6.h.B.l.B 5 N 0.z.b.q.h 6 l m 7.l.b.h.k o M h.b.z.C w w l ",
"V.B.6.w 6 h B 9.b.V.q.w q C g.C.z.v 5 w l M q.C.B.6.6 l 6.z.Z.f.j o r n C j.Z.z.B 6 B 0.z.C.q.e o j ",
"P.G.7.w o h 6.l.L.L.f.e k q.S.P.V.V 5 5 k 9.b.P.G.0.6 m f.H.P.z.v o 8 n 0.C.#XV.V 6 C z.P.L.h.r X e ",
"%XH.9.6 X e 7.V.%XP.q.w v l.L.&XV.V 5 X j e.G.&XG.6.6 V B.L.$Xz.v X 6 v l.L.&XV.N 6 0.Z.P.P.h.r X 6 ",
"P.H.9.6 X w 6.z.P.L.q.6 v h.C.%XV.V 5 X q 9.b.M.d._ 5 V g.H.$Xz.v X X v q.C.$XB.N 5 9.z.P.P.h.r X 5 ",
"P.C.9.e o w 6.B.L.H.f.r v h.G.M.i./ 5 o r 0.w.#.!.O.H 1.z.L.H.l.v 5 6 v h.H.P.B.V 6 9.b.#Xd.r.8 o 6 ",
"S.j.N 6 X 6 9.C.G.z.C 6 v l.s.~.T.Q.T.$.g y.t.).'.|.{ 3.B.H.B.9.r X X v z.G.V.e.c 6 9.c.:.Q.Q.Y.-.p ",
"z.z.6.e 6 6 B 0.z.b.9.e q 6.W  . XXX|.(.=.3.#..X|.+X!.>.0.f.b.e.j 6 w e 6.j.z.z.N o n 3.I E.OX X{.Q.",
"Z.C.9.e w j C l.S.H.h.j 9 v i K !.|.XXXX!.Q *.XX|.+X(.2.g.m.H.x.v w q v h.z.L.V.C 9 h b 1 ] {. XOX}."
};
